<?xml version="1.0" encoding="UTF-8"?>
<!DOCTYPE svg PUBLIC "-//W3C//DTD SVG 1.1//EN" "http://www.w3.org/Graphics/SVG/1.1/DTD/svg11.dtd">
<!-- Creator: CorelDRAW 2019 (64 Bit) -->
<svg xmlns="http://www.w3.org/2000/svg" xml:space="preserve" width="200mm" height="200mm" version="1.1" style="shape-rendering:geometricPrecision; text-rendering:geometricPrecision; image-rendering:optimizeQuality; fill-rule:evenodd; clip-rule:evenodd"
viewBox="0 0 20000 20000"
 xmlns:xlink="http://www.w3.org/1999/xlink">
 <defs>
  <style type="text/css">
   <![CDATA[
    .str0 {stroke:#0D1F61;stroke-width:7.62;stroke-miterlimit:22.9256}
    .fil8 {fill:#FEFEFE}
    .fil1 {fill:#00AFEF}
    .fil2 {fill:#284480}
    .fil6 {fill:#FEFEFE;fill-rule:nonzero}
    .fil7 {fill:#9FA1A4;fill-rule:nonzero}
    .fil10 {fill:#333A7D;fill-rule:nonzero}
    .fil9 {fill:#0D1F61;fill-rule:nonzero}
    .fil3 {fill:url(#id0)}
    .fil4 {fill:url(#id1)}
    .fil0 {fill:url(#id2)}
    .fil5 {fill:url(#id3)}
   ]]>
  </style>
  <linearGradient id="id0" gradientUnits="userSpaceOnUse" x1="10283.52" y1="9495.47" x2="10283.52" y2="10393.51">
   <stop offset="0" style="stop-opacity:1; stop-color:#284480"/>
   <stop offset="0.560784" style="stop-opacity:1; stop-color:#263969"/>
   <stop offset="1" style="stop-opacity:1; stop-color:#232D51"/>
  </linearGradient>
  <linearGradient id="id1" gradientUnits="userSpaceOnUse" xlink:href="#id0" x1="7468.63" y1="9794.19" x2="7468.63" y2="10354.3">
  </linearGradient>
  <linearGradient id="id2" gradientUnits="userSpaceOnUse" x1="9721.42" y1="10492.52" x2="9721.42" y2="9779.97">
   <stop offset="0" style="stop-opacity:1; stop-color:#263B6E"/>
   <stop offset="0.560784" style="stop-opacity:1; stop-color:#274785"/>
   <stop offset="1" style="stop-opacity:1; stop-color:#29539D"/>
  </linearGradient>
  <linearGradient id="id3" gradientUnits="userSpaceOnUse" x1="6853.92" y1="9916.37" x2="13055.69" y2="9916.37">
   <stop offset="0" style="stop-opacity:1; stop-color:#DCDDDF"/>
   <stop offset="1" style="stop-opacity:1; stop-color:#FEFEFE"/>
  </linearGradient>
 </defs>
 <g id="Camada_x0020_1">
  <metadata id="CorelCorpID_0Corel-Layer"/>
  <g id="_1772585246272">
   <g>
    <path class="fil0" d="M6505.49 10984.58l3.95 0 11.69 0 19.18 0 26.44 0 33.45 0 40.22 0 46.75 0 53.03 0 59.08 0 64.87 0 70.44 0 156.57 0 85.65 0 90.24 0 94.59 0 98.7 0 102.55 0 106.18 0 109.55 0 3349.13 0 105.74 0 102.09 0 98.2 0 94.06 0 89.69 0 85.07 0 80.21 0 75.11 0 69.75 0 64.18 0 58.34 0 52.27 0 45.95 0 39.4 0 32.6 0 25.55 0 18.27 0c352.72,0 411.17,-152.6 470.89,-352.57 8.2,-27.53 100.95,-392.01 202.27,-792.43 -0.26,-0.29 -0.55,-0.39 -0.94,-0.67l0 0 -1.61 6.54c-57.13,-43.64 -756.47,-557.51 -1992.93,-557.51 -1024.63,0 -2010.03,424.14 -3021.54,392.7 -2.68,4.1 -145.01,-4.99 -141.77,-7.51 -292.69,-21.98 -587.85,-85.05 -886.89,-211.01l0.64 -2.74c-0.88,0 -1.71,0 -2.54,-0.1 -149.16,586.43 -384.32,1525.3 -384.32,1525.3z"/>
    <path class="fil1" d="M11534.56 8520.99c-1033.61,0 -2211.72,578.7 -3323.28,686 -680.06,65.52 -1199.27,-217.64 -1199.27,-217.64l-75.35 295.66c1223.8,629.09 3067.27,-302.77 4490.21,-289.01 1070.16,10.54 1579.95,339.97 1628.79,373.28l139.97 -552.34c0,0 -627.39,-295.95 -1661.07,-295.95z"/>
    <path class="fil2" d="M10941.91 9287.94c-1234.68,0 -2412.47,615.6 -3647.17,308.04 -0.78,-0.1 -2.32,-0.4 -2.32,-0.4 1103.33,362.34 2642.68,-263.31 3827.53,-180.33 1184.88,82.9 1747.27,696.27 1747.27,696.27l67.57 -266.07c-57.2,-43.74 -756.63,-557.51 -1992.88,-557.51z"/>
    <path class="fil3" d="M12420.04 10406.52c0,0 -24.9,29.54 -33.1,36.02 -9.37,6.94 -19.6,16.52 -30.75,27.25 -19.16,18.46 -40.38,39.93 -60.39,57.51 -9.5,7.99 -19.27,15.62 -29.26,22.44 -26.22,16.55 -52.37,28.24 -78.81,34.62 -5.07,1.03 -10.19,2.15 -15.24,2.93 -2.59,0.3 -5.16,0.59 -7.75,0.94 -7.02,0.77 -14.08,1.36 -21.21,1.36 -17.03,0 -30.17,-2.59 -39.08,-7.62 -9,-5.31 -15.13,-13.86 -17.79,-25.87 -2.47,-9.86 -3,-23.72 -2.62,-41.88 0.75,-17.88 2.69,-45.75 6.24,-83 10.34,-1.99 20.37,-4.19 30.31,-6.55 4.66,-1.06 9.1,-2.4 13.61,-3.5 5.35,-1.37 10.6,-2.79 15.77,-4.21 4.62,-1.3 9.18,-2.72 13.56,-4.18 5.29,-1.72 10.46,-3.33 15.47,-5.13 3.85,-1.42 7.67,-2.64 11.47,-4.16 1.17,-0.39 2.44,-0.78 3.57,-1.17 2.37,-1.03 4.49,-2.01 6.66,-2.93 7.35,-2.98 14.4,-6.01 21.16,-9.13 3.56,-1.71 7.1,-3.42 10.6,-5.22 6.05,-3.14 12.15,-6.49 17.96,-9.71 3.3,-1.91 6.62,-3.72 9.86,-5.73 5.86,-3.66 11.6,-7.55 17.12,-11.56 2.61,-1.71 5.26,-3.5 7.78,-5.52 7.79,-5.8 15.36,-11.96 22.33,-18.44 51.17,-46.92 70.06,-97.99 57.61,-152.71 -7.96,-34.42 -33.24,-82.76 -56.44,-102.53 -22.98,-19.47 -43.23,-28.78 -75.34,-28.78 -7.93,0 -13.49,20.93 -21.54,21.81 -3.16,0.49 -6.3,1.02 -9.41,1.61 -2.81,0.49 -5.5,0.74 -8.35,1.32 -2.91,0.59 -6.01,1.42 -8.99,2.2 -1.73,0.37 -3.69,0.91 -5.63,1.32 -8.06,2.28 -16.16,5.02 -24.54,8.19 -1.41,0.44 -2.9,1.13 -4.34,1.81 -8.74,3.3 -17.46,7.22 -26.46,11.57 -38.86,19.77 -75.58,47.69 -110.07,83.09 -22.97,23.57 -41.83,47.7 -56.55,71.76 -12.33,16.61 -25.54,35.06 -39.45,55.31 -7.97,11.48 -19.04,28.11 -33.81,49.89 -106.48,157.99 -198.91,227.75 -254.89,227.75 -16.43,0 -18.32,5.65 -28.45,-2.3 -9.98,-7.53 -16.59,-19 -20.06,-34.52 -4.45,-18.98 -2.64,-54.92 5.98,-107.29 8.3,-52.93 22.02,-106.83 41.03,-161.69 20,-58.34 39.96,-101.69 60.53,-130.3 20.22,-28.41 41.87,-42.47 65.28,-42.47 5.66,0 11.66,0.82 17.76,2.92 5.79,2.1 11.97,5.03 18.24,9.04 -22.92,3.6 -40.2,12.94 -51.59,28.07 -11.7,15.18 -15.32,32.47 -10.82,51.79 4.15,17.77 13.11,32.32 27.33,43.8 14.36,11.32 30.52,17.12 48.73,17.12 20.65,0 36.2,-8.48 46.59,-25.09 10.62,-17.23 11.9,-37.59 7.45,-62.63 -7.23,-40.81 -26.15,-74.5 -49.65,-92.08 -23.82,-17.95 -51.55,-11.81 -89.19,-11.81 -34.86,0 -72.06,10.46 -111.67,30.71 -39.62,20.12 -75.82,48.42 -108.16,83.81 -16.23,17.78 -30.06,35.85 -41.42,54.16 -25.29,31.78 -55.25,72.24 -90.17,121.85 -9.79,14.93 -24.05,35.4 -42.1,61.32 -72.29,103.39 -119.69,147.62 -135.17,147.62 -5.17,0 -6.22,5.77 -10.73,1.22 -4.6,-4.4 -7.47,-9.82 -9.01,-16.55 -0.83,-4.04 0.54,-16.46 4.19,-36.97 3.52,-20.78 8.9,-45.72 15.72,-75.66l80.56 -371.51 -16.09 -26.89 -139.3 39.88 -19.16 84.2c-13.43,-32.1 -32.27,-56.12 -56.98,-72.86 -24.52,-15.89 -54.18,-24.33 -89.02,-24.33 -8.02,0 -16.03,0.74 -24.13,1.62 -0.25,0.1 -0.57,0.19 -0.94,0.19 -3.19,0.44 -6.51,1.22 -9.8,1.91 -5.13,0.83 -10.36,1.91 -15.53,3.3 -3.37,0.85 -6.64,1.83 -10.04,2.84 -5.7,1.71 -11.37,3.71 -16.98,6.01 -2.8,1.03 -5.69,2.1 -8.47,3.33 -8.57,3.6 -17.23,7.7 -25.92,12.34 -20.27,10.93 -40.85,24.89 -61.45,41.54 -32.56,17.49 -92.09,87.63 -178.18,210.6 -29.01,40.63 -51.58,72.56 -67.4,95.55 -38.37,51.49 -67.61,86.5 -88.13,105.2 -20.73,18.46 -39.31,27.88 -56.35,27.88 -7.93,0 -13.46,-1.18 -16.61,-3.8 -3.28,-2.69 -5.59,-6.94 -7.23,-13.52 -2.37,-10.85 6.25,-36.33 26.02,-76.42 7.74,-14.73 13.47,-26.7 17.84,-36.11 29.9,-62.25 48.86,-111.95 56.97,-148.18 8.06,-36.51 8.37,-70.05 1.49,-100.08 -9.27,-40.12 -32.56,-88.5 -58.26,-113.1 -25.93,-24.81 -49.04,-21.1 -81.05,-21.1 -40.93,0 -81.58,21.82 -122.03,65.47 -40.6,43.45 -82.49,110.17 -125.76,200.05 5.34,-43.4 8.28,-75.06 8.71,-94.45 0.69,-19.68 -0.43,-34.52 -2.92,-45.45 -8.82,-38.38 -30.45,-84.35 -52.8,-106.96 -22.31,-22.66 -41.86,-18.66 -70.62,-18.66 -32,0 -65.44,18.32 -99.72,55.02 -34.21,36.62 -78.04,102.28 -131.07,196.84 4.11,-28.12 5.71,-52.28 5.71,-72.25 0,-19.88 -0.51,-45.8 -4.62,-64.06 -8.05,-34.84 -38.34,-82.49 -55.36,-101.88 -17.06,-19.47 -20.14,-2.39 -41.74,-2.39 -23.29,0 -53.8,28.41 -92.02,85.08 -7.79,12.07 -13.79,21.1 -18.2,27.55 -22.64,31.97 -36.6,52.76 -41.38,62.48 -21.41,28.42 -46.12,62.65 -74.13,102.72l-15.84 21.39c-93.84,131.07 -150.85,196.74 -170.82,196.74 -4.3,0 -8.19,-1.13 -11.65,-3.52 -3.43,-2.15 -5.39,-5.03 -6.31,-8.36 -3.49,-15.67 6.78,-50.28 30.88,-103.88 3.89,-8.83 6.79,-15.23 9.03,-19.97 3.92,-9.13 10.44,-22.7 18.22,-40.47 41.51,-92.76 58.95,-152.54 52.8,-179.65 -6.37,-27.73 -24.74,-66.69 -49.77,-81.42 -25.09,-14.66 -61.49,-7.13 -114.67,-12.94 -40.16,-4.7 -65.35,-9.72 -75.25,-15.54 -9.96,-5.55 -16.92,-15.55 -20.24,-30.02 -0.89,-4 -1.56,-8.44 -2.3,-13.47 -0.43,-4.69 -0.87,-7.31 -0.95,-7.8 -2.37,-9.97 0.39,-17.39 -3.76,-22.17 -4.2,-4.34 -21.9,-31.1 -28.58,-31.1 -11.15,0 -10.79,64.69 -11.49,144.12l0 7.12 -42.9 60.09c-6.6,9.04 -14.89,21.2 -25.26,36.23 -10.2,13.97 -17.96,25.53 -22.88,34.26 -15.93,21.44 -33.14,45.47 -51.79,71.78 -9.91,14.93 -23.96,35.4 -42.1,61.32 -72.4,103.39 -115.99,155.39 -131.52,155.39 -5.13,0 -9.86,-2 -14.43,-6.55 -4.49,-4.4 -7.35,-9.82 -8.9,-16.55 -1.04,-4.04 0.49,-16.46 4.1,-36.97 3.68,-20.78 8.92,-45.72 15.72,-75.66l80.61 -371.51 -16.06 -26.89 -139.3 39.88 -19.28 84.2c-13.34,-32.1 -32.27,-56.12 -56.78,-72.86 -24.53,-15.89 -54.33,-24.33 -89.18,-24.33 -8.06,0 -16.07,0.74 -24.23,1.62 -0.12,0.1 -0.43,0.19 -0.78,0.19 -3.26,0.44 -6.58,1.22 -9.87,1.91 -5.14,0.83 -10.38,1.91 -15.56,3.3 -3.26,0.85 -6.61,1.83 -9.98,2.84 -5.68,1.71 -11.28,3.71 -17.01,6.01 -2.81,1.03 -5.64,2.1 -8.45,3.33 -8.54,3.6 -17.21,7.7 -25.9,12.34 -38.42,20.79 -77.24,51.6 -116.58,92.37 -38.76,41.34 -64.83,84.3 -77.87,128.45 -13.05,44.26 -13.54,92.45 -1.67,144.05 10.98,47.07 32.92,84.82 65.75,113.11 33.05,28.82 70.74,43.25 112.86,43.25 4.97,0 9.78,-0.29 14.53,-0.78 1.55,-0.08 2.98,-0.52 4.57,-0.72 3.22,-0.41 6.39,-0.9 9.64,-1.51 1.7,-0.4 3.45,-0.98 5.13,-1.29 3.06,-0.81 5.97,-1.5 8.93,-2.53 1.78,-0.58 3.54,-1.17 5.29,-1.8 2.82,-1.08 5.77,-2.2 8.69,-3.41 1.55,-0.78 3.23,-1.63 4.98,-2.61 2.88,-1.2 5.82,-2.61 8.6,-4.28 1.66,-0.83 3.2,-1.86 4.87,-2.83 2.82,-1.72 5.7,-3.52 8.47,-5.53 1.6,-0.93 3.2,-2.08 4.74,-3.32 2.84,-1.89 5.58,-4.18 8.46,-6.43 1.54,-1.18 3.05,-2.5 4.61,-3.82 1.16,-1.07 2.36,-1.9 3.55,-2.98 2.49,-2.25 4.92,-4.53 7.43,-6.92 34.56,-33.74 65.23,-83.64 91.53,-149.58 -3.32,16.65 -4.99,33.25 -4.8,49.02 0.09,16.14 -7.23,27.28 -2.98,45.53 6.95,30.43 31.28,60.93 53.77,79.72 22.14,18.47 47.84,27.88 76.64,27.88 55.46,0 121.54,-55.99 197.19,-168.41 15.49,-23.2 27.11,-40.76 35.22,-53.52 11.74,-15.96 27.65,-38.6 47.86,-67.94 6.06,-8.65 11.86,-17.34 17.68,-25.3 6.03,-7.02 13.21,-16.95 21.58,-29.49 3.22,-4.63 6.22,-9.18 9.05,-13.27 28.55,-39.05 53.21,-69.27 73.62,-90.61l18.21 0c7.05,0 15.52,0.68 25.87,1.81l5.62 0c7.93,0 18.71,-0.54 32.65,-1.81 13.65,-1.22 34.89,-3.62 63.81,-6.73 -51.33,38.41 -89.94,89.32 -115.16,153.57 -25.41,64.3 -31.91,122.63 -19.73,175.22 8.8,38.36 25.66,68.88 49.91,91.24 24.39,22.3 52.98,33.43 85.91,33.43 51.61,0 127.01,-72.67 225.91,-218.21l8.25 -12.05c9.86,-15.04 23.82,-36.04 42.35,-63.72 32.03,-48.77 60.66,-88.55 85.67,-119.26 4.78,-4.69 8.5,-7.04 11.04,-7.04 3.8,0 7.69,2.35 11.1,6.75 3.84,4.64 6.37,9.85 7.57,15.47 2.25,9.03 0.68,23.79 -4.49,43.35 -5.25,19.76 -14.4,47.46 -28.21,82.22l-121.81 245.5 16.11 26.99 190.73 -10.34c68.05,-155.68 127.67,-275.93 178.34,-360.43 50.55,-84.51 88.19,-126.69 112.48,-126.69 4.27,0 8.1,2.54 11.71,7.53 3.67,5.23 6.42,12.69 8.67,22.32 4.12,17.95 2.12,46.85 -5.59,86.59 -8.25,39.64 -22.53,92.65 -43.05,159.29l-85.17 194.74 16.03 26.99 187.74 -10.34c44.42,-154.84 95.07,-278.6 151.8,-371.36 56.75,-93.05 107.67,-139.14 153.01,-139.14 8.41,0 14.46,1.42 18.22,4.55 3.61,3.21 6.49,9.41 8.65,18.54 1.52,7.04 -5.84,27.59 -22.27,61.95 -10.84,21.58 -19.26,39.94 -25.28,54.1l-9.33 18.83c-50.29,108.82 -70,187.81 -58.69,236.49 8.4,36.55 25.51,66.79 50.98,90.65 25.74,23.69 53.96,35.73 85.4,35.73 36.13,0 69.01,-12.04 98.4,-36.02 29.27,-24.12 76.86,-87.15 143.36,-189.21 5.8,-8.31 13.01,-19.4 21.91,-33.4 -3.83,32.42 -1.52,66.34 6.72,102.27 10.78,47.07 32.82,84.82 65.51,113.11 33.25,28.82 70.88,43.25 113.13,43.25 4.83,0 9.75,-0.29 14.46,-0.78 1.48,-0.08 3,-0.52 4.51,-0.72 3.22,-0.41 6.47,-0.9 9.66,-1.51 1.76,-0.4 3.43,-0.88 4.99,-1.29 3.07,-0.81 6.1,-1.5 9.1,-2.53 1.68,-0.58 3.28,-1.17 5.01,-1.71 2.93,-1.17 5.9,-2.29 8.98,-3.61 1.55,-0.67 3.12,-1.37 4.61,-2.2 3.08,-1.42 6.15,-2.91 9.11,-4.73 1.38,-0.68 2.8,-1.66 4.17,-2.29 3.17,-1.91 6.29,-4.01 9.37,-6.11 1.25,-0.82 2.49,-1.71 3.81,-2.64 3.13,-2.28 6.33,-4.77 9.54,-7.41 1.2,-1.07 2.3,-1.91 3.34,-2.79 1.47,-1.22 2.96,-2.25 4.41,-3.52 2.41,-2.25 4.77,-4.53 7.16,-6.92 34.77,-33.74 65.33,-83.64 91.84,-149.58 -3.5,16.65 -5.18,33.25 -4.93,49.02 0.17,16.14 2.51,33.38 6.69,51.64 6.98,30.42 21.52,54.82 44.06,73.61 22.25,18.47 47.89,27.88 76.73,27.88 55.51,0 121.44,-55.99 197.13,-168.41 15.46,-23.2 27.08,-40.76 35.41,-53.52 9.63,-13.32 22.1,-31.1 37.86,-53.7 -3.38,30.8 -1.41,62.65 6.33,96 12.75,54.86 37.26,98.55 74.34,130.87 36.6,32.52 79.54,48.76 128.82,48.76 78.11,0 168.45,-77.17 271.22,-231.26l20.38 -30.8c0.27,-0.09 0.34,-0.18 0.46,-0.43 -2.92,26.6 -1.2,53.6 5.1,81.24 12.27,53.6 39.01,97.14 79.68,131.07 40.73,33.24 88.38,50.18 142.61,50.18 7.55,0 15,-0.49 22.51,-1.21 1.52,-0.11 2.96,-0.29 4.43,-0.48 6,-0.69 12,-1.62 17.98,-2.81 0.81,-0.08 1.64,-0.19 2.4,-0.22 0.75,-0.2 1.45,-0.3 2.22,-0.59 6.93,-1.52 13.79,-3.13 20.53,-5.23 1.11,-0.39 2.31,-0.57 3.43,-0.98 7.5,-2.33 14.8,-5.13 22.17,-8.16 1.98,-0.96 3.86,-1.89 5.91,-2.87 5.56,-2.44 11.18,-5.13 16.62,-8.16 2.11,-1.1 4.22,-2.08 6.35,-3.4 7.15,-4.01 14.33,-8.36 21.45,-13.23 36.86,-25.35 84.73,-73.39 143.5,-144.17 -6.04,-14.6 -16.18,-26.8 -16.18,-26.8zm-263.5 -213.97l0 0c3.37,-5.87 6.72,-11.67 9.96,-17 2.12,-3.22 4.05,-6.39 6.13,-9.43 1.63,-2.37 3.03,-4.72 4.59,-7.02 1.73,-2.49 3.39,-4.82 5.13,-7.12 2.12,-2.83 4.24,-5.62 6.36,-8.26 1.12,-1.46 2.32,-2.98 3.49,-4.28 1.84,-2.1 3.56,-3.93 5.4,-5.81 2.35,-2.45 4.64,-4.94 7.03,-7.04 1.76,-1.7 3.49,-3.12 5.29,-4.53 2.25,-1.91 4.65,-3.52 6.8,-5.04 1.58,-1.07 3.26,-2.2 4.93,-3.08 2.46,-1.41 4.99,-2.34 7.53,-3.32 1.2,-0.49 2.6,-1.2 3.84,-1.5 3.76,-1.12 7.49,-1.72 11.3,-1.72 9.35,0 18.76,4.83 28.12,14.66 9.43,9.75 15.67,21.27 18.89,35.14 11.3,48.67 -3.13,98.86 -42.7,151.06 -4.55,6.04 -9.31,11.66 -14.22,17.16 -1.46,1.52 -2.95,3.14 -4.44,4.7 -3.64,3.75 -7.13,7.36 -10.75,10.88 -1.92,1.81 -4,3.52 -5.93,5.18 -3.24,2.93 -6.63,5.85 -10.16,8.54 -2.31,1.81 -4.48,3.61 -6.87,5.32 -2.1,1.6 -4.28,2.84 -6.52,4.43 -4.96,3.3 -9.93,6.51 -15.18,9.44 -2.53,1.42 -5.11,2.83 -7.74,4.3 -5,2.54 -10.06,5.01 -15.31,7.31 -2.54,1.03 -5.22,2.25 -7.76,3.23 -5.98,2.29 -11.98,4.25 -18.11,6.16 -2.13,0.68 -4.3,1.35 -6.42,1.9 -8.49,2.38 -17.16,4.39 -26.09,5.9 10.79,-82.98 32.32,-153.15 63.41,-210.16zm-3604.92 93.93l0 0c-16.2,48.97 -40.61,103.29 -73.93,163 -5.86,10.25 -11.63,19.97 -17.57,29.34 -1.52,2.49 -3.06,4.89 -4.64,7.31 -5.86,8.95 -11.67,17.68 -17.58,25.69 0,0.1 -0.09,0.29 -0.14,0.29 -6.23,8.35 -12.47,16.26 -18.78,23.48 -1.11,1.52 -2.41,2.93 -3.6,4.25 -6.18,7.04 -12.36,13.52 -18.61,19.58 -27.7,26.36 -53.29,39.54 -77.11,39.54 -11.66,0 -20.6,-2.93 -26.74,-8.44 -6.45,-5.91 -11.06,-14.74 -13.75,-26.72 -5.81,-25.28 -3.37,-59.1 7.5,-101.04 10.78,-42.18 30.87,-96.75 60.26,-163.84 10.78,-24.27 21.01,-46.08 30.88,-65.47 0.12,-0.29 0.32,-0.67 0.5,-0.97 3.06,-6.1 6.19,-11.86 9.24,-17.76 0.36,-0.79 0.8,-1.34 1.2,-2.12 2.79,-5.11 5.56,-10.13 8.14,-14.92 0.64,-0.83 1.18,-1.81 1.69,-2.66 2.56,-4.48 5.05,-8.83 7.54,-12.92 0.52,-0.73 1.07,-1.51 1.66,-2.34 2.55,-4.11 5.02,-8.02 7.37,-11.73 0.47,-0.59 0.82,-1.01 1.21,-1.6 2.62,-3.91 5.16,-7.52 7.8,-11.02 22.85,-30.73 44.43,-46.29 64.37,-46.29 18.51,0 35.07,6.34 49.97,19.67 14.8,13.13 24.84,30.21 29.58,50.77 5,22.21 -0.36,57.95 -16.46,106.92zm2502.79 0l0 0c-16.23,48.97 -40.76,103.29 -73.96,163 -5.9,10.44 -11.83,20.26 -17.77,29.73 -1.29,2.3 -2.76,4.5 -4.1,6.58 -12.23,18.8 -24.48,35.45 -37.07,50.1 -0.93,1.22 -1.98,2.44 -3.13,3.51 -6.27,7.32 -16.89,3.32 -23.32,9.47 -27.7,26.37 -53.23,39.53 -77,39.53 -11.6,0 -20.58,-2.91 -26.81,-8.43 -6.52,-5.9 -6.61,-4.19 -9.37,-16.17 -5.85,-25.28 -3.37,-59.1 7.57,-101.04 10.79,-42.18 30.81,-96.75 60.26,-163.84 7.06,-16.06 13.96,-31 20.68,-45.06 1.75,-3.52 3.46,-6.94 5.2,-10.24 1.49,-3.23 3.13,-6.5 4.67,-9.63 2.9,-5.7 5.75,-11.27 8.56,-16.65 0.32,-0.52 0.7,-1.13 0.87,-1.61 6.26,-11.67 12.28,-22.3 18.21,-31.91 0.14,-0.2 0.28,-0.3 0.39,-0.46 2.47,-4.29 4.99,-8.1 7.55,-11.91 0.49,-0.71 0.88,-1.61 1.44,-2.29 2,-3.04 3.91,-5.76 5.85,-8.44 1.25,-1.72 2.58,-3.62 3.7,-5.31 22.86,-30.73 44.47,-46.29 64.4,-46.29 18.51,0 34.97,6.34 50.08,19.67 14.91,13.13 24.77,30.21 29.55,50.77 5.01,22.21 -0.36,57.95 -16.45,106.92l0 0z"/>
    <path class="fil4" d="M8041.91 10121.08c-1.39,-0.6 -2.88,-0.89 -4.42,-1.07 -0.39,0 -9.59,0.88 -9.86,0.88 -0.64,0.27 -1.56,0.27 -2.16,0.78 -100.13,52.03 -182.88,86.7 -280.18,81.93 60.09,-204.47 119.26,-383.39 192.86,-497.94 -49.32,-2.28 -98.19,-5.64 -146.54,-10.19 -96.16,83.81 -209.02,241.79 -290.83,491.6 -224.59,4.89 -349.59,126.45 -354.13,132.88 -6.29,8.61 15.53,40.93 24.19,47.26 3.46,2.54 7.61,3.81 11.54,3.81 6.08,0 12.04,-2.83 15.94,-8.09 0.96,-1.47 93.71,-125.86 289.89,-135.91 -7.3,24.01 -14.41,48.9 -21.27,74.69 -91.7,347.39 -199.67,483.79 -378.29,462.21 -28.75,-3.52 -76.96,-15.92 -113.41,-55.94 24.34,-1.67 55.05,-13.87 74.53,-35.53 20,-22.08 27.68,-48.35 23.33,-78.8 -4.05,-28.12 -15.37,-58.99 -36.03,-78.5 -20.45,-19.54 -45.42,-23.25 -73.44,-25.69 -31.79,-2.62 -56.86,8.7 -75.25,33 -18.71,24.91 -25.24,56.82 -19.6,95.5 7.64,53.1 33.44,90.11 62.56,125.36 36.71,44.53 139.13,104.96 251.49,108.56 54.08,1.68 114.32,-2.42 176.43,-32.59 136.07,-65.82 267.47,-210.62 344.43,-473.35 10.32,-35.25 20.34,-69.82 30.2,-103.51 65.75,3.81 132.45,2.65 200.54,-12.48 -57.8,55.75 -137.62,131.07 -170.04,235 -2.55,8.25 8.87,20.12 16.39,27.64l159.59 -71.96c0,0 -12.58,-85.15 124.28,-239.81 0.25,-0.28 0.4,-0.78 0.71,-1.06 1.2,-1.47 2.25,-3.03 2.96,-4.69 0.17,-0.59 0.56,-0.98 0.76,-1.47 0.64,-1.56 0.83,-3.03 0.95,-4.6 0.19,-1.15 0.46,-2.23 0.46,-3.49 0,-0.4 -0.12,-1.08 -0.27,-1.67 -0.64,-6.84 -21.22,-40.33 -28.31,-42.76l0 0z"/>
    <path class="fil5" d="M11426.87 8996c-1422.94,-13.76 -3266.41,918.1 -4490.21,289.01l-44.95 177.11c299.04,125.96 594.2,189.03 886.89,211.01 -98.88,81.22 -209.32,226.2 -294.49,486.31 -224.42,4.79 -329.63,146.47 -334.16,152.71 -6.35,8.9 -4.37,21.08 4.41,27.43 3.47,2.54 7.5,3.81 11.43,3.81 6.02,0 12.1,-2.93 16.01,-8.19 1.03,-1.37 93.64,-125.76 289.81,-135.83 -7.33,24.03 -14.47,48.92 -21.28,74.91 -91.71,347.18 -199.58,483.58 -378.18,462.01 -28.8,-3.51 -76.99,-15.92 -113.58,-55.95 24.41,-1.75 55.12,-13.86 74.73,-35.54 19.91,-22.07 27.63,-48.32 23.32,-78.8 -4.17,-28.21 -16.16,-51.44 -36.73,-71.07 -20.55,-19.53 -44.79,-30.66 -72.81,-33.2 -31.73,-2.54 -56.9,8.7 -75.3,33 -18.73,24.99 -25.25,56.92 -19.55,95.5 7.56,53.2 33.38,90.31 62.5,125.47 36.84,44.41 139.14,105.04 251.62,108.56 54.01,1.76 114.28,-2.63 176.5,-32.6 135.89,-65.81 267.34,-210.42 344.24,-473.35 10.38,-35.35 20.32,-69.62 30.18,-103.4 65.78,3.6 132.49,2.54 200.54,-12.7 -62.29,60.14 -122.85,146.07 -153.42,262.74l159.45 -72.05c0,0 -12.54,-85.05 124.27,-239.69 0.22,-0.32 0.34,-0.69 0.65,-1.1 1.28,-1.45 2.11,-3.11 2.94,-4.67 0.26,-0.59 0.58,-1.08 0.85,-1.47 0.57,-1.56 0.64,-2.93 0.88,-4.48 0.19,-1.27 0.52,-2.36 0.52,-3.52 0,-0.49 -0.26,-1.07 -0.33,-1.56 -0.5,-7.04 -4.8,-12.9 -11.71,-15.33 -1.53,-0.6 -3.02,-0.89 -4.54,-1.17 -0.27,-0.1 -0.53,-0.1 -0.73,-0.1 -2.88,-0.29 -5.77,0 -8.57,0.98 -0.12,0.1 -0.47,0.1 -0.61,0.1 -0.68,0.38 -1.39,0.38 -2.1,0.68 -100.1,52.03 -199.32,59.16 -296.67,54.48 60.95,-207.38 116.58,-380.99 191.68,-495.41 1011.51,31.44 1996.91,-392.7 3021.54,-392.7 1236.46,0 1935.8,513.87 1992.93,557.51l120.82 -476.17c-48.84,-33.31 -558.63,-362.74 -1628.79,-373.28zm966.66 1407.39c-0.61,0.1 -1.05,0.1 -1.72,0.25 -5.46,1.07 -12.73,5.41 -21.05,12.02 -9.35,6.92 -19.6,16.44 -30.73,27.28 -19.16,18.3 -40.44,39.98 -60.55,57.27 -9.33,8.19 -19.08,15.9 -29.06,22.44 -26.26,16.65 -52.41,28.41 -78.79,34.62 -5.13,1.13 -10.1,2.35 -15.28,3.13 -2.57,0.29 -5.13,0.57 -7.76,0.93 -7.06,0.68 -14.11,1.25 -21.26,1.25 -17,0 -29.94,-2.47 -38.93,-7.6 -9.11,-5.24 -15.21,-13.77 -17.9,-25.87 -2.31,-9.87 -3.02,-23.54 -2.64,-41.9 0.75,-17.87 2.69,-45.75 6.21,-82.79 10.39,-2.1 20.52,-4.3 30.38,-6.63 4.67,-1.08 9.08,-2.32 13.65,-3.52 5.37,-1.47 10.66,-2.88 15.78,-4.4 4.7,-1.22 9.11,-2.64 13.61,-4 5.17,-1.62 10.32,-3.41 15.45,-5.23 3.75,-1.21 7.61,-2.63 11.38,-3.95 1.21,-0.48 2.48,-0.98 3.61,-1.46 2.37,-0.84 4.42,-1.91 6.73,-2.84 7.18,-2.88 14.21,-5.9 21.04,-9.12 3.62,-1.63 7.03,-3.33 10.55,-5.13 6.25,-3.03 12.13,-6.4 18.16,-9.71 3.22,-1.91 6.52,-3.91 9.76,-5.77 5.86,-3.6 11.5,-7.61 17.04,-11.42 2.64,-1.9 5.37,-3.71 7.86,-5.72 7.81,-5.79 15.43,-11.86 22.26,-18.36 51.26,-46.89 70.15,-97.87 57.56,-152.7 -7.81,-34.41 -23.41,-61.6 -46.51,-81.47 -23.08,-19.48 -50.67,-29.63 -82.83,-29.63 -7.89,0 -15.8,0.73 -23.84,1.71 -3.14,0.39 -6.32,0.91 -9.39,1.4 -2.73,0.59 -5.54,0.85 -8.39,1.42 -3.01,0.58 -5.93,1.32 -8.98,2.31 -1.87,0.38 -3.74,0.72 -5.63,1.3 -8.1,2.2 -16.3,4.84 -24.6,8.12 -1.44,0.53 -2.83,1.02 -4.29,1.69 -8.66,3.44 -17.58,7.33 -26.46,11.68 -38.99,19.87 -75.6,47.55 -110.11,83.08 -23.02,23.69 -42.09,48.29 -57.93,71.78 -11.52,17.04 -24.16,35.03 -38.15,55.3 -7.91,11.37 -18.96,28.22 -33.73,49.7 -106.45,158.27 -187.64,237.41 -243.46,237.41 -16.62,0 -29.7,-3.82 -39.86,-11.77 -9.87,-7.62 -16.6,-19.09 -20.09,-34.42 -4.57,-19.17 -2.42,-55.11 5.9,-107.5 8.5,-52.91 22.17,-106.7 41.14,-161.58 19.97,-58.35 39.93,-101.9 60.51,-130.31 20.21,-28.49 41.93,-42.47 65.27,-42.47 5.85,0 11.66,0.88 17.71,2.93 5.92,2.01 12,4.99 18.34,9.03 -22.89,3.52 -40.18,12.85 -51.65,27.89 -11.54,15.28 -15.25,32.66 -10.73,51.98 4.12,17.78 13.15,32.22 27.4,43.79 14.28,11.24 30.49,17.23 48.56,17.23 20.6,0 36.22,-8.68 46.69,-25.18 10.6,-17.04 13.13,-37.84 7.3,-62.54 -7.74,-33.77 -23.26,-59.61 -46.88,-77.18 -23.89,-17.97 -54.28,-26.8 -91.67,-26.8 -35,0 -72.25,10.44 -111.89,30.61 -39.6,20.2 -75.84,48.46 -108.09,83.71 -16.38,17.87 -31.9,36.72 -44.35,54.35 -23.41,33.09 -52.32,72.25 -87.31,121.95 -9.79,14.84 -23.97,35.4 -41.98,61.22 -72.49,103.49 -116.14,155.28 -131.55,155.28 -5.03,0 -9.84,-1.89 -14.37,-6.44 -4.65,-4.3 -7.52,-9.8 -9.06,-16.64 -0.93,-3.96 0.61,-16.36 4.17,-36.97 3.48,-20.78 8.86,-45.69 15.77,-75.57l80.55 -371.5 -155.41 12.98 -19.26 84.11c-13.42,-31.93 -32.15,-56.23 -56.85,-72.69 -24.58,-16.16 -54.22,-24.4 -89.09,-24.4 -7.98,0 -16.04,0.73 -24.1,1.71 -0.36,0.1 -0.6,0.1 -0.93,0.1 -3.24,0.44 -6.46,1.12 -9.73,1.71 -5.25,1.01 -10.37,2.09 -15.6,3.4 -3.3,0.83 -6.69,1.91 -10.03,2.94 -5.69,1.8 -11.43,3.71 -17.04,5.91 -2.88,1.02 -5.62,2.18 -8.47,3.23 -8.49,3.89 -17.23,7.89 -25.87,12.63 -20.19,10.94 -42.33,23.43 -61.5,41.45 -26.92,25.28 -91.94,87.53 -178.13,210.5 -29.13,40.71 -51.64,72.54 -67.45,95.64 -38.41,51.51 -67.54,86.41 -88.26,105.11 -20.56,18.55 -39.1,27.87 -56.21,27.87 -7.83,0 -13.5,-1.07 -16.53,-3.71 -3.38,-2.77 -5.53,-6.92 -7.12,-13.52 -2.62,-10.93 6.16,-36.46 25.87,-76.4 7.69,-14.85 13.43,-26.9 17.84,-36.31 29.93,-62.07 48.75,-111.76 56.92,-148.17 8.05,-36.33 8.42,-69.77 1.42,-99.99 -9.16,-40.12 -26.75,-72.34 -52.33,-97.06 -26.07,-24.69 -54.78,-37.04 -86.96,-37.04 -40.8,0 -81.42,21.91 -121.86,65.57 -40.62,43.33 -82.63,109.99 -125.88,199.85 5.42,-43.2 8.39,-74.99 8.85,-94.27 0.49,-19.76 -0.46,-34.7 -2.95,-45.45 -8.98,-38.56 -24.68,-68.98 -46.89,-91.69 -22.48,-22.44 -47.86,-34.01 -76.5,-34.01 -32.15,0 -65.59,18.31 -99.78,54.91 -34.25,36.72 -77.96,102.37 -131.05,196.94 3.97,-28.22 5.71,-52.18 5.71,-72.35 0,-19.76 -2.3,-39.24 -6.48,-57.41 -8.03,-34.95 -20.6,-62.14 -37.44,-81.53 -17.09,-19.58 -36.37,-29.29 -57.84,-29.29 -23.42,0 -53.92,28.46 -92.12,85.18 -7.77,11.88 -13.77,21.01 -18.19,27.44 -22.64,32.07 -87.46,125.04 -115.48,165.12l-15.84 21.47c-93.76,130.99 -150.79,196.64 -170.77,196.64 -4.42,0 -8.15,-1.11 -11.65,-3.42 -3.5,-2.13 -5.44,-5.02 -6.32,-8.34 -3.54,-15.67 6.79,-50.28 30.88,-103.88 3.95,-8.84 6.89,-15.19 8.94,-19.98 4.19,-9.12 10.61,-22.59 18.35,-40.47 41.57,-92.75 59.02,-152.55 52.82,-179.64 -6.42,-27.73 -22.14,-49.22 -47.27,-63.86 -24.96,-14.65 -64.04,-24.7 -117.3,-30.52 -40,-4.67 -65.25,-9.72 -75.18,-15.52 -9.91,-5.56 -16.84,-15.57 -20.24,-29.92 -0.92,-4.16 -1.75,-8.64 -2.16,-13.48 -0.64,-4.77 -0.98,-7.43 -1.11,-7.91 -2.31,-10.05 -5.55,-17.09 -9.63,-21.77 -4.21,-4.34 -9.96,-6.73 -16.67,-6.73 -11.09,0 -16.75,39.93 -17.63,119.27l0 7.12 -42.78 60.29c-6.58,8.92 -14.93,21.09 -25.29,36.01 -10.16,14.06 -17.9,25.65 -22.95,34.38 -15.82,21.43 -33.15,45.37 -51.67,71.87 -9.84,14.84 -24.08,35.4 -42.12,61.22 -72.39,103.49 -116.06,155.28 -131.51,155.28 -5.08,0 -9.91,-1.89 -14.33,-6.44 -4.64,-4.3 -7.44,-9.8 -9.01,-16.64 -0.97,-3.96 0.52,-16.36 4.13,-36.97 3.61,-20.78 8.91,-45.69 15.64,-75.57l80.72 -371.5 -155.53 12.98 -19.18 84.11c-13.44,-31.93 -32.2,-56.23 -56.88,-72.69 -24.52,-16.16 -54.1,-24.4 -89.2,-24.4 -7.92,0 -15.9,0.73 -24.09,1.71 -0.29,0.1 -0.51,0.1 -0.82,0.1 -3.3,0.44 -6.47,1.12 -9.83,1.71 -5.26,1.01 -10.38,2.09 -15.53,3.4 -3.25,0.83 -6.71,1.91 -10.05,2.94 -5.67,1.8 -11.31,3.71 -17.1,5.91 -2.76,1.02 -5.48,2.18 -8.35,3.23 -8.49,3.81 -17.18,7.89 -25.91,12.63 -38.33,20.71 -77.29,51.6 -116.54,92.26 -38.81,41.36 -64.95,84.22 -77.85,128.45 -13.05,44.28 -13.49,92.27 -1.69,143.97 10.97,47.07 32.87,84.79 65.67,113.2 33.05,28.92 70.77,43.16 112.99,43.16 4.82,0 9.71,-0.3 14.51,-0.67 1.42,-0.11 2.91,-0.56 4.42,-0.64 3.29,-0.6 6.53,-0.98 9.73,-1.7 1.81,-0.32 3.57,-0.8 5.13,-1.29 2.98,-0.82 6.16,-1.5 9,-2.53 1.79,-0.49 3.45,-1.27 5.14,-1.81 3,-1.17 5.88,-2.1 8.73,-3.22 1.71,-0.98 3.44,-1.61 5.06,-2.49 2.8,-1.42 5.68,-2.92 8.61,-4.49 1.59,-0.83 3.21,-1.95 4.81,-2.83 2.88,-1.71 5.69,-3.52 8.52,-5.52 1.65,-1.03 3.23,-2.1 4.68,-3.31 2.82,-2.1 5.63,-4.12 8.38,-6.25 1.56,-1.47 3.18,-2.69 4.64,-4.01 1.22,-1.08 2.46,-2 3.65,-3.13 2.43,-2.2 4.89,-4.48 7.31,-6.78 34.69,-33.73 65.39,-83.83 91.58,-149.59 -3.27,16.65 -4.84,33.17 -4.73,48.97 0.16,16.21 2.56,33.54 6.74,51.7 7.05,30.42 21.52,54.82 44.05,73.57 22.09,18.51 47.77,27.82 76.75,27.82 55.34,0 121.38,-55.89 197.1,-168.32 15.45,-23.18 26.99,-40.76 35.2,-53.5 11.61,-16.07 27.66,-38.63 47.87,-67.97 5.98,-8.73 11.82,-17.23 17.66,-25.38 6.04,-6.84 13.21,-16.74 21.52,-29.38 3.19,-4.75 6.31,-9.29 9.18,-13.28 28.57,-39.14 53.15,-69.26 73.5,-90.62l18.2 0c7.13,0 15.59,0.6 25.8,1.77l5.78 0c7.79,0 18.72,-0.58 32.44,-1.77 13.84,-1.31 34.96,-3.51 64,-6.73 -51.41,38.43 -89.99,89.35 -115.16,153.59 -25.41,64.2 -31.81,122.63 -19.84,175.2 8.93,38.38 25.65,68.89 50.01,91.14 24.36,22.32 52.95,33.45 85.87,33.45 51.62,0 127.06,-72.59 225.93,-218.11l8.16 -12.06c9.86,-15.05 23.96,-36.23 42.47,-63.81 32.03,-48.67 60.54,-88.55 85.65,-119.26 4.96,-4.59 8.52,-7.04 11.08,-7.04 3.74,0 7.7,2.45 11.19,6.75 3.65,4.53 6.1,9.85 7.53,15.47 2.1,9.22 0.61,23.87 -4.56,43.35 -5.25,19.87 -14.45,47.45 -28.14,82.3l-105.77 272.41 190.61 -10.25c68.13,-155.69 127.74,-275.91 178.5,-360.33 50.46,-84.71 88.03,-126.88 112.39,-126.88 4.22,0 8.15,2.63 11.71,7.62 3.64,5.41 6.45,12.64 8.72,22.4 4.08,17.87 2.1,46.67 -5.71,86.62 -8.13,39.53 -22.41,92.56 -43.06,159.18l-68.93 221.64 187.66 -10.25c44.43,-154.95 95.14,-278.62 151.85,-371.27 56.57,-93.06 107.62,-139.42 153.07,-139.42 8.4,0 14.35,1.52 18.14,4.65 3.61,3.35 6.41,9.41 8.53,18.53 1.57,7.14 -5.81,27.58 -22.18,61.96 -10.74,21.68 -19.26,39.84 -25.33,54.28l-9.18 18.75c-50.36,108.81 -70.04,187.71 -58.86,236.39 8.5,36.67 25.54,66.98 51.12,90.65 25.58,23.87 53.85,35.73 85.16,35.73 36.37,0 69.23,-11.86 98.46,-35.92 29.38,-24.08 76.97,-87.25 143.46,-189.23 5.69,-8.49 13.13,-19.37 21.8,-33.4 -3.68,32.32 -1.42,66.25 6.84,102.19 10.89,47.07 32.85,84.79 65.59,113.2 33.14,28.92 70.83,43.16 112.99,43.16 4.85,0 9.74,-0.3 14.5,-0.67 1.55,-0.11 2.95,-0.56 4.48,-0.64 3.27,-0.6 6.55,-0.98 9.78,-1.7 1.7,-0.32 3.32,-0.69 4.99,-1.18 3,-0.83 6.05,-1.61 9.11,-2.64 1.56,-0.49 3.24,-1.07 4.9,-1.61 3,-1.37 5.96,-2.3 8.96,-3.52 1.57,-0.88 3.05,-1.51 4.61,-2.28 3.06,-1.53 6.1,-3.03 9.16,-4.76 1.41,-0.76 2.76,-1.64 4.07,-2.38 3.1,-1.81 6.4,-3.91 9.53,-6.2 1.19,-0.64 2.46,-1.62 3.7,-2.45 3.23,-2.37 6.41,-4.88 9.59,-7.41 1.2,-0.88 2.23,-1.9 3.45,-2.78 1.32,-1.22 2.87,-2.35 4.29,-3.67 2.4,-2.2 4.82,-4.48 7.18,-6.78 34.76,-33.73 65.32,-83.83 91.7,-149.59 -3.27,16.65 -5.05,33.17 -4.85,48.97 0.12,16.21 2.56,33.54 6.74,51.7 7.05,30.42 21.57,54.82 43.93,73.57 22.34,18.51 47.92,27.82 76.92,27.82 55.41,0 121.41,-55.89 197.1,-168.32 15.52,-23.18 26.87,-40.76 35.43,-53.5 9.58,-13.42 22.08,-31.2 37.87,-53.7 -3.49,30.7 -1.43,62.53 6.23,95.97 12.67,54.99 37.44,98.58 74.21,130.8 36.87,32.71 79.66,48.75 128.95,48.75 78.1,0 168.45,-77.08 271.33,-231.14l20.31 -30.72c0.27,-0.2 0.39,-0.49 0.49,-0.52 -2.91,26.6 -1.35,53.69 5.07,81.12 12.24,53.71 38.93,97.35 79.7,131.09 40.71,33.33 88.34,50.17 142.67,50.17 7.55,0 15.06,-0.48 22.46,-1.02 1.44,-0.2 2.92,-0.49 4.25,-0.67 6.13,-0.6 12.15,-1.42 18.13,-2.69 0.78,-0.11 1.59,-0.11 2.4,-0.34 0.8,-0.09 1.49,-0.41 2.2,-0.59 6.85,-1.41 13.86,-3.12 20.5,-5.13 1.27,-0.39 2.32,-0.58 3.42,-1.17 7.55,-2.05 14.93,-5.03 22.19,-8.06 1.97,-0.79 3.97,-1.8 5.98,-2.77 5.53,-2.45 11.02,-5.23 16.64,-8.16 1.98,-1.03 4.2,-2.3 6.3,-3.31 7.17,-4.2 14.33,-8.55 21.37,-13.44 36.89,-25.33 84.88,-73.28 143.51,-143.96 -8.67,-5.52 -15.89,-6.48 -26.51,-3.13zm-253.05 -237.74l0 0c3.27,-6.06 6.54,-11.56 9.86,-16.99 2,-3.42 4.13,-6.5 6.2,-9.53 1.41,-2.35 3.05,-4.63 4.66,-7.02 1.64,-2.4 3.32,-4.83 5.08,-7.13 2.1,-2.92 4.23,-5.61 6.35,-8.06 1.16,-1.56 2.22,-2.98 3.49,-4.49 1.69,-2.1 3.49,-3.91 5.29,-5.7 2.37,-2.54 4.74,-4.94 7.06,-7.14 1.73,-1.61 3.64,-3.03 5.3,-4.53 2.24,-1.82 4.56,-3.51 6.74,-5.03 1.73,-1.08 3.39,-2.1 4.85,-3.08 2.69,-1.32 5.05,-2.35 7.68,-3.32 1.33,-0.49 2.53,-1.12 3.89,-1.61 3.74,-0.82 7.51,-1.62 11.18,-1.62 9.47,0 18.9,4.84 28.16,14.66 9.56,9.76 15.8,21.38 19,35.14 11.14,48.78 -3.14,98.87 -42.74,151.15 -4.64,6.06 -9.37,11.76 -14.28,17.28 -1.53,1.61 -3.03,3.03 -4.44,4.58 -3.52,3.66 -7.01,7.38 -10.82,10.9 -1.86,1.81 -3.78,3.51 -5.78,5.18 -3.22,3.02 -6.74,5.75 -10.23,8.63 -2.27,1.71 -4.49,3.52 -6.81,5.13 -2.17,1.6 -4.37,3.01 -6.51,4.43 -4.96,3.52 -10.01,6.6 -15.14,9.63 -2.56,1.41 -5.12,2.72 -7.81,4.11 -4.96,2.62 -10.11,5.01 -15.28,7.21 -2.69,1.22 -5.15,2.25 -7.98,3.42 -5.79,2.3 -11.79,4.16 -17.92,6.05 -2.22,0.58 -4.23,1.48 -6.49,2.11 -8.45,2.29 -17.09,4.29 -25.93,5.8 10.65,-83.1 32.18,-153.09 63.37,-210.16zm-3605.06 93.93l0 0c-16.12,49.05 -40.65,103.3 -73.88,163 -5.79,10.35 -11.73,19.96 -17.53,29.34 -1.62,2.5 -3.13,4.89 -4.69,7.33 -5.72,8.93 -11.55,17.71 -17.57,25.67 -0.07,0.09 -0.13,0.09 -0.23,0.3 -6.14,8.34 -12.4,16.16 -18.64,23.48 -1.26,1.32 -2.42,2.73 -3.67,4.05 -6.06,7.07 -12.22,13.82 -18.52,19.63 -27.71,26.49 -53.29,39.68 -77.11,39.68 -11.62,0 -20.74,-2.93 -26.83,-8.55 -6.59,-5.8 -10.94,-14.64 -13.82,-26.8 -5.73,-25.08 -3.29,-58.72 7.46,-100.85 10.9,-42.29 31.04,-96.67 60.38,-163.83 10.79,-24.21 21.02,-46.2 30.88,-65.57 0.31,-0.29 0.39,-0.59 0.51,-0.88 3.1,-6.11 6.22,-12.15 9.15,-17.78 0.47,-0.77 0.93,-1.3 1.33,-2.19 2.76,-5.12 5.49,-10.06 8.14,-14.8 0.52,-0.97 1.07,-1.75 1.66,-2.78 2.54,-4.38 5.11,-8.63 7.65,-12.74 0.45,-0.83 0.92,-1.61 1.53,-2.43 2.46,-4 4.95,-8.01 7.37,-11.51 0.47,-0.8 0.91,-1.34 1.3,-1.83 2.59,-4.01 5.14,-7.61 7.76,-10.93 22.85,-30.9 44.38,-46.38 64.34,-46.38 18.61,0 34.99,6.36 50.04,19.58 14.87,13.13 24.77,30.22 29.54,50.78 5.17,22.2 -0.39,58.04 -16.55,107.01zm2502.88 0l0 0c-16.27,49.05 -40.81,103.3 -74.01,163 -5.78,10.44 -11.91,20.25 -17.85,29.64 -1.33,2.29 -2.65,4.49 -4.02,6.69 -12.22,18.69 -24.43,35.43 -36.88,50.08 -1.15,1.12 -2.17,2.34 -3.22,3.62 -6.25,7.01 -12.63,13.76 -18.87,19.77 -27.76,26.49 -53.33,39.68 -77.23,39.68 -11.51,0 -20.65,-2.93 -26.7,-8.55 -6.62,-5.8 -10.98,-14.64 -13.8,-26.8 -5.86,-25.08 -3.29,-58.72 7.49,-100.85 10.84,-42.29 30.93,-96.67 60.35,-163.83 7.05,-16.07 14.04,-31.1 20.7,-44.96 1.71,-3.72 3.44,-7.04 5.09,-10.46 1.57,-3.11 3.19,-6.44 4.72,-9.42 2.93,-5.91 5.79,-11.37 8.71,-16.69 0.25,-0.59 0.51,-1.18 0.91,-1.82 6.15,-11.51 12.13,-22.07 18.01,-31.78 0.15,-0.19 0.3,-0.39 0.42,-0.53 2.56,-4.19 5.03,-8.1 7.49,-11.82 0.56,-0.72 1.08,-1.59 1.52,-2.39 2.04,-2.92 3.92,-5.46 5.79,-8.44 1.37,-1.71 2.55,-3.52 3.8,-5.13 23.01,-30.9 44.49,-46.38 64.39,-46.38 18.36,0 35.05,6.36 50.03,19.58 14.99,13.13 24.86,30.22 29.56,50.78 5.21,22.2 -0.49,58.04 -16.4,107.01l0 0z"/>
    <path class="fil6" d="M7803.46 9674.73l-14.06 11.51c-120.24,98.82 -217.51,259.78 -289.13,478.47l-5.86 6.35 -9.93 5.37c-215.8,4.6 -316.6,139.97 -320.77,145.74 4.03,-5.43 105.77,-129.47 307.02,-139.77l24.22 -1.22 -4.13 13.52 -2.96 9.66c-7.25,23.78 -14.34,48.48 -21.08,74.25 -89.49,338.71 -193.59,476.86 -359.41,476.86 -12.08,0 -24.5,-0.77 -37.26,-2.29 -28.6,-3.52 -82.74,-16.11 -124.08,-61.37l-7.55 -8.24 -2.21 0.13 23.7 25.94c41.35,45.25 95.48,57.85 124.07,61.36 12.77,1.52 25.19,2.3 37.28,2.3 165.8,0 269.91,-138.16 359.4,-476.87 6.74,-25.77 13.84,-50.48 21.09,-74.25l9.83 -31.83 2.56 -7.81c87.22,-244.24 161.43,-366.87 289.26,-507.81z"/>
    <path class="fil6" d="M6899.33 10522.75c13.5,-17.85 30.88,-26.55 53.07,-26.55 2.37,0 4.79,0.1 7.25,0.29 23.57,2.15 43.69,11.27 61.36,27.73 -4.02,-5.75 -7.46,-11.81 -12.83,-16.94 -17.94,-17.08 -38.42,-26.41 -62.47,-28.61 -2.47,-0.2 -4.88,-0.29 -7.25,-0.29 -22.18,0 -39.57,8.68 -53.06,26.55 -15.84,21.15 -21.34,48.97 -16.33,82.9 6.57,46.33 27.35,79.08 58.75,117.02 0.19,0.24 0.51,0.48 0.71,0.73 -23.73,-31.15 -39.96,-60.73 -45.53,-99.94 -5,-33.92 0.49,-61.76 16.33,-82.89z"/>
    <path class="fil6" d="M7925.77 10176.63c-49.06,10.98 -101.11,16.75 -149.7,17.63 -16.11,0.29 -32.17,-0.45 -48.18,-1.22l-2.69 -0.15c17.4,0.92 67.75,16.6 188.9,-7.28 30.22,-5.95 30.22,5.77 -0.24,42.46 -56.87,68.55 -96.86,128.11 -122.61,206.08 50.74,-98.26 66.8,-121.8 117.93,-186.52 7.17,-9.1 18.14,-21.1 29.87,-33.36 24.8,-27.59 25.58,-46.33 -13.28,-37.64z"/>
    <path class="fil6" d="M9014.5 10027.1c-2.59,11.96 -5.94,38.58 -6.57,97.21l0 7.12c0,3.52 -1.1,6.97 -3.14,9.85l-42.96 60.49c-5.32,7.28 -11.87,16.69 -19.72,28.02l-5.48 7.92c-9,12.44 -16.04,22.85 -21.69,32.22 5.36,-6.31 11.59,-15.09 18.89,-26.17l9.51 -13.78c28.42,-38.9 53.63,-69.95 74.97,-92.3 0.69,-0.75 1.61,-1.08 2.41,-1.66l0 -0.64c0.35,-32.41 -7.64,-92.51 -6.22,-108.28 -0.68,-2.15 1.56,2.43 0,0zm-606.21 34.91l0 0 -8.81 1.55c-4.92,0.98 -9.73,1.97 -14.57,3.17l-9.1 2.7c-5.38,1.7 -10.74,3.51 -19.68,6.93l-3.98 1.5c-8.13,3.63 -16.43,7.58 -24.79,12.07 -36.54,19.76 -74.35,49.74 -112.22,88.95 -37.03,39.49 -61.89,80.36 -73.96,121.61 -12.06,41.05 -12.54,86.6 -1.44,135.32 10.1,43.25 30.39,78.36 60.34,104.27 2,1.76 4.22,2.79 6.28,4.41 -26.19,-25.21 -44.53,-57.75 -53.82,-97.6 -11.11,-48.72 -10.62,-94.26 1.43,-135.33 12.06,-41.24 36.94,-82.1 73.96,-121.6 37.87,-39.2 75.09,-70.3 112.21,-88.95 29.64,-14.89 68.15,-39 132.25,-35.79l0.2 0c-12.74,-3.27 -26.56,-4.89 -41.63,-4.89 -7.26,0 -14.56,0.75 -22.67,1.68zm735.8 62.97l0 0c43.74,5.47 74.06,9.76 110.91,31.63 2.5,1.48 4.53,3.23 6.79,4.84 -5.56,-5.9 -11.81,-11.38 -19.57,-15.92 -22.51,-13.18 -59.69,-22.69 -110.66,-28.26 -56.7,-6.65 -73.14,-12.69 -81.52,-17.58 -0.51,-0.29 -1.1,-0.83 -1.64,-1.12 4.79,5.62 9.55,10.5 14.43,12.2 15.18,5.28 46.72,9.9 81.26,14.21zm-613.26 330.64l0 0c-0.11,-14.77 1.39,-30.12 4.41,-45.5 1.69,-8.58 -3.46,-17.07 -11.88,-19.56 -0.83,-0.25 -1.66,-0.25 -2.49,-0.34 1.04,2.83 2.2,5.7 1.59,8.84 -3.03,15.36 -4.52,30.69 -4.42,45.5 0.14,14.35 2.27,30.54 6.3,48.03 6.25,27.03 18.82,48.08 38.4,64.39 2.68,2.23 5.53,3.94 8.34,5.9 -16.62,-15.63 -28.29,-34.65 -33.96,-59.22 -4.02,-17.46 -6.15,-33.67 -6.29,-48.04zm62.77 -311.41l0 0c-21.1,108.38 -69.6,194.15 -89.8,234.67 0.66,-0.09 62.01,-80.49 102.6,-223.59l16.42 -71.95 107.44 -21.13 -120.22 10.05 -16.44 71.95zm2317.46 -82.2l0 0 -8.74 1.55c-4.96,0.98 -9.79,1.97 -14.72,3.23l-9.03 2.64c-5.35,1.7 -10.72,3.46 -15.99,5.51 -0.17,0.09 -7.86,3.03 -8.03,3.09 -8.02,3.64 -16.21,7.41 -24.41,11.9 -19.33,10.5 -37.71,25.87 -61.56,41.5 -19.71,12.88 -67.47,55.79 -172.33,205.43 -29.05,40.57 -51.5,72.3 -67.66,95.87 -39.77,53.35 -69.37,88.51 -90.49,107.6 -24.04,21.68 -46.16,32.22 -67.61,32.22 -6.08,0 -13.87,-1.32 -20.83,-4.54 1.79,2.79 41.18,23.98 93.47,-21.03 26.73,-23.01 91.68,-105.89 161.62,-209.53 64.58,-95.74 168.86,-211.43 242.13,-243.72 26.1,-11.47 70.3,-26.55 102.5,-21.96 13.01,1.85 17.04,-6.55 25.58,-6.55 -12.71,-3.21 -26.46,-4.89 -41.15,-4.89 -7.31,0 -14.68,0.71 -22.75,1.68zm1359.62 24.21l0 0c10.2,11.32 17.56,24.69 21.16,40.17 12.21,53.47 -3.19,109.02 -45.81,165.3 -4.91,6.4 -9.88,12.41 -17.53,20.76l-3.71 3.9c-3.32,3.47 -6.66,6.93 -9.93,9.96 -2.17,2.1 -4.45,4.11 -6.01,5.37 -2.74,2.59 -5.66,4.98 -8.64,7.38 -0.1,0.08 -9.91,7.66 -9.91,7.66l-6.81 4.64c-4.36,3.11 -8.81,5.9 -13.52,8.74 0,0 8.19,-3.43 8.37,-3.47 6.86,-2.79 13.58,-5.67 20.43,-8.89 3.33,-1.46 6.47,-3.07 10.06,-4.88 4.76,-2.35 27.17,-11.33 32.6,-17.23 59.07,-63.94 75.4,-134.7 63.21,-188.15 -3.91,-16.81 -11.77,-31.34 -23.41,-43.2 -3.35,-3.56 -7.01,-5.42 -10.55,-8.06zm81.09 369.02l0 0 -16.72 16.2c-14.62,14.27 -29.88,29.11 -44.36,41.55 -9.93,8.74 -20.3,16.95 -31.17,24.02 -28.77,18.26 -56.25,30.31 -87.43,37.6 -4.4,0.97 -8.74,1.95 -13.81,2.68l-8.06 0.98c-7.6,0.72 -15.17,1.3 -22.89,1.3 -19.73,0 -11.53,1.29 3.36,1.29 7.13,0 14.24,-0.49 25.1,-1.68 5.46,-0.49 10.85,-1.2 20.89,-3.31 6.37,-1.31 12.86,-2.88 22.93,-6.05 6.85,-1.86 13.51,-4.58 20.08,-7.32l5.66 -2.68c5.2,-2.3 10.38,-4.89 15.65,-7.68l5.57 -2.91c6.81,-3.96 13.59,-8.12 20.35,-12.76 28.31,-19.47 63.65,-53.11 105.4,-100.27 -6.42,5.47 -13.25,11.91 -20.55,19.04zm-2407.4 -394.91l0 0c-33.24,-0.18 -56.65,16.72 -87.36,49.58 -33.24,35.58 -141.16,210.79 -136.12,212.49 1.79,0.59 -1.81,0 0,0 0.16,0 45.45,-75.56 64.87,-105.65 61.58,-95.3 106.42,-139.03 139.26,-139.75 0,0 40.01,-21.54 84.33,12.98 -0.17,-0.19 -0.32,-0.39 -0.49,-0.59 -19.57,-19.53 -40.66,-28.89 -64.49,-29.06zm132.82 255.83l0 0c-2.91,6.01 -1.15,-0.1 0,0 26.86,-45.11 39.85,-72.2 63.26,-110.48 29.31,-48.19 57.31,-84.41 84.36,-108.86 -8.2,6.92 -16.42,14.83 -24.67,23.72 -39.33,41.98 -80.7,107.8 -122.95,195.62zm-537.6 -167.01l0 0c-7.85,11.96 -13.91,21.24 -18.52,27.92 -4.53,6.4 -123.57,175.56 -128.57,182.83 7.45,-9.76 -10.1,17.19 -2.94,8.49 173.19,-243.41 201.59,-288.16 240.72,-285.69 10.62,0.68 20.45,3.57 29.83,10.05 -13.12,-13.99 -27.05,-21.13 -42.62,-21.13 -7.74,0 -30.81,7.56 -77.9,77.53zm1891.82 186.13l0 0c0.88,-7.7 -3.58,-15.02 -10.86,-17.8 -1.17,-0.44 -2.37,-0.44 -3.56,-0.64 0.85,2.4 1.93,4.73 1.63,7.38 -3.29,29.05 -1.36,58.52 5.91,90.25 11.77,51.12 34.93,92.07 68.91,121.87 2.68,2.38 5.56,4.24 8.32,6.42 -31.36,-29.37 -53.24,-68.52 -64.44,-117.2 -7.28,-31.73 -9.2,-61.21 -5.91,-90.28zm315.55 -269.47l0 0c-13.22,-3.65 -27.97,-5.48 -44.43,-5.48 -31.61,0 -66.66,9.73 -104.15,28.77 -37.4,19.09 -70.52,47.6 -103.28,80.06 -38.96,38.62 -123.05,165.83 -107.28,143.38 3.25,-4.64 -1.05,-0.68 0,0 21.31,-29.39 98.78,-128.21 140.97,-163.34 86.67,-72.27 149.67,-75.92 179.43,-77.23 9.45,-4.01 19.13,-6.75 29.24,-6.75 3.23,0 6.39,0.19 9.5,0.59zm-163.67 512.88l0 0c0.9,0.1 1.75,0.44 2.66,0.56 -1.71,-0.83 -3.22,-2.06 -4.83,-3.03 0.75,0.78 1.37,1.71 2.17,2.47zm-549.75 -123.01l0 0c-0.17,-14.01 1.35,-29.33 4.54,-45.56 1.68,-8.58 -3.46,-17.07 -11.86,-19.56 -0.83,-0.25 -1.66,-0.25 -2.51,-0.34 1.04,2.83 2.19,5.7 1.58,8.84 -3.19,16.19 -4.7,31.52 -4.53,45.53 0.1,14.17 2.22,30.32 6.29,48 6.25,26.99 18.78,48.03 38.2,64.34 2.68,2.2 5.52,3.91 8.3,5.8 -16.45,-15.56 -28.05,-34.6 -33.71,-59.07 -4.08,-17.66 -6.21,-33.83 -6.3,-47.98zm755.83 -367.61l0 0c1.15,2.99 1.47,6.29 0.79,9.62 -1.47,6.94 -7.08,12.22 -14.06,13.28 -18.6,2.88 -31.93,9.87 -40.67,21.34 -8.54,11.27 -11.05,23.67 -7.73,37.88 3.25,14.06 10.3,25.29 21.35,34.26 1.88,1.47 3.94,2.06 5.84,3.33 -6.72,-7.62 -11.99,-16.06 -14.4,-26.5 -3.32,-14.21 -0.81,-26.62 7.74,-37.9 8.73,-11.47 22.05,-18.46 40.66,-21.32 6.98,-1.09 12.59,-6.36 14.06,-13.28 0.32,-1.53 -0.27,-2.88 -0.34,-4.35 -4.23,-5.67 -7.96,-11.83 -13.24,-16.36zm143.58 260.29l0 0c0.66,-6.19 -2.09,-12.25 -7.2,-15.8 -1.99,-1.37 -4.36,-1.66 -6.69,-2.1 0.68,2.2 1.35,4.45 1.1,6.84 -2.74,24.94 -1.15,50.33 4.74,75.53 11.28,49.48 36.18,90.46 73.89,121.68 1.53,1.28 3.27,2.12 4.83,3.33 -33.01,-30.22 -55.53,-68.24 -65.94,-113.96 -5.87,-25.18 -7.45,-50.56 -4.73,-75.52zm280.3 -282.95l0 0c4.58,-1 34.22,-5.08 6.3,-5.08 -7.21,0 -14.43,0.75 -21.74,1.62l-16.64 2.65c-2.34,0.44 -13.16,3.26 -13.4,3.31 -7.51,2.05 -15.11,4.49 -27.09,9.24 -8.28,3.25 -16.77,6.97 -25,10.98 -36.98,18.89 -72.52,45.69 -105.62,79.81 -21.74,22.36 -39.96,45.51 -55.07,70.06 -12.18,16.35 -25.35,34.76 -39.25,54.86l-17.99 26.47c1.78,-0.6 1.03,-1.36 1.78,-0.6 0,0 72.85,-103 123.69,-149.23 68.73,-62.48 117.46,-92.35 190.03,-104.09zm-2823.58 298.35l0 0c-69.13,96.55 -110.98,147.67 -137.89,174.57 34.16,-31.01 79.07,-83.53 137.78,-169.94 0,0 27.59,-41.49 41.9,-62.87 -8.32,11.66 -17.01,23.96 -26.07,36.95l-15.72 21.29zm547.75 -268.32l0 0c0.35,0.49 9.55,17.38 12.32,29.38 4.62,20.18 2.79,50.83 -5.63,93.79 -8.3,40.48 -22.93,94.57 -43.47,160.82l-61.67 198.29c0,0 48.41,-120.08 68.25,-180.91 21.53,-65.96 41.37,-126.64 49.68,-167.12 8.42,-42.96 9.88,-73.51 5.63,-93.77 -3.76,-17.96 -20.58,-38.28 -25.11,-40.48zm-349.23 87.45l0 0c-3.64,-4.5 -7.81,-7.68 -12.2,-9.88 4.61,6.01 8.18,12.89 10.29,21.2 2.8,12.2 1.25,29.04 -4.68,51.44 -5.8,21.93 -15.74,51.03 -28.75,84.13l-96.23 247.85c0,0 68.87,-152.18 94.42,-212.06 13.96,-32.72 37.54,-86.91 43.35,-108.82 5.94,-22.42 7.47,-39.26 4.69,-51.46 -2.25,-8.78 -5.86,-16.17 -10.89,-22.4zm-398.02 -22.76l0 0c9.16,-9.63 2.54,-22.45 2.54,-22.45 0,0 0.08,14.3 -5.71,18.59 -49.01,36.67 -85.87,85.81 -109.52,146.22 -23.88,60.34 -30.29,115.89 -19.09,165.1 8.1,34.91 23.24,62.64 44.94,82.47 2.88,2.62 5.92,4.62 8.93,6.87 -19.53,-19.48 -33.49,-45.6 -41.08,-78.26 -11.2,-49.21 -4.78,-104.76 19.09,-165.1 23.65,-60.39 60.88,-112.37 99.9,-153.44zm1906.16 -15.87l0 0c-1.64,7.19 -7.75,12.5 -15.12,13.13 -0.48,0.07 -0.97,0.07 -1.46,0.07 -2.52,0 -4.95,-0.56 -7.15,-1.58 3.47,25.05 -2.49,60.83 -18.17,109.06 -11.73,35.4 -27.77,73.52 -47.88,113.94 0.68,-0.09 0,0 0,0 25.46,-32.08 46.95,-78.44 58.26,-112.52 15.67,-48.24 24.04,-74.35 20.57,-99.4 2.21,1.04 4.64,1.56 7.16,1.56 0.49,0 0.98,0 1.46,-0.04 7.38,-0.63 13.48,-5.96 15.11,-13.14l16.48 -72 107.36 -21.13 -120.15 10.05 -16.47 72zm-732.22 -38.56l0 0c-2.98,-12.84 -15.68,-32.36 -18.35,-33.68 16.21,3.42 28.56,13.47 43.08,25.23 -1.38,-1.4 -2.54,-3.13 -3.98,-4.5 -17.11,-16.19 -35.1,-26.21 -54.55,-30.31 2.66,1.33 5.15,2.94 7.47,4.85 6.27,5.85 10.56,14.48 13.55,27.32 2.19,10.07 -0.96,25.74 -23.56,73.19 -10.54,21.28 -18.92,39.1 -25.29,54.18l-9.03 18.41c-48.55,104.91 -67.95,180.78 -57.71,225.39 7.7,33.26 23.22,60.83 46.15,82.06 3.19,3 6.48,5.28 9.76,7.82 -21.14,-20.79 -35.78,-47.16 -43.11,-78.8 -10.26,-44.62 9.15,-120.48 57.7,-225.39l9.03 -18.41c6.37,-15.08 14.75,-32.9 25.29,-54.18 22.6,-47.45 25.75,-63.13 23.55,-73.18zm284.74 244.76l0 0c0.9,-7.89 -3.81,-15.36 -11.33,-17.95 -1.04,-0.34 -2.09,-0.4 -3.14,-0.55 0.86,2.39 1.99,4.74 1.69,7.44 -3.45,30.2 -1.26,62.62 6.51,96.46 9.99,43.1 30.22,78.21 60.19,104.18 2.03,1.76 4.22,2.78 6.28,4.4 -26.2,-25.26 -44.47,-57.82 -53.68,-97.5 -7.77,-33.82 -9.96,-66.24 -6.52,-96.48z"/>
    <path class="fil6" d="M7457.67 10177.71c0,0 35.73,3.42 53.44,-45.06l9.86 4.05 -18.75 57.02 -7.81 -19.24 -7.81 2.84 -28.93 0.39z"/>
    <path class="fil7" d="M9698.95 10154.13c4.19,18.17 6.48,37.63 6.48,57.41 0,20.15 -1.73,44.12 -5.71,72.34 -0.52,4.6 8.56,14.6 13.82,11.33 0.33,-6.03 4.06,-35.6 4.48,-42.86 0.74,-10.49 1.23,-20.51 1.23,-29.49 0,-19.76 -2.3,-39.24 -6.48,-57.41 -8.03,-34.95 -20.6,-62.14 -37.44,-81.53 -6.25,-7.16 -12.91,-12.54 -19.74,-17.09 1.98,1.96 4.02,3.57 5.94,5.77 16.83,19.38 29.4,46.57 37.42,81.53zm355 3.6l0 0c2.49,10.75 3.44,25.68 2.95,45.45 -0.46,19.29 -3.45,51.08 -8.86,94.28 -0.26,4.46 8.11,11.97 13.82,11.32 1.1,-5.81 4.95,-42.7 5.59,-49.3 1.85,-18.7 3,-34.03 3.26,-44.97 0.49,-19.76 -0.46,-34.7 -2.95,-45.45 -8.98,-38.56 -24.68,-68.98 -46.89,-91.69 -6.07,-6.04 -12.4,-11.17 -18.92,-15.65 1.69,1.56 3.47,2.69 5.11,4.33 22.21,22.7 37.9,53.12 46.89,91.68zm907.34 -86.84l0 0c-19.89,0 -41.37,15.47 -64.39,46.38 -1.25,1.61 -2.42,3.4 -3.78,5.13 -1.88,2.98 -3.76,5.51 -5.81,8.44 -0.45,0.78 -0.96,1.66 -1.51,2.39 -2.47,3.7 -4.94,7.62 -7.5,11.81 -0.13,0.15 -0.27,0.35 -0.42,0.54 -5.88,9.71 -11.86,20.25 -18.01,31.79 -0.38,0.63 -0.66,1.21 -0.9,1.8 -2.93,5.32 -5.79,10.79 -8.72,16.7 -1.54,2.96 -3.14,6.3 -4.71,9.42 -1.66,3.42 -3.38,6.74 -5.11,10.44 -6.65,13.87 -13.64,28.9 -20.69,44.98 -29.41,67.16 -49.5,121.54 -60.34,163.81 -10.78,42.14 -13.35,75.79 -7.49,100.87 2.8,12.15 7.18,21 13.8,26.8 2.43,2.3 5.72,3.81 9.14,5.18 -3.89,-5.41 -7.1,-11.91 -9.13,-20.66 -5.86,-25.08 -3.29,-58.72 7.49,-100.85 10.84,-42.29 30.93,-96.67 60.35,-163.83 7.05,-16.07 14.04,-31.1 20.7,-44.96 1.71,-3.72 3.44,-7.04 5.09,-10.46 1.57,-3.11 3.19,-6.44 4.72,-9.42 2.93,-5.91 5.79,-11.37 8.71,-16.69 0.25,-0.59 0.51,-1.18 0.91,-1.82 6.15,-11.51 12.13,-22.07 18.01,-31.78 0.15,-0.19 0.3,-0.39 0.42,-0.53 2.56,-4.19 5.03,-8.1 7.49,-11.82 0.56,-0.72 1.08,-1.59 1.52,-2.39 2.04,-2.92 3.92,-5.46 5.79,-8.44 1.37,-1.71 2.55,-3.52 3.8,-5.13 23.01,-30.9 44.49,-46.38 64.39,-46.38 14.81,0 28.24,5.33 40.86,13.86 -1.71,-1.75 -2.77,-4 -4.64,-5.6 -14.98,-13.23 -31.69,-19.58 -50.04,-19.58zm-610.67 477.18l0 0c-1.94,-2.32 -3.27,-7.64 -3.78,-9.74 -2.66,-10.92 6.16,-36.46 25.87,-76.4 7.69,-14.85 13.43,-26.9 17.84,-36.31 29.93,-62.07 48.75,-111.76 56.92,-148.17 8.05,-36.33 8.42,-69.77 1.42,-99.99 -9.16,-40.12 -26.75,-72.34 -52.33,-97.06 -4.32,-4.11 -8.84,-7.31 -13.31,-10.73 25.29,24.61 42.74,56.63 51.82,96.45 7.01,30.24 6.64,63.67 -1.41,100 -8.18,36.42 -27,86.1 -56.92,148.15 -4.42,9.42 -10.16,21.49 -17.85,36.34 -19.69,39.92 -28.48,65.46 -25.87,76.39 1.59,6.6 3.3,10.32 5.95,13.8 2.16,2.85 8.01,6.66 11.65,7.27zm-1154.89 0.31l0 0c-4.31,-1.88 -8.2,-6.16 -8.61,-10.45 -3.15,-15.96 7.11,-50.19 30.88,-103.09 3.95,-8.84 6.89,-15.19 8.94,-19.98 4.19,-9.12 10.61,-22.59 18.35,-40.47 41.57,-92.75 59.02,-152.55 52.82,-179.64 -5.76,-24.85 -19.4,-44.4 -40.18,-58.78 12.99,12.89 22,28.6 26.36,47.44 6.2,27.11 -11.25,86.91 -52.81,179.65 -7.75,17.87 -14.16,31.36 -18.36,40.48 -2.05,4.79 -4.98,11.13 -8.93,19.97 -24.1,53.59 -34.42,88.21 -30.88,103.89 0.87,3.32 5.59,23.6 22.42,20.98zm-173.6 -518.25l0 0c0.42,4.82 1.15,9.35 2.18,13.46 7.44,29.86 28.31,37.56 29.16,37.96 -7.93,-5.43 -13.63,-17.99 -15.35,-26.62 -0.82,-4.17 -1.75,-8.64 -2.16,-13.48 -0.64,-4.77 -0.98,-7.43 -1.11,-7.91 -2.31,-10.05 -5.55,-17.09 -9.63,-21.77 -2.73,-2.83 -10.22,-7.1 -15.28,-6.69 5.75,3.26 9.55,10.36 11.11,17.14 0.11,0.48 0.46,3.12 1.08,7.91zm2548.79 517.04l0 0c2.05,1.61 4.78,2.33 7.1,3.6 -5.96,-7.07 -10.84,-15.52 -13.38,-26.7 -4.57,-19.17 -2.42,-55.11 5.9,-107.5 8.5,-52.91 22.17,-106.7 41.14,-161.58 19.97,-58.35 39.93,-101.9 60.51,-130.31 20.21,-28.49 41.93,-42.47 65.27,-42.47 5.27,0 11.03,0.87 16.45,2.53 3.81,1.33 9.68,3.77 13.83,6.01 -5.59,-5.43 -12.69,-11.78 -26.37,-16.93 -5.99,-2.25 -11.87,-2.93 -17.72,-2.93 -23.34,0 -45.07,13.96 -65.28,42.47 -20.57,28.41 -40.54,71.95 -60.51,130.3 -18.97,54.87 -32.64,108.66 -41.13,161.59 -8.32,52.39 -10.46,88.31 -5.9,107.5 3.49,15.33 10.22,26.8 20.09,34.42zm-2912.7 -5.24l0 0c-2.31,-3.43 -5.93,-10.01 -6.96,-14.53 -0.97,-3.96 0.52,-16.36 4.13,-36.97 3.61,-20.78 8.91,-45.69 15.64,-75.57l80.72 -371.5 -16.56 1.35 -77.97 358.83c-6.73,29.88 -12.03,54.77 -15.64,75.57 -3.62,20.61 -4.41,32.89 -4.14,36.96 0.78,11.07 12.41,23.41 20.78,25.86zm3482.26 -376.28l0 0c3.27,-6.06 6.54,-11.56 9.86,-16.99 2,-3.42 4.13,-6.5 6.2,-9.53 1.41,-2.35 3.05,-4.63 4.66,-7.02 1.64,-2.4 3.32,-4.83 5.08,-7.13 2.1,-2.92 4.23,-5.61 6.35,-8.06 1.16,-1.56 2.22,-2.98 3.49,-4.49 1.69,-2.1 3.49,-3.91 5.29,-5.7 2.37,-2.54 4.74,-4.94 7.06,-7.14 1.73,-1.61 3.64,-3.03 5.3,-4.53 2.24,-1.82 4.56,-3.51 6.74,-5.03 1.73,-1.08 3.39,-2.1 4.85,-3.08 2.69,-1.32 5.05,-2.35 7.68,-3.32 1.33,-0.49 2.53,-1.12 3.89,-1.61 3.74,-0.82 7.51,-1.62 11.18,-1.62 5.08,0 10.16,1.66 15.18,4.45 -0.32,-0.34 -0.49,-0.78 -0.83,-1.13 -9.27,-9.8 -18.69,-14.64 -28.16,-14.64 -3.66,0 -7.45,0.78 -11.19,1.61 -1.36,0.49 -2.55,1.13 -3.87,1.62 -2.64,0.97 -5.01,2 -7.69,3.32 -1.47,0.98 -3.12,2 -4.86,3.06 -2.17,1.54 -4.49,3.23 -6.73,5.03 -1.67,1.52 -3.58,2.94 -5.31,4.55 -2.31,2.2 -4.68,4.59 -7.05,7.14 -1.81,1.79 -3.61,3.6 -5.3,5.7 -1.27,1.52 -2.32,2.93 -3.49,4.49 -2.12,2.43 -4.24,5.12 -6.35,8.05 -1.75,2.3 -3.43,4.74 -5.07,7.14 -1.61,2.39 -3.24,4.67 -4.66,7.02 -2.08,3.03 -4.2,6.11 -6.21,9.53 -3.31,5.41 -6.58,10.93 -9.85,16.97 -29.03,53.11 -49.69,117.41 -60.99,193.03 -3.26,16.42 2.67,28.41 11.43,28.47 0.32,-4.25 1.71,-12.52 2.52,-14.99 11.25,-76.35 31.61,-141.67 60.85,-195.17zm-991.31 367.06l0 0c3.41,3.44 7.05,4.98 10.74,5.71 -2.29,-3.4 -4.95,-6.5 -5.98,-11.02 -0.93,-3.96 0.61,-16.36 4.17,-36.97 3.48,-20.78 8.86,-45.69 15.77,-75.57l80.55 -371.5 -10.9 0.9 -83.46 359.28c-6.92,29.88 -12.31,54.77 -15.78,75.57 -3.56,20.61 -5.09,33 -4.17,36.96 1.55,6.83 4.42,12.35 9.06,16.64zm624.1 -308.97l0 0c-15.14,0 -28.66,-5.13 -41.15,-13.08 2.26,2.3 3.81,5.07 6.41,7.17 14.28,11.24 30.49,17.23 48.56,17.23 20.6,0 36.22,-8.68 46.69,-25.18 10.6,-17.04 13.13,-37.84 7.3,-62.54 -7.74,-33.77 -23.26,-59.61 -46.88,-77.18 -1.31,-0.98 -2.84,-1.67 -4.19,-2.59 18.07,17.03 30.66,39.68 37.25,68.45 5.84,24.7 3.3,45.5 -7.3,62.52 -10.46,16.52 -26.09,25.2 -46.69,25.2zm301.3 319.91l0 0c0.66,0.39 1.71,0.49 2.42,0.84 -2.97,-4.31 -5.15,-9.39 -6.49,-15.38 -2.31,-9.87 -3.02,-23.54 -2.64,-41.9 0.75,-17.87 2.69,-45.75 6.21,-82.79 10.39,-2.1 20.52,-4.3 30.38,-6.63 4.67,-1.08 9.08,-2.32 13.65,-3.52 5.37,-1.47 10.66,-2.88 15.78,-4.4 4.7,-1.22 9.11,-2.64 13.61,-4 5.17,-1.62 10.32,-3.41 15.45,-5.23 3.75,-1.21 7.61,-2.63 11.38,-3.95 1.21,-0.48 2.48,-0.98 3.61,-1.46 2.37,-0.84 4.42,-1.91 6.73,-2.84 7.18,-2.88 14.21,-5.9 21.04,-9.12 3.62,-1.63 7.03,-3.33 10.55,-5.13 6.25,-3.03 12.13,-6.4 18.16,-9.71 3.22,-1.91 6.52,-3.91 9.76,-5.77 5.86,-3.6 11.5,-7.61 17.04,-11.42 2.64,-1.9 5.37,-3.71 7.86,-5.72 7.81,-5.79 15.43,-11.86 22.26,-18.36 51.26,-46.89 70.15,-97.87 57.56,-152.7 -7.81,-34.41 -23.41,-61.6 -46.51,-81.47 -2.82,-2.39 -5.93,-4.2 -8.87,-6.3 20.23,19.38 34.36,44.71 41.56,76.45 12.59,54.83 -6.3,105.79 -57.55,152.7 -6.84,6.51 -14.45,12.55 -22.27,18.36 -2.48,2 -5.22,3.82 -7.85,5.72 -5.55,3.81 -11.18,7.8 -17.04,11.42 -3.25,1.86 -6.55,3.86 -9.77,5.75 -6.02,3.32 -11.91,6.7 -18.17,9.71 -3.5,1.83 -6.93,3.52 -10.53,5.13 -6.84,3.23 -13.87,6.26 -21.04,9.14 -2.32,0.93 -4.37,1.99 -6.74,2.82 -1.12,0.5 -2.39,0.99 -3.61,1.48 -3.76,1.32 -7.62,2.74 -11.38,3.94 -5.12,1.81 -10.28,3.62 -15.45,5.23 -4.49,1.37 -8.91,2.79 -13.6,4.01 -5.13,1.51 -10.42,2.93 -15.79,4.4 -4.56,1.2 -8.98,2.43 -13.65,3.5 -9.85,2.35 -19.99,4.55 -30.39,6.63 -3.51,37.06 -5.43,64.93 -6.19,82.8 -0.39,18.37 0.32,32.03 2.64,41.9 2.68,12.11 8.78,20.64 17.88,25.87zm-1087.6 -140.49l0 0c-24.55,56.63 -52.51,100.42 -83.9,130.87 -2.37,2.31 -4.78,4.59 -7.18,6.79 -1.41,1.32 -2.97,2.43 -4.29,3.67 -1.22,0.87 -2.24,1.9 -3.44,2.76 -3.17,2.55 -6.37,5.04 -9.59,7.43 -1.24,0.83 -2.51,1.81 -3.72,2.45 -3.12,2.29 -6.41,4.39 -9.51,6.19 -1.32,0.74 -2.65,1.61 -4.08,2.39 -3.04,1.71 -6.11,3.23 -9.15,4.74 -1.57,0.78 -3.05,1.42 -4.61,2.3 -3,1.22 -5.96,2.15 -8.96,3.52 -1.67,0.54 -3.35,1.1 -4.91,1.59 -3.05,1.05 -6.1,1.81 -9.1,2.66 -1.68,0.47 -3.31,0.86 -4.98,1.16 -3.25,0.73 -6.52,1.12 -9.8,1.7 -1.53,0.1 -2.92,0.54 -4.48,0.64 -4.76,0.4 -9.64,0.68 -14.5,0.68 -38.13,0 -72.43,-12.3 -103.18,-35.92 1.41,1.3 2.53,2.82 4.01,4.09 33.14,28.92 70.83,43.16 112.99,43.16 4.85,0 9.74,-0.3 14.5,-0.67 1.55,-0.11 2.95,-0.56 4.48,-0.64 3.27,-0.6 6.55,-0.98 9.78,-1.7 1.7,-0.32 3.32,-0.69 4.99,-1.18 3,-0.83 6.05,-1.61 9.11,-2.64 1.56,-0.49 3.24,-1.07 4.9,-1.61 3,-1.37 5.96,-2.3 8.96,-3.52 1.57,-0.88 3.05,-1.51 4.61,-2.28 3.06,-1.53 6.1,-3.03 9.16,-4.76 1.41,-0.76 2.76,-1.64 4.07,-2.38 3.1,-1.81 6.4,-3.91 9.53,-6.2 1.19,-0.64 2.46,-1.62 3.7,-2.45 3.23,-2.37 6.41,-4.88 9.59,-7.41 1.2,-0.88 2.23,-1.9 3.45,-2.78 1.32,-1.22 2.87,-2.35 4.29,-3.67 2.4,-2.2 4.82,-4.48 7.18,-6.78 27,-26.22 51.38,-62.53 73.33,-108.13 -0.05,-1.22 19.15,-40.52 18.37,-41.46 -8.33,-10.25 -18.98,1.3 -21.62,7.39zm327.65 15.03l0 0c-75.7,112.43 -141.71,168.32 -197.11,168.32 -25.63,0 -48.43,-7.72 -68.83,-22.17 1.95,1.86 3.64,3.91 5.73,5.67 22.34,18.51 47.92,27.82 76.92,27.82 55.41,0 121.41,-55.89 197.1,-168.32 15.52,-23.18 26.87,-40.76 35.43,-53.5 6.31,-8.83 14.39,-20.32 23.32,-33 4.63,-7.84 12.96,-17.4 14.55,-20.7 -0.37,-11.5 -15.85,-7.13 -22.07,0.43 -13.22,16.08 -21.77,30.95 -29.62,41.93 -8.55,12.76 -19.9,30.32 -35.42,53.52zm-874.51 130.59l0 0c-29.25,24.06 -62.1,35.92 -98.48,35.92 -26.31,0 -50.33,-8.89 -72.54,-25.72 0.42,0.44 0.76,0.93 1.2,1.32 25.58,23.87 53.85,35.73 85.16,35.73 36.37,0 69.23,-11.86 98.46,-35.92 29.38,-24.08 76.97,-87.25 143.46,-189.23 2.1,-3.18 4.69,-6.99 7.28,-10.84 3.66,-6.74 14.52,-22.56 14.52,-22.56 0.7,-15.02 -10.7,-15.72 -13.81,-11.32 -8.67,14.01 -16.11,24.91 -21.8,33.4 -66.5,101.97 -114.09,165.15 -143.45,189.22zm1959.75 -146.17l0 0c-55.63,66.35 -101.65,112.2 -137.13,136.55 -7.06,4.88 -14.21,9.22 -21.39,13.42 -2.1,1.03 -4.32,2.3 -6.3,3.33 -5.61,2.93 -11.1,5.69 -16.64,8.15 -2.01,0.98 -4,1.99 -5.99,2.77 -7.24,3.03 -14.62,6.01 -22.18,8.07 -1.11,0.59 -2.14,0.78 -3.42,1.17 -6.64,1.99 -13.65,3.7 -20.51,5.12 -0.7,0.19 -1.39,0.49 -2.19,0.6 -0.8,0.23 -1.61,0.23 -2.39,0.33 -5.98,1.26 -12.01,2.09 -18.13,2.68 -1.33,0.2 -2.82,0.49 -4.26,0.69 -7.39,0.53 -14.91,1.02 -22.45,1.02 -51.16,0 -96.16,-15.47 -135.26,-45.06 2.25,2.01 4.06,4.26 6.4,6.21 40.71,33.33 88.34,50.17 142.67,50.17 7.55,0 15.06,-0.48 22.46,-1.02 1.44,-0.2 2.92,-0.49 4.25,-0.67 6.13,-0.6 12.15,-1.42 18.13,-2.69 0.78,-0.11 1.59,-0.11 2.4,-0.34 0.8,-0.09 1.49,-0.41 2.2,-0.59 6.85,-1.41 13.86,-3.12 20.5,-5.13 1.27,-0.39 2.32,-0.58 3.42,-1.17 7.55,-2.05 14.93,-5.03 22.19,-8.06 1.97,-0.79 3.97,-1.8 5.98,-2.77 5.53,-2.45 11.02,-5.23 16.64,-8.16 1.98,-1.03 4.2,-2.3 6.3,-3.31 7.17,-4.2 14.33,-8.55 21.37,-13.44 36.89,-25.33 84.88,-73.28 143.51,-143.96 -6.71,-4.25 -12.96,-5.04 -20.18,-3.91zm-2082.49 -326.54l0 0c-1.46,-3.27 -3.1,-5.91 -5,-7.66 -3.78,-3.14 -9.75,-4.64 -18.13,-4.64 -45.46,0 -96.5,46.36 -153.08,139.41 -56.7,92.66 -107.43,216.33 -151.86,371.28l-170 9.27 -3.83 12.3 187.66 -10.25c44.43,-154.95 95.14,-278.62 151.85,-371.27 56.57,-93.06 107.62,-139.42 153.07,-139.42 3.64,0 6.59,0.43 9.32,0.98zm1551.27 279.28l0 0c-103.47,165.81 -188.47,232.64 -271.34,231.16 -44.89,-0.81 -84.13,-14.05 -118.68,-41.1 1.24,1.13 2.25,2.54 3.55,3.67 36.87,32.71 79.66,48.75 128.95,48.75 78.1,0 168.45,-77.08 271.33,-231.14l6.2 -9.38c5.75,-9.14 13.39,-18.41 14.6,-21.86 -10.37,-4.37 -25.56,5.39 -34.61,19.9zm-3410.06 -284.46l0 0c-19.97,0 -41.5,15.47 -64.34,46.38 -2.62,3.32 -5.18,6.92 -7.77,10.93 -0.39,0.49 -0.83,1.03 -1.3,1.81 -2.41,3.52 -4.89,7.53 -7.36,11.52 -0.62,0.82 -1.08,1.61 -1.54,2.44 -2.55,4.1 -5.1,8.36 -7.64,12.74 -0.58,1.02 -1.15,1.81 -1.66,2.79 -2.66,4.73 -5.4,9.66 -8.15,14.79 -0.39,0.88 -0.86,1.41 -1.33,2.2 -2.92,5.61 -6.04,11.66 -9.14,17.77 -0.13,0.29 -0.21,0.58 -0.52,0.87 -9.86,19.38 -20.09,41.35 -30.87,65.58 -29.34,67.16 -49.48,121.54 -60.4,163.81 -10.74,42.14 -13.17,75.79 -7.44,100.87 2.88,12.15 7.23,21 13.81,26.8 2.47,2.3 5.76,3.76 9.19,5.18 -3.89,-5.41 -7.11,-11.91 -9.19,-20.66 -5.73,-25.08 -3.29,-58.72 7.46,-100.85 10.9,-42.29 31.04,-96.67 60.38,-163.83 10.79,-24.21 21.02,-46.2 30.88,-65.57 0.31,-0.29 0.39,-0.59 0.51,-0.88 3.1,-6.11 6.22,-12.15 9.15,-17.78 0.47,-0.77 0.93,-1.3 1.33,-2.19 2.76,-5.12 5.49,-10.06 8.14,-14.8 0.52,-0.97 1.07,-1.75 1.66,-2.78 2.54,-4.38 5.11,-8.63 7.65,-12.74 0.45,-0.83 0.92,-1.61 1.53,-2.43 2.46,-4 4.95,-8.01 7.37,-11.51 0.47,-0.8 0.91,-1.34 1.3,-1.83 2.59,-4.01 5.14,-7.61 7.76,-10.93 22.85,-30.9 44.38,-46.38 64.34,-46.38 14.96,0 28.25,5.33 40.81,13.81 -1.69,-1.7 -2.76,-3.95 -4.58,-5.55 -15.07,-13.23 -31.44,-19.58 -50.04,-19.58zm1453.96 27.72l0 0c-0.63,-1.22 -1.2,-2.68 -1.9,-3.76 -3.56,-4.98 -7.5,-7.6 -11.72,-7.6 -24.36,0 -61.93,42.17 -112.38,126.88 -50.77,84.4 -110.37,204.64 -178.5,360.33l-172.89 11.5 -3.91 10.07 190.61 -10.25c68.13,-155.69 127.74,-275.91 178.5,-360.33 50.35,-84.51 87.83,-126.64 112.19,-126.84zm-1507.05 437.03l0 0c-24.19,23.93 -60.74,45.22 -117.43,49.06 -38.1,2.59 -72.48,-12.3 -103.16,-35.88 1.42,1.26 2.54,2.78 3.97,4.05 33.05,28.92 70.77,43.16 112.99,43.16 4.82,0 9.71,-0.3 14.51,-0.67 1.42,-0.11 2.91,-0.56 4.42,-0.64 3.29,-0.6 6.53,-0.98 9.73,-1.7 1.81,-0.32 3.57,-0.8 5.13,-1.29 2.98,-0.82 6.16,-1.5 9,-2.53 1.79,-0.49 3.45,-1.27 5.14,-1.81 3,-1.17 5.88,-2.1 8.73,-3.22 1.71,-0.98 3.44,-1.61 5.06,-2.49 2.8,-1.42 5.68,-2.92 8.61,-4.49 1.59,-0.83 3.21,-1.95 4.81,-2.83 2.88,-1.71 5.69,-3.52 8.52,-5.52 1.65,-1.03 3.23,-2.1 4.68,-3.31 2.82,-2.1 5.63,-4.12 8.38,-6.25 1.56,-1.47 3.18,-2.69 4.64,-4.01 1.22,-1.08 2.46,-2 3.65,-3.13 2.43,-2.2 4.89,-4.48 7.31,-6.78 26.95,-26.22 51.4,-62.58 73.3,-108.23 -0.02,-1.17 15.01,-24.71 18.28,-41.36 -33.94,53.28 -65.88,105.84 -100.27,139.87zm740.5 -389.62l0 0c0,0 27.13,-3.09 30.83,-3.37 -0.89,-7.07 -11.54,-11.44 -26.38,-9.94 -22.69,2.3 -39.67,4.23 -51.44,5.35 -13.71,1.18 -24.65,1.75 -32.43,1.75l-5.79 0c-10.2,-1.15 -18.67,-1.75 -25.8,-1.75l-18.18 0c-20.37,21.34 -44.94,51.46 -73.53,90.62 -2.85,3.99 -5.98,8.53 -9.17,13.26 -8.3,12.66 -15.49,22.56 -21.51,29.41 -5.86,8.14 -11.69,16.64 -17.66,25.37 -20.22,29.34 -36.26,51.91 -47.88,67.95 -8.2,12.76 -19.75,30.32 -35.2,53.52 -75.71,112.43 -141.77,168.32 -197.1,168.32 -25.58,0 -48.41,-7.72 -68.64,-22.1 1.95,1.84 3.61,3.84 5.71,5.6 22.09,18.51 47.77,27.82 76.75,27.82 55.34,0 121.38,-55.89 197.1,-168.32 15.45,-23.18 26.99,-40.76 35.2,-53.5 11.61,-16.07 27.66,-38.63 47.87,-67.97 5.98,-8.73 11.82,-17.23 17.66,-25.38 6.04,-6.84 13.21,-16.74 21.52,-29.38 3.19,-4.75 6.31,-9.29 9.18,-13.28 28.57,-39.14 53.15,-69.26 73.5,-90.62l18.2 0c7.13,0 15.59,0.6 25.8,1.77l5.78 0c7.79,0 18.72,-0.58 32.44,-1.77 8.28,-0.77 19.52,-1.94 33.17,-3.36zm393.92 36.77l0 0c4.78,-4.45 8.2,-6.74 10.74,-6.89 2.99,0.52 4.97,0.04 9.55,4.43 -2.37,-13.16 -13.36,-17.87 -23.02,-15.9 -2.51,0.52 -6.14,2.44 -11.08,7.02 -25.12,30.72 -53.63,70.6 -85.65,119.28 -18.51,27.58 -32.62,48.75 -42.48,63.81l-8.15 12.04c-98.89,145.53 -174.31,218.12 -225.93,218.12 -27.95,0 -52.58,-8.53 -74.34,-24.59 0.81,0.78 1.45,1.75 2.28,2.47 24.36,22.32 52.95,33.45 85.87,33.45 51.62,0 127.06,-72.59 225.93,-218.11l8.16 -12.06c9.86,-15.05 23.96,-36.23 42.47,-63.81 32.03,-48.67 60.54,-88.55 85.65,-119.26z"/>
    <path class="fil7" d="M7149.14 10320.75c-0.54,-0.63 -1.58,-0.68 -2.44,-0.83 -1.41,7.32 1.27,15.04 7.66,19.66 3.47,2.54 7.5,3.81 11.43,3.81 6.02,0 12.1,-2.93 16.01,-8.19 0.97,-1.33 86.36,-115.37 266.14,-133.71 5.37,-0.81 23.67,-2.12 23.67,-2.12 -173.25,-15.04 -280.66,104.96 -291.2,115.42 -13.87,13.77 -24.22,14.06 -31.27,5.96zm629.46 -647.62l0 0c5.27,-9.06 -0.77,-19.29 -16.63,-22.66 -286.07,-21.49 -574.48,-82.61 -866.54,-202.95l-3.72 14.6c286.11,120.48 568.62,183.02 848.84,207.49l38.05 3.52zm-836.68 984.55l0 0c-1.37,5.71 5.95,18.99 16.65,22.66 0,0 5.28,-0.58 8.26,-0.96 22.88,-3.52 48.91,-15.15 66.47,-34.58 19.91,-22.07 27.63,-48.32 23.32,-78.8 -3.73,-25.18 -14.06,-46.23 -30.77,-64.44 7.02,12.66 11.85,26.42 14.12,41.8 4.31,30.46 -3.4,56.73 -23.33,78.8 -19.6,21.67 -50.3,33.77 -74.72,35.52zm1099.99 -536.6l0 0c-1.53,-0.6 -3.02,-0.89 -4.54,-1.17 -0.27,-0.1 -0.53,-0.1 -0.73,-0.1 -0.03,0 -0.03,0 -0.05,0 -0.15,1.16 -0.24,2.28 -0.68,3.52 -0.26,0.38 -0.59,0.86 -0.86,1.45 -0.82,1.56 -1.66,3.22 -2.92,4.69 -0.33,0.39 -0.44,0.78 -0.66,1.08 -136.82,154.65 -124.28,239.69 -124.28,239.69 0,0 -135.05,68.37 -136.43,72.76 -2.25,7.16 -4.4,14.46 -6.37,21.95l159.45 -72.05c0,0 -12.54,-85.05 124.27,-239.69 0.22,-0.32 0.34,-0.69 0.65,-1.1 1.28,-1.45 2.11,-3.11 2.94,-4.67 0.26,-0.59 0.58,-1.08 0.85,-1.47 0.57,-1.56 0.64,-2.93 0.88,-4.48 0.19,-1.27 0.52,-2.36 0.52,-3.52 0,-0.49 -0.26,-1.07 -0.33,-1.56 -0.5,-7.04 -4.8,-12.9 -11.71,-15.33zm4994.51 -764.27l0 0c-31.15,-18.68 -86.94,299.75 -121.39,411.54 -11.2,36.29 -36.17,26.06 -48.16,17.96 -189.04,-127.6 -859.71,-521.03 -1941.61,-521.03 -1024.62,0 -2010.03,424.14 -3021.54,392.7 -75.1,114.44 -130.73,288.04 -191.68,495.41 -2.63,9.18 8.3,21.09 16.65,22.66 58.44,-197.57 119.29,-385.1 191.68,-495.41 1011.51,31.44 1996.91,-392.7 3021.54,-392.7 1236.46,0 1935.8,513.87 1992.93,557.51l120.82 -476.17c-3.69,-2.51 -19.24,-12.47 -19.24,-12.47zm-5164.47 853.46l0 0c12.45,-1.69 36.26,-5.59 45.86,-8.06 -86.02,5.28 -160.94,4.33 -205.92,-6.75 -10.17,-2.1 -13.3,4.35 -16,13 -8.83,28.38 -16.73,57.49 -25.43,87.19 -76.93,262.94 -208.36,407.54 -344.26,473.35 -62.21,29.97 -122.48,34.36 -176.5,32.61 -112.48,-3.51 -214.78,-64.15 -251.62,-108.57 -2.99,-3.62 -5.73,-7.43 -8.64,-11.1 7.91,11.63 16.31,22.91 25.29,33.76 36.84,44.41 139.14,105.04 251.62,108.56 54.01,1.76 114.28,-2.63 176.5,-32.6 135.89,-65.81 267.34,-210.42 344.24,-473.35 10.38,-35.35 20.32,-69.62 30.18,-103.4 50.92,2.78 102.42,2.45 154.68,-4.64z"/>
    <path class="fil6" d="M11426.7 9012.99l-31.26 -0.15c-523.05,0 -1114.54,127.43 -1686.55,250.63 -586.14,126.25 -1192.27,256.84 -1741.97,256.84 -0.07,0 -0.07,0 -0.14,0 -401.11,0 -734.72,-68.88 -1018.87,-210.55 0,0 158.29,105.98 484.62,177.17 167.18,36.46 349.62,51.2 548.18,51.2 0.08,0 0.08,0 0.15,0 549.7,0 1155.84,-130.58 1741.97,-256.83 572.02,-123.23 1163.51,-250.63 1686.54,-250.63l31.27 0.14c966.03,9.52 1472.08,270.11 1595.57,345.98 -90.02,-58.35 -595.4,-353.8 -1609.51,-363.8z"/>
    <polygon class="fil8" points="13025.47,9351.93 13054.48,9369.78 12938.43,9836.25 12872.58,9787.14 13012.08,9343 "/>
   </g>
   <g>
    <path class="fil9 str0" d="M13404.65 8829.15l0 -0.62c13,-4.48 23.45,-15.45 23.45,-31.82 0,-9.81 -3.68,-18.45 -9.86,-24.04 -7.65,-6.77 -18.99,-10.14 -36.26,-10.14 -11.01,0 -22.92,1.1 -31.03,2.62l0 123.68 16.13 0 0 -54.29 15.23 0c14.78,0.5 21.61,7.06 25.34,24.38 3.34,15.62 6.12,26.18 8.15,29.91l16.82 0c-2.62,-4.78 -5.67,-16.85 -9.76,-34.39 -2.93,-13.05 -8.78,-21.96 -18.21,-25.29zm-20.99 -6.89l0 0 -16.58 0 0 -45.79c2.75,-0.76 8.15,-1.32 16,-1.32 17.11,0 28.82,7.12 28.82,23.28 0,14.31 -11.01,23.83 -28.24,23.83zm2.22 -105.17l0 0c-59.95,0 -108.65,48.76 -108.65,108.61 0,59.88 48.7,108.64 108.65,108.64 59.94,0 108.61,-48.76 108.61,-108.64 0,-59.85 -48.67,-108.61 -108.61,-108.61zm0 201.77l0 0c-51.3,0 -93.2,-41.85 -93.2,-93.16 0,-51.36 41.9,-93.15 93.2,-93.15 51.42,0 93.16,41.79 93.16,93.15 0,51.31 -41.74,93.16 -93.16,93.16z"/>
    <g>
     <path class="fil10" d="M7754 11206.14c-18.81,-11.26 -38.37,-16.91 -58.63,-16.91 -19.61,0 -37.04,4.5 -52.33,13.44 -15.29,8.95 -27.07,21.35 -35.43,37.28 -8.31,15.87 -12.52,33.76 -12.52,53.72 0,23.2 6.4,41.2 19.21,54.01 12.81,12.75 30.12,19.16 51.99,19.16 11.14,0 21.64,-1.21 31.45,-3.69 9.81,-2.49 19.96,-6.64 30.58,-12.35l-8.94 40.56c-18.18,7.91 -39.18,11.83 -63.07,11.83 -21.06,0 -39.58,-4.38 -55.51,-13.1 -15.98,-8.71 -28.22,-21.12 -36.7,-37.16 -8.54,-16.1 -12.75,-34.56 -12.75,-55.57 0,-28.15 6.06,-53.37 18.18,-75.59 12.05,-22.27 29.19,-39.41 51.29,-51.35 22.1,-11.94 47.67,-17.89 76.75,-17.89 22.73,0 44.48,4.39 65.26,13.16l-8.83 40.45z"/>
     <path class="fil10" d="M7928.43 11292.4c0,20.95 -4.21,40.05 -12.57,57.3 -8.43,17.31 -20.03,30.53 -34.85,39.7 -14.84,9.17 -31.91,13.79 -51.3,13.79 -21.76,0 -38.84,-6.23 -51.3,-18.75 -12.47,-12.53 -18.69,-29.78 -18.69,-51.88 0,-20.94 4.2,-39.93 12.57,-57.07 8.43,-17.13 20.02,-30.35 34.74,-39.69 14.77,-9.35 31.91,-14.03 51.41,-14.03 21.41,0 38.43,6.29 51.07,18.81 12.64,12.58 18.92,29.84 18.92,51.82zm-41.25 0.98c0,-12.06 -2.77,-21.64 -8.37,-28.73 -5.59,-7.1 -13.33,-10.68 -23.25,-10.68 -10.21,0 -19.56,3.52 -27.87,10.56 -8.37,7.04 -14.89,16.62 -19.68,28.68 -4.79,12.06 -7.21,24.98 -7.21,38.72 0,12.17 2.83,21.75 8.54,28.68 5.71,6.92 13.44,10.38 23.25,10.38 10.45,0 19.91,-3.52 28.34,-10.56 8.36,-7.04 14.82,-16.62 19.44,-28.67 4.56,-12.07 6.81,-24.88 6.81,-38.38z"/>
     <path class="fil10" d="M8231.37 11268.4c0,5.65 -1.72,16.73 -5.25,33.29l-20.77 97.35 -40.57 0 21.12 -100.12c2.25,-12.06 3.35,-19.44 3.35,-22.1 0,-15.23 -6.69,-22.85 -20.08,-22.85 -10.39,0 -21.35,6.35 -32.95,19.04 -11.65,12.64 -18.98,26.26 -21.98,40.8l-17.95 85.23 -40.91 0 21.3 -100.12c2.24,-12.06 3.4,-19.44 3.4,-22.1 0,-15.23 -6.7,-22.85 -20.14,-22.85 -6.87,0 -14.25,3 -22.16,8.94 -7.84,6.01 -14.83,13.74 -20.94,23.26 -6.06,9.52 -10.04,18.81 -11.84,27.81l-18.23 85.06 -41.08 0 26.19 -121.06c4.05,-19.39 7.04,-36.7 8.95,-52.05l39.93 0c-0.92,9.58 -2.65,21.98 -5.25,37.22l0.63 0c8.95,-13.05 18.93,-23.2 29.95,-30.47 11.02,-7.27 22.04,-10.91 32.95,-10.91 26.49,0 40.68,14.08 42.64,42.24 9.47,-13.73 19.91,-24.23 31.33,-31.45 11.43,-7.21 23.14,-10.79 35.09,-10.79 14.42,0 25.21,4.04 32.43,12.06 7.21,8.08 10.84,19.62 10.84,34.57z"/>
     <path class="fil10" d="M8431.02 11286.11c0,21.06 -4.61,40.86 -13.85,59.32 -9.23,18.46 -21.86,32.72 -37.96,42.7 -16.04,10.04 -34.05,15.06 -54.01,15.06 -11.49,0 -22.39,-1.61 -32.77,-4.9l-17.09 80.72 -41.08 0 41.95 -197.8c1.32,-5.89 2.77,-14.72 4.27,-26.55 1.55,-11.83 2.48,-21.4 2.83,-28.73l40.39 0c0,2.94 -0.47,8.13 -1.39,15.64 -0.86,7.5 -1.67,13.32 -2.36,17.36l0.69 0c15.46,-24.75 35.08,-37.16 58.86,-37.16 16.33,0 29.02,5.77 38.02,17.26 9,11.48 13.5,27.17 13.5,47.08zm-40.91 3.7c0,-11.95 -2.3,-20.89 -6.92,-26.9 -4.62,-5.94 -11.2,-8.94 -19.79,-8.94 -7.85,0 -15.47,2.89 -22.79,8.66 -7.33,5.71 -13.97,14.31 -19.85,25.67 -5.95,11.37 -10.16,23.03 -12.64,34.86l-9.81 45.01c2.37,0.86 6.52,1.9 12.35,2.94 5.88,1.09 11.08,1.61 15.58,1.61 12.06,0 22.96,-3.75 32.72,-11.31 9.75,-7.56 17.36,-17.83 22.9,-30.69 5.48,-12.93 8.25,-26.55 8.25,-40.91z"/>
     <path class="fil10" d="M8577.76 11265.28c-6.86,-3.63 -13.5,-5.42 -19.96,-5.42 -11.72,0 -22.39,5.94 -32.03,17.77 -9.63,11.83 -16.56,27.58 -20.71,47.32l-15.7 74.09 -40.91 0 24.01 -112.58c5.71,-28.1 9.11,-48.24 10.15,-60.53l40.22 0c-1.16,10.96 -2.71,23.14 -4.73,36.58l0.63 0c7.1,-12.87 14.6,-22.85 22.45,-30 7.79,-7.16 16.97,-10.74 27.47,-10.74 4.27,0 9.98,0.87 17.08,2.54l-7.97 40.97z"/>
     <path class="fil10" d="M8750.87 11292.4c0,20.95 -4.21,40.05 -12.58,57.3 -8.42,17.31 -20.02,30.53 -34.85,39.7 -14.83,9.17 -31.91,13.79 -51.3,13.79 -21.75,0 -38.83,-6.23 -51.3,-18.75 -12.46,-12.53 -18.69,-29.78 -18.69,-51.88 0,-20.94 4.21,-39.93 12.58,-57.07 8.42,-17.13 20.02,-30.35 34.73,-39.69 14.78,-9.35 31.91,-14.03 51.42,-14.03 21.4,0 38.43,6.29 51.06,18.81 12.64,12.58 18.93,29.84 18.93,51.82zm-41.26 0.98c0,-12.06 -2.77,-21.64 -8.37,-28.73 -5.59,-7.1 -13.33,-10.68 -23.25,-10.68 -10.21,0 -19.56,3.52 -27.87,10.56 -8.37,7.04 -14.89,16.62 -19.67,28.68 -4.8,12.06 -7.22,24.98 -7.22,38.72 0,12.17 2.83,21.75 8.54,28.68 5.71,6.92 13.45,10.38 23.26,10.38 10.44,0 19.91,-3.52 28.33,-10.56 8.37,-7.04 14.83,-16.62 19.44,-28.67 4.56,-12.07 6.81,-24.88 6.81,-38.38z"/>
     <path class="fil10" d="M9053.81 11268.4c0,5.65 -1.73,16.73 -5.25,33.29l-20.77 97.35 -40.57 0 21.12 -100.12c2.25,-12.06 3.35,-19.44 3.35,-22.1 0,-15.23 -6.7,-22.85 -20.08,-22.85 -10.39,0 -21.35,6.35 -32.95,19.04 -11.66,12.64 -18.99,26.26 -21.99,40.8l-17.94 85.23 -40.91 0 21.29 -100.12c2.25,-12.06 3.4,-19.44 3.4,-22.1 0,-15.23 -6.69,-22.85 -20.14,-22.85 -6.86,0 -14.25,3 -22.15,8.94 -7.85,6.01 -14.83,13.74 -20.95,23.26 -6.06,9.52 -10.04,18.81 -11.83,27.81l-18.23 85.06 -41.08 0 26.19 -121.06c4.04,-19.39 7.04,-36.7 8.95,-52.05l39.93 0c-0.93,9.58 -2.66,21.98 -5.26,37.22l0.64 0c8.94,-13.05 18.92,-23.2 29.94,-30.47 11.03,-7.27 22.05,-10.91 32.95,-10.91 26.49,0 40.69,14.08 42.65,42.24 9.46,-13.73 19.91,-24.23 31.33,-31.45 11.43,-7.21 23.14,-10.79 35.08,-10.79 14.43,0 25.22,4.04 32.43,12.06 7.22,8.08 10.85,19.62 10.85,34.57z"/>
     <path class="fil10" d="M9167.94 11167.42c0,6.81 -2.42,12.4 -7.27,16.85 -4.84,4.44 -10.79,6.69 -17.77,6.69 -6.75,0 -12.46,-2.02 -17.14,-6.12 -4.67,-4.04 -7.04,-9.4 -7.04,-16.04 0,-6.86 2.48,-12.46 7.45,-16.79 4.96,-4.27 10.96,-6.4 17.94,-6.4 6.52,0 12.12,2.07 16.8,6.17 4.67,4.1 7.03,9.35 7.03,15.64zm-45.98 234.39c-12.41,0 -21.82,-3.12 -28.34,-9.41 -6.46,-6.23 -9.69,-15.18 -9.69,-26.77 0,-5.83 0.58,-11.6 1.85,-17.2l25.15 -122.5 41.09 0 -22.97 109c-2.36,11.31 -3.58,18.58 -3.58,21.81 0,8.6 4.91,12.87 14.72,12.87 5.77,0 10.9,-0.93 15.4,-2.71l-6.4 31.04c-9.69,2.6 -18.81,3.87 -27.23,3.87z"/>
     <path class="fil10" d="M9298.98 11262.8c-4.96,-2.94 -10.84,-5.48 -17.65,-7.67 -6.81,-2.14 -13.62,-3.24 -20.37,-3.24 -9.46,0 -16.56,2.02 -21.23,6 -4.68,4.05 -7.04,9.24 -7.04,15.58 0,5.6 1.96,10.28 5.77,14.03 3.8,3.69 9.34,7.5 16.56,11.48 14.66,8.19 24.64,16.04 30,23.48 5.37,7.39 8.02,16.16 8.02,26.14 0,10.97 -2.82,20.49 -8.54,28.57 -5.65,8.13 -13.96,14.48 -24.92,19.1 -10.91,4.61 -24.3,6.92 -40.05,6.92 -8.6,0 -17.66,-0.98 -27.24,-2.89 -9.58,-1.9 -16.9,-4.21 -21.98,-6.92l6.81 -33.41c6.17,3.75 13.5,6.93 22.04,9.52 8.48,2.6 16.68,3.93 24.58,3.93 9.93,0 17.31,-1.85 22.16,-5.6 4.85,-3.75 7.27,-8.89 7.27,-15.46 0,-5.08 -1.67,-9.47 -5.02,-13.16 -3.29,-3.75 -9.75,-8.2 -19.33,-13.39 -12.75,-6.86 -21.98,-14.14 -27.81,-21.75 -5.83,-7.68 -8.72,-16.68 -8.72,-27.06 0,-10.56 2.77,-20.08 8.2,-28.45 5.48,-8.37 13.38,-14.95 23.66,-19.68 10.32,-4.73 22.62,-7.1 36.81,-7.1 8.42,0 16.67,0.75 24.76,2.31 8.01,1.5 14.82,3.41 20.36,5.66l-7.1 33.06z"/>
     <path class="fil10" d="M9443.36 11262.8c-4.97,-2.94 -10.85,-5.48 -17.66,-7.67 -6.81,-2.14 -13.62,-3.24 -20.37,-3.24 -9.46,0 -16.56,2.02 -21.23,6 -4.68,4.05 -7.04,9.24 -7.04,15.58 0,5.6 1.96,10.28 5.77,14.03 3.8,3.69 9.34,7.5 16.56,11.48 14.65,8.19 24.64,16.04 30,23.48 5.37,7.39 8.02,16.16 8.02,26.14 0,10.97 -2.82,20.49 -8.54,28.57 -5.65,8.13 -13.96,14.48 -24.92,19.1 -10.91,4.61 -24.3,6.92 -40.05,6.92 -8.59,0 -17.66,-0.98 -27.24,-2.89 -9.58,-1.9 -16.9,-4.21 -21.98,-6.92l6.81 -33.41c6.17,3.75 13.5,6.93 22.04,9.52 8.48,2.6 16.68,3.93 24.59,3.93 9.92,0 17.3,-1.85 22.15,-5.6 4.85,-3.75 7.27,-8.89 7.27,-15.46 0,-5.08 -1.67,-9.47 -5.02,-13.16 -3.29,-3.75 -9.75,-8.2 -19.33,-13.39 -12.75,-6.86 -21.98,-14.14 -27.81,-21.75 -5.83,-7.68 -8.72,-16.68 -8.72,-27.06 0,-10.56 2.77,-20.08 8.2,-28.45 5.48,-8.37 13.38,-14.95 23.66,-19.68 10.32,-4.73 22.62,-7.1 36.81,-7.1 8.43,0 16.68,0.75 24.75,2.31 8.03,1.5 14.84,3.41 20.38,5.66l-7.1 33.06z"/>
     <path class="fil10" d="M9631.7 11292.4c0,20.95 -4.22,40.05 -12.58,57.3 -8.43,17.31 -20.03,30.53 -34.85,39.7 -14.83,9.17 -31.91,13.79 -51.3,13.79 -21.76,0 -38.83,-6.23 -51.3,-18.75 -12.46,-12.53 -18.69,-29.78 -18.69,-51.88 0,-20.94 4.21,-39.93 12.57,-57.07 8.43,-17.13 20.03,-30.35 34.74,-39.69 14.77,-9.35 31.91,-14.03 51.42,-14.03 21.4,0 38.43,6.29 51.06,18.81 12.64,12.58 18.93,29.84 18.93,51.82zm-41.26 0.98c0,-12.06 -2.77,-21.64 -8.37,-28.73 -5.59,-7.1 -13.32,-10.68 -23.25,-10.68 -10.21,0 -19.56,3.52 -27.87,10.56 -8.37,7.04 -14.89,16.62 -19.68,28.68 -4.79,12.06 -7.21,24.98 -7.21,38.72 0,12.17 2.83,21.75 8.54,28.68 5.71,6.92 13.45,10.38 23.25,10.38 10.45,0 19.91,-3.52 28.34,-10.56 8.36,-7.04 14.83,-16.62 19.44,-28.67 4.56,-12.07 6.81,-24.88 6.81,-38.38z"/>
     <path class="fil10" d="M9887.78 11266.9c-4.27,-3.64 -9.64,-6.7 -15.98,-9.18 -6.35,-2.48 -13.39,-3.75 -21.06,-3.75 -10.68,0 -20.49,3.18 -29.32,9.46 -8.82,6.35 -16.1,15.41 -21.69,27.3 -5.66,11.94 -8.48,24.41 -8.48,37.5 0,13.97 3.11,24.59 9.4,31.86 6.23,7.27 15.18,10.9 26.78,10.9 6.98,0 14.42,-1.44 22.21,-4.27 7.85,-2.83 14.89,-6.23 21.06,-10.33l-7.09 34.28c-15.99,8.37 -31.91,12.52 -47.67,12.52 -20.54,0 -36.58,-6.29 -48.18,-18.81 -11.59,-12.58 -17.43,-29.95 -17.43,-52.16 0,-20.03 4.33,-38.61 13.05,-55.8 8.65,-17.2 20.77,-30.58 36.23,-40.22 15.53,-9.64 33.07,-14.43 52.69,-14.43 8.19,0 16.38,0.99 24.52,2.95 8.08,1.96 14.43,4.5 18.93,7.5l-7.97 34.68z"/>
     <path class="fil10" d="M10071.16 11292.4c0,20.95 -4.21,40.05 -12.58,57.3 -8.42,17.31 -20.02,30.53 -34.85,39.7 -14.83,9.17 -31.91,13.79 -51.3,13.79 -21.75,0 -38.83,-6.23 -51.3,-18.75 -12.46,-12.53 -18.69,-29.78 -18.69,-51.88 0,-20.94 4.21,-39.93 12.58,-57.07 8.42,-17.13 20.02,-30.35 34.73,-39.69 14.78,-9.35 31.91,-14.03 51.42,-14.03 21.41,0 38.43,6.29 51.06,18.81 12.64,12.58 18.93,29.84 18.93,51.82zm-41.26 0.98c0,-12.06 -2.77,-21.64 -8.37,-28.73 -5.59,-7.1 -13.33,-10.68 -23.25,-10.68 -10.21,0 -19.56,3.52 -27.87,10.56 -8.37,7.04 -14.89,16.62 -19.67,28.68 -4.8,12.06 -7.22,24.98 -7.22,38.72 0,12.17 2.83,21.75 8.54,28.68 5.71,6.92 13.45,10.38 23.26,10.38 10.44,0 19.91,-3.52 28.33,-10.56 8.37,-7.04 14.83,-16.62 19.45,-28.67 4.55,-12.07 6.8,-24.88 6.8,-38.38z"/>
     <path class="fil10" d="M10374.1 11268.4c0,5.65 -1.73,16.73 -5.25,33.29l-20.78 97.35 -40.56 0 21.12 -100.12c2.25,-12.06 3.35,-19.44 3.35,-22.1 0,-15.23 -6.7,-22.85 -20.09,-22.85 -10.38,0 -21.34,6.35 -32.94,19.04 -11.66,12.64 -18.99,26.26 -21.99,40.8l-17.94 85.23 -40.91 0 21.29 -100.12c2.25,-12.06 3.4,-19.44 3.4,-22.1 0,-15.23 -6.69,-22.85 -20.13,-22.85 -6.87,0 -14.26,3 -22.16,8.94 -7.85,6.01 -14.83,13.74 -20.95,23.26 -6.06,9.52 -10.04,18.81 -11.83,27.81l-18.23 85.06 -41.09 0 26.2 -121.06c4.04,-19.39 7.04,-36.7 8.95,-52.05l39.92 0c-0.92,9.58 -2.65,21.98 -5.24,37.22l0.63 0c8.94,-13.05 18.92,-23.2 29.94,-30.47 11.03,-7.27 22.05,-10.91 32.95,-10.91 26.49,0 40.68,14.08 42.65,42.24 9.46,-13.73 19.91,-24.23 31.33,-31.45 11.43,-7.21 23.14,-10.79 35.08,-10.79 14.43,0 25.22,4.04 32.43,12.06 7.21,8.08 10.85,19.62 10.85,34.57z"/>
     <path class="fil10" d="M10642.36 11399.04l-41.38 0c0,-2.83 0.29,-7.97 0.98,-15.47 0.7,-7.5 1.39,-13.33 2.03,-17.37l-0.64 0c-7.15,10.33 -13.27,17.89 -18.35,22.57 -5.14,4.67 -10.68,8.25 -16.68,10.73 -5.94,2.48 -12.75,3.69 -20.31,3.69 -16.44,0 -29.19,-5.83 -38.37,-17.42 -9.12,-11.6 -13.67,-27.65 -13.67,-48.13 0,-20.95 4.96,-40.85 14.77,-59.78 9.87,-18.93 23.08,-33.01 39.58,-42.24 16.51,-9.23 35.78,-13.85 57.76,-13.85 18.12,0 39.7,2.71 64.75,8.14l-23.84 112.87c-1.73,7.96 -3.23,17.83 -4.62,29.48 -1.32,11.66 -2.01,20.6 -2.01,26.78zm-15.52 -144.26c-6.99,-1.67 -14.72,-2.54 -23.2,-2.54 -12.81,0 -24.18,3.35 -33.93,10.04 -9.81,6.75 -17.72,16.91 -23.72,30.58 -5.94,13.62 -8.94,27.87 -8.94,42.76 0,11.31 2.19,20.02 6.52,26.14 4.33,6.18 10.67,9.23 18.98,9.23 12.18,0 23.14,-6.34 32.89,-19.1 9.76,-12.75 16.91,-29.6 21.41,-50.6l9.99 -46.51z"/>
     <path class="fil10" d="M10906.23 11262.8c-4.96,-2.94 -10.85,-5.48 -17.66,-7.67 -6.81,-2.14 -13.62,-3.24 -20.36,-3.24 -9.47,0 -16.57,2.02 -21.24,6 -4.67,4.05 -7.04,9.24 -7.04,15.58 0,5.6 1.96,10.28 5.77,14.03 3.81,3.69 9.35,7.5 16.56,11.48 14.66,8.19 24.64,16.04 30.01,23.48 5.37,7.39 8.02,16.16 8.02,26.14 0,10.97 -2.83,20.49 -8.54,28.57 -5.66,8.13 -13.97,14.48 -24.93,19.1 -10.9,4.61 -24.29,6.92 -40.05,6.92 -8.59,0 -17.65,-0.98 -27.23,-2.89 -9.58,-1.9 -16.91,-4.21 -21.99,-6.92l6.81 -33.41c6.18,3.75 13.51,6.93 22.05,9.52 8.48,2.6 16.67,3.93 24.58,3.93 9.92,0 17.31,-1.85 22.16,-5.6 4.84,-3.75 7.27,-8.89 7.27,-15.46 0,-5.08 -1.68,-9.47 -5.02,-13.16 -3.29,-3.75 -9.76,-8.2 -19.34,-13.39 -12.75,-6.86 -21.98,-14.14 -27.81,-21.75 -5.82,-7.68 -8.71,-16.68 -8.71,-27.06 0,-10.56 2.77,-20.08 8.19,-28.45 5.48,-8.37 13.39,-14.95 23.66,-19.68 10.33,-4.73 22.62,-7.1 36.82,-7.1 8.42,0 16.67,0.75 24.75,2.31 8.02,1.5 14.83,3.41 20.37,5.66l-7.1 33.06z"/>
     <path class="fil10" d="M11074.9 11399.04l-41.38 0c0,-2.83 0.29,-7.97 0.98,-15.47 0.69,-7.5 1.39,-13.33 2.02,-17.37l-0.63 0c-7.16,10.33 -13.27,17.89 -18.35,22.57 -5.14,4.67 -10.68,8.25 -16.68,10.73 -5.94,2.48 -12.75,3.69 -20.31,3.69 -16.44,0 -29.2,-5.83 -38.37,-17.42 -9.12,-11.6 -13.68,-27.65 -13.68,-48.13 0,-20.95 4.97,-40.85 14.78,-59.78 9.86,-18.93 23.08,-33.01 39.58,-42.24 16.5,-9.23 35.78,-13.85 57.76,-13.85 18.12,0 39.7,2.71 64.74,8.14l-23.83 112.87c-1.73,7.96 -3.23,17.83 -4.62,29.48 -1.32,11.66 -2.01,20.6 -2.01,26.78zm-15.53 -144.26c-6.98,-1.67 -14.71,-2.54 -23.19,-2.54 -12.81,0 -24.18,3.35 -33.93,10.04 -9.81,6.75 -17.72,16.91 -23.72,30.58 -5.94,13.62 -8.94,27.87 -8.94,42.76 0,11.31 2.19,20.02 6.52,26.14 4.33,6.18 10.67,9.23 18.98,9.23 12.18,0 23.14,-6.34 32.89,-19.1 9.76,-12.75 16.91,-29.6 21.41,-50.6l9.98 -46.51z"/>
     <path class="fil10" d="M11272.36 11399.04l-40.57 0 5.25 -36.76 -0.69 0c-9.12,12.87 -19.33,22.91 -30.59,30.12 -11.3,7.21 -22.79,10.79 -34.5,10.79 -14.31,0 -25.27,-4.1 -32.78,-12.23 -7.55,-8.2 -11.36,-19.68 -11.36,-34.39 0,-5.54 1.79,-16.56 5.25,-33.12l20.65 -97.52 40.86 0 -21.12 99.42c-2.37,12.64 -3.52,20.2 -3.52,22.68 0,6.75 1.67,12.06 5.08,16.04 3.35,3.92 8.42,5.88 15.18,5.88 7.78,0 15.74,-2.88 23.94,-8.59 8.14,-5.77 15.41,-13.51 21.7,-23.26 6.34,-9.69 10.5,-19.44 12.52,-29.08l17.77 -83.09 40.91 0 -24.87 116.33c-4.39,20.94 -7.44,39.87 -9.11,56.78zm-37.97 -203.23l-30.3 0 51.07 -55.05 38.02 0 -58.79 55.05z"/>
     <path class="fil10" d="M11471.48 11399.04l-41.37 0c0,-5.31 0.98,-16.1 3,-32.32l-0.63 0c-8.25,12.58 -16.68,21.82 -25.28,27.7 -8.65,5.83 -18.52,8.77 -29.71,8.77 -16.57,0 -29.43,-5.71 -38.61,-17.14 -9.17,-11.42 -13.78,-27.52 -13.78,-48.24 0,-21.06 4.72,-40.74 14.13,-59.03 9.4,-18.29 22.33,-32.37 38.72,-42.23 16.38,-9.87 35.03,-14.78 55.85,-14.78 9.93,0 19.39,1.04 28.39,3.06l17.61 -81.99 40.21 0 -42.24 201.09c-1.38,5.77 -2.77,14.6 -4.15,26.54 -1.45,11.95 -2.14,21.47 -2.14,28.57zm-15.52 -143.74c-7.9,-2.02 -15.58,-3.06 -23.02,-3.06 -12.93,0 -24.35,3.4 -34.1,10.16 -9.81,6.75 -17.72,16.96 -23.72,30.52 -5.94,13.62 -8.94,27.7 -8.94,42.35 0,11.78 2.25,20.66 6.69,26.66 4.44,6.06 10.91,9.06 19.33,9.06 11.83,0 22.62,-6.34 32.31,-19.1 9.7,-12.75 16.97,-30.06 21.82,-51.93l9.63 -44.66z"/>
     <path class="fil10" d="M11679.56 11268.63c0,20.83 -9.69,36.18 -29.03,46.04 -19.38,9.87 -48.81,15.01 -88.28,15.47l-0.34 1.85 0 3.4c0,11.71 3.51,20.77 10.5,27.29 6.98,6.46 16.73,9.7 29.25,9.7 8.54,0 17.71,-1.56 27.47,-4.68 9.75,-3.11 18.69,-7.09 26.77,-11.94l-6.75 33.58c-17.02,9.23 -35.78,13.85 -56.26,13.85 -22.45,0 -39.93,-6.23 -52.51,-18.75 -12.58,-12.53 -18.87,-30.12 -18.87,-52.86 0,-19.62 4.27,-37.91 12.87,-54.99 8.54,-17.08 20.48,-30.47 35.84,-40.22 15.34,-9.75 32.13,-14.6 50.37,-14.6 18.12,0 32.49,4.27 43.1,12.87 10.62,8.54 15.87,19.85 15.87,33.99zm-39.53 0.98c0,-5.6 -2.07,-10.1 -6.17,-13.45 -4.09,-3.29 -9.81,-4.96 -17.02,-4.96 -11.95,0 -22.74,4.91 -32.43,14.72 -9.69,9.81 -16.04,21.87 -19.1,36.17 49.8,0 74.72,-10.84 74.72,-32.48z"/>
     <path class="fil10" d="M11754.34 11327.37l-33.12 0 31.45 -170.69 42.58 0 -40.91 170.69zm-1.04 51.07c0,6.69 -2.36,12.35 -7.15,17.02 -4.79,4.67 -10.85,7.04 -18.18,7.04 -6.87,0 -12.69,-2.2 -17.43,-6.52 -4.72,-4.33 -7.09,-9.7 -7.09,-15.99 0,-6.92 2.48,-12.63 7.33,-17.31 4.9,-4.61 11.02,-6.92 18.35,-6.92 6.69,0 12.35,2.19 17.07,6.52 4.74,4.33 7.1,9.75 7.1,16.16z"/>
    </g>
   </g>
  </g>
 </g>
</svg>
