<?xml version="1.0" encoding="UTF-8"?>
<!DOCTYPE svg PUBLIC "-//W3C//DTD SVG 1.1//EN" "http://www.w3.org/Graphics/SVG/1.1/DTD/svg11.dtd">
<!-- Creator: CorelDRAW 2019 (64 Bit) -->
<svg xmlns="http://www.w3.org/2000/svg" xml:space="preserve" width="600px" height="600px" version="1.1" style="shape-rendering:geometricPrecision; text-rendering:geometricPrecision; image-rendering:optimizeQuality; fill-rule:evenodd; clip-rule:evenodd"
viewBox="0 0 881.94 881.94"
 xmlns:xlink="http://www.w3.org/1999/xlink">
 <defs>
  <style type="text/css">
   <![CDATA[
    .fil0 {fill: rgba(255, 255, 255, 0.212);fill-rule:nonzero}
   ]]>
  </style>
 </defs>
 <g id="Camada_x0020_1">
  <metadata id="CorelCorpID_0Corel-Layer"/>
  <path class="fil0" d="M325.7 83.99c7.14,0 12.95,-5.79 12.95,-12.94 0,-7.18 -5.81,-12.95 -12.95,-12.95 -7.18,0 -12.97,5.77 -12.97,12.95 0,7.15 5.79,12.94 12.97,12.94zm-47.53 611.93l-0.02 -0.01c-1.06,0.22 -2.14,0.34 -3.26,0.34 -8.64,0 -15.64,-6.99 -15.64,-15.6 0,-1.03 0.1,-2.04 0.29,-3.02l0.03 -0.14 0.04 -0.2 0.04 -0.18 0.04 -0.15 0.05 -0.22 0.03 -0.11 0.07 -0.27 0.02 -0.06 0.09 -0.31 0.01 -0.01 0.1 -0.32 0.01 -0.03 0.1 -0.29 0.03 -0.07 0.09 -0.25 0.04 -0.11 0.08 -0.2 0.07 -0.15 0.06 -0.16 0.09 -0.19 0.05 -0.11 0.11 -0.24 0.03 -0.06 0.14 -0.28 0.01 -0.02 0.16 -0.3 0.01 -0.01 0.15 -0.28 0.03 -0.05 0.14 -0.24 0.05 -0.09 0.12 -0.19 0.08 -0.13 0.1 -0.15 0.11 -0.16 0.08 -0.11 0.13 -0.2 0.06 -0.07 0.17 -0.23 0.02 -0.04 0.21 -0.26 0.2 -0.26 0.03 -0.03 0.19 -0.22 0.05 -0.07 0.16 -0.18 0.09 -0.1 0.14 -0.15 0.12 -0.13 0.1 -0.1 0.16 -0.16 0.08 -0.08 0.19 -0.19 0.04 -0.04 0.23 -0.21 0.02 -0.01 0.24 -0.22 0.02 -0.02 0.24 -0.2 0.05 -0.04 0.2 -0.17 0.09 -0.07 0.17 -0.13 0.13 -0.1 0.14 -0.1 0.17 -0.12 0.1 -0.07 0.2 -0.14 0.07 -0.05 0.25 -0.16 0.03 -0.02 0.28 -0.17 0.01 -0.01 0.28 -0.16 0.04 -0.03 0.25 -0.14 0.08 -0.04 0.21 -0.11 0.13 -0.07 0.17 -0.09 0.17 -0.08 0.13 -0.06 0.21 -0.1 0.09 -0.04 0.26 -0.11 0.05 -0.02 0.3 -0.13 0.01 0 0.32 -0.12 0.03 -0.01 0.29 -0.1 0.07 -0.03 0.25 -0.08 0.12 -0.04 0.2 -0.06 0.17 -0.05 0.16 -0.04 0.21 -0.06 0.12 -0.03 0.26 -0.06 0.07 -0.02 0.31 -0.06 0.03 -0.01 0.33 -0.06 0.02 -0.01 0.32 -0.05 0.07 -0.01 0.28 -0.04 0.11 -0.01 0.23 -0.03 0.16 -0.02 0.19 -0.02 0.21 -0.01 0.14 -0.01 0.25 -0.02 0.1 0 0.31 -0.01 0.04 -0.01 0.36 0c8.64,0 15.63,6.99 15.63,15.64l0 0.35 -0.01 0.05 -0.01 0.3 0 0.1 -0.01 0.25 -0.02 0.15 -0.01 0.19 -0.02 0.2 -0.02 0.14 -0.03 0.26 -0.01 0.08 -0.04 0.3 -0.01 0.04 -0.05 0.34 0 0.01 -0.06 0.32 -0.02 0.06 -0.05 0.27 -0.03 0.11 -0.05 0.22 -0.04 0.16 -0.05 0.17 -0.05 0.2 -0.04 0.12 -0.07 0.25 -0.02 0.07 -0.1 0.29 -0.01 0.03 -0.11 0.31 -0.01 0.02 -0.11 0.29 -0.02 0.07 -0.1 0.24 -0.05 0.11 -0.08 0.19 -0.07 0.16 -0.06 0.14 -0.1 0.2 -0.05 0.1 -0.12 0.24 -0.02 0.05 -0.15 0.28 -0.01 0.02 -0.16 0.28 -0.02 0.03 -0.14 0.26 -0.05 0.07 -0.13 0.2 -0.07 0.12 -0.1 0.16 -0.11 0.15 -0.08 0.12 -0.13 0.19 -0.05 0.08 -0.17 0.22 -0.03 0.04 -0.2 0.26 -0.41 0.51 -0.07 0.07 -0.15 0.17 -0.1 0.11 -0.11 0.13 -0.14 0.14 -0.09 0.1 -0.18 0.17 -0.05 0.06 -0.21 0.2 -0.02 0.03 -0.24 0.22 -0.02 0.01 -0.47 0.42 -0.09 0.07 -0.59 0.46 -0.09 0.07 -0.81 0.56 -0.03 0.01 -0.32 0.2 -0.21 0.13c-0.47,0.28 -0.96,0.53 -1.46,0.75l0 0.01c-0.58,0.26 -1.17,0.47 -1.79,0.67l-0.07 0.03 -1.3 0.34zm389.47 -160.32l-0.15 -0.31 -0.01 0 -0.58 -1.28 -0.03 -0.09 -0.26 -0.72 -0.03 -0.08 -0.19 -0.64 -0.02 -0.04 -0.03 -0.11 -0.03 -0.12 -0.02 -0.1 -0.01 -0.01 -0.03 -0.12 -0.08 -0.35 -0.03 -0.12 -0.02 -0.11 -0.01 -0.04 -0.02 -0.08 -0.02 -0.12 -0.02 -0.12 -0.01 -0.06 -0.01 -0.06 -0.02 -0.12 -0.02 -0.12 -0.01 -0.08 -0.01 -0.04 -0.02 -0.12 -0.01 -0.12 -0.02 -0.11 0 -0.01 -0.01 -0.12 -0.02 -0.12 -0.01 -0.12 0 -0.02 -0.01 -0.1 -0.01 -0.12 -0.01 -0.12 0 -0.05 -0.01 -0.08 -0.01 -0.12 -0.01 -0.12 0 -0.07 0 -0.06 -0.01 -0.12 0 -0.12 0 -0.1 -0.01 -0.03 0 -0.12 0 -0.13 0 -0.12 0 -0.14 0 -0.15 0.01 -0.11 0 -0.03 0 -0.14 0.01 -0.14 0 -0.09 0 -0.05 0.01 -0.15 0.01 -0.14 0.01 -0.06 0 -0.08 0.01 -0.14 0.02 -0.14 0 -0.03 0.01 -0.11 0.02 -0.14 0.01 -0.14 0.02 -0.13 0.02 -0.14 0.02 -0.12 0 -0.02 0.02 -0.14 0.03 -0.13 0.01 -0.09 0.01 -0.05 0.03 -0.14 0.02 -0.13 0.01 -0.06 0.02 -0.08 0.03 -0.13 0.03 -0.14 0.01 -0.03 0.02 -0.1 0.03 -0.13 0.03 -0.14 0.01 0 0.03 -0.13 0.03 -0.13 0.04 -0.11 0 -0.02 0.04 -0.13 0.04 -0.13 0.03 -0.09 0.01 -0.04 0.04 -0.13 0.04 -0.13 0.02 -0.06 0.02 -0.07 0.05 -0.13 0.04 -0.13 0.02 -0.03 0.03 -0.1 0.05 -0.12 0.05 -0.13 0 -0.01 0.05 -0.11 0.05 -0.13 0.05 -0.11 0 -0.01 0.15 -0.33 0.01 -0.04 0.06 -0.13 0.05 -0.12 0.03 -0.05 0.03 -0.07 0.06 -0.12 0.06 -0.12 0.02 -0.03 0.04 -0.09c0.19,-0.42 0.41,-0.81 0.66,-1.16l0 0.03c2.74,-4.3 7.66,-7.21 13.1,-7.21 8.54,0 15.51,6.91 15.51,15.5 0,8.54 -6.97,15.5 -15.51,15.5 -5.92,0 -11.04,-3.3 -13.65,-8.17l0 0.03zm-253.62 -250.43l-0.09 -0.1c-2.41,-2.95 -3.84,-6.7 -3.84,-10.84 0,-9.47 7.7,-17.16 17.2,-17.16 9.49,0 17.18,7.69 17.18,17.16 0,3.82 -1.24,7.35 -3.35,10.2l0.02 0 -0.3 0.39 -0.03 0.03c-0.4,0.51 -0.82,0.99 -1.27,1.45l-0.1 0.09 -0.08 0.09 -0.83 0.75 -0.08 0.08 -0.23 0.19 -0.15 0.13 -0.17 0.13 -0.02 0.02 -0.2 0.15 -0.11 0.08 -0.08 0.07 -0.2 0.14 -0.05 0.03 -0.16 0.12 -0.18 0.12 -0.02 0.01 -0.21 0.14 -0.12 0.07 -0.3 0.2 -0.05 0.02 -0.16 0.1 -0.43 0.25 -0.13 0.07 -0.09 0.05 -0.22 0.12 -0.06 0.02 -0.16 0.09 -0.21 0.1 -0.02 0.01 -0.22 0.1 -0.14 0.06 -0.09 0.05 -0.23 0.1 -0.06 0.02 -0.17 0.07 -0.22 0.09 -0.01 0.01 -0.24 0.09 -0.14 0.05 -0.09 0.03 -0.24 0.09 -0.07 0.02 -0.17 0.06 -0.23 0.07 -0.01 0 -0.24 0.08 -0.16 0.04 -0.09 0.03 -0.24 0.06 -0.08 0.02 -0.17 0.04 -0.24 0.06 -0.01 0 -0.25 0.06 -0.16 0.03 -0.09 0.02 -0.25 0.05 -0.08 0.01 -0.17 0.03 -0.25 0.04 -0.01 0 -0.26 0.04 -0.16 0.02 -0.09 0.01 -0.26 0.03 -0.08 0.01 -0.18 0.02 -0.26 0.02 -0.26 0.02 -0.18 0.01 -0.09 0 -0.26 0.01 -0.09 0 -0.17 0.01 -0.27 0 -0.25 0 -0.19 -0.01 -0.06 0 -0.25 -0.01 -0.14 0 -0.11 -0.01 -0.25 -0.01 -0.07 -0.01 -0.18 -0.01 -0.25 -0.03 -0.01 0 -0.23 -0.02 -0.2 -0.03 -0.05 0 -0.24 -0.04 -0.14 -0.02 -0.1 -0.01 -0.24 -0.04 -0.08 -0.02 -0.16 -0.03 -0.24 -0.04 -0.03 -0.01 -0.21 -0.04 -0.2 -0.05 -0.04 -0.01 -0.23 -0.05 -0.15 -0.04 -0.09 -0.02 -0.23 -0.07 -0.09 -0.02 -0.14 -0.04 -0.23 -0.07 -0.04 -0.01 -0.19 -0.06 -0.21 -0.07 -0.02 -0.01 -0.22 -0.08 -0.15 -0.05 -0.08 -0.03 -0.22 -0.08 -0.1 -0.04 -0.12 -0.05 -0.22 -0.09 -0.05 -0.02 -0.17 -0.08 -0.21 -0.09 -0.01 0 -0.21 -0.1 -0.16 -0.07 -0.06 -0.03 -0.21 -0.11 -0.1 -0.05 -0.11 -0.06 -0.21 -0.11 -0.05 -0.02 -0.15 -0.09 -0.21 -0.12 -0.2 -0.11 -0.16 -0.1 -0.05 -0.03 -0.2 -0.12 -0.1 -0.07 -0.09 -0.06 -0.2 -0.13 -0.06 -0.03 -0.13 -0.1 -0.2 -0.13 -0.01 -0.01 -0.18 -0.13 -0.15 -0.11 -0.04 -0.03 -0.18 -0.14 -0.11 -0.08 -0.08 -0.07 -0.18 -0.14 -0.06 -0.05 -0.12 -0.1 -0.18 -0.15 -0.02 -0.02 -0.16 -0.14 -0.15 -0.13 -0.02 -0.02 -0.17 -0.16 -0.11 -0.1 -0.06 -0.06 -0.17 -0.17 -0.06 -0.06 -0.11 -0.1 -0.16 -0.17 -0.02 -0.03 -0.14 -0.14 -0.14 -0.16 -0.02 -0.01 -0.15 -0.18 -0.11 -0.12 -0.05 -0.05 -0.15 -0.18 -0.06 -0.08zm-37.83 6.12l-0.1 0c-9.22,-0.2 -16.63,-7.73 -16.63,-17.06 0,-9.4 7.61,-17.01 17.03,-17.01 9.43,0 17.03,7.61 17.03,17.01 0,6.61 -3.72,12.33 -9.19,15.16l-0.08 0.04 -0.03 0.02 -0.11 0.05 -0.11 0.06 -0.11 0.05 -0.01 0 -0.1 0.05 -0.12 0.06 -0.11 0.05 -0.04 0.02 -0.07 0.03 -0.12 0.05 -0.11 0.05 -0.08 0.03 -0.03 0.02 -0.12 0.04 -0.12 0.05 -0.11 0.05 -0.01 0 -0.11 0.04 -0.11 0.05 -0.12 0.04 -0.04 0.02 -0.08 0.02 -0.12 0.05 -0.12 0.04 -0.08 0.03 -0.03 0.01 -0.12 0.04 -0.12 0.04 -0.12 0.03 -0.01 0.01 -0.11 0.03 -0.12 0.04 -0.12 0.03 -0.05 0.01 -0.08 0.03 -0.12 0.03 -0.12 0.03 -0.09 0.02 -0.03 0.01 -0.13 0.03 -0.12 0.03 -0.12 0.03 -0.01 0 -0.12 0.03 -0.12 0.03 -0.13 0.02 -0.04 0.01 -0.08 0.02 -0.13 0.02 -0.12 0.03 -0.09 0.01 -0.04 0.01 -0.13 0.02 -0.12 0.02 -0.13 0.02 -0.13 0.02 -0.12 0.02 -0.13 0.02 -0.05 0 -0.08 0.01 -0.13 0.02 -0.13 0.01 -0.08 0.01 -0.05 0.01 -0.13 0.01 -0.13 0.01 -0.13 0.01 -0.13 0.01 -0.13 0.01 -0.13 0.01 -0.04 0 -0.09 0 -0.13 0.01 -0.13 0 -0.09 0 -0.04 0.01 -0.14 0 -0.13 0 -0.13 0 -0.1 0 -0.1 0 -0.1 0zm254.29 543.7l1.97 -1.95 -1.97 -1.98 -1.97 1.98 1.97 1.95zm-50.78 -1.24l0.69 -0.71 -0.69 -0.71 -0.73 0.71 0.73 0.71zm-50.83 5.61c3.52,0 6.34,-2.81 6.34,-6.32 0,-3.49 -2.82,-6.34 -6.34,-6.34 -3.51,0 -6.33,2.85 -6.33,6.34 0,3.51 2.82,6.32 6.33,6.32zm-203.17 -5.33l0.98 -0.99 -0.98 -0.98 -0.99 0.98 0.99 0.99zm304.78 -41.66c5.62,0 10.17,-4.55 10.17,-10.13 0,-5.61 -4.55,-10.16 -10.17,-10.16 -5.58,0 -10.13,4.55 -10.13,10.16 0,5.58 4.55,10.13 10.13,10.13zm-50.78 -5.2l4.93 -4.93 -4.93 -4.92 -4.92 4.92 4.92 4.93zm-50.83 0l4.94 -4.93 -4.94 -4.92 -4.91 4.92 4.91 4.93zm-50.76 0.42l5.33 -5.35 -5.33 -5.36 -5.39 5.36 5.39 5.35zm-50.82 11.81c9.49,0 17.18,-7.68 17.18,-17.16 0,-9.49 -7.69,-17.18 -17.18,-17.18 -9.5,0 -17.2,7.69 -17.2,17.18 0,9.48 7.7,17.16 17.2,17.16zm-50.8 0c9.48,0 17.17,-7.68 17.17,-17.16 0,-9.49 -7.69,-17.18 -17.17,-17.18 -9.49,0 -17.2,7.69 -17.2,17.18 0,9.48 7.71,17.16 17.2,17.16zm-50.79 -10.27c3.8,0 6.87,-3.1 6.87,-6.89 0,-3.82 -3.07,-6.92 -6.87,-6.92 -3.83,0 -6.92,3.1 -6.92,6.92 0,3.79 3.09,6.89 6.92,6.89zm-50.81 -4.37l2.53 -2.52 -2.53 -2.55 -2.55 2.55 2.55 2.52zm-50.79 -1.97l0.55 -0.55 -0.55 -0.58 -0.57 0.58 0.57 0.55zm507.98 -51.22l0.14 -0.14 -0.14 -0.14 -0.14 0.14 0.14 0.14zm-50.79 12.68c7.07,0 12.81,-5.72 12.81,-12.82 0,-7.05 -5.74,-12.81 -12.81,-12.81 -7.08,0 -12.82,5.76 -12.82,12.81 0,7.1 5.74,12.82 12.82,12.82zm-50.81 -5.06c4.27,0 7.74,-3.49 7.74,-7.76 0,-4.27 -3.47,-7.76 -7.74,-7.76 -4.27,0 -7.74,3.49 -7.74,7.76 0,4.27 3.47,7.76 7.74,7.76zm-50.78 0c4.27,0 7.76,-3.49 7.76,-7.76 0,-4.27 -3.49,-7.76 -7.76,-7.76 -4.3,0 -7.76,3.49 -7.76,7.76 0,4.27 3.46,7.76 7.76,7.76zm-50.83 0.12c4.39,0 7.9,-3.5 7.9,-7.88l-0.08 -1.11 0.01 0 -0.02 -0.09 -0.01 -0.09 -0.02 -0.1 -0.01 -0.08 -0.03 -0.12 -0.01 -0.05 -0.03 -0.14 -0.05 -0.19 0 -0.02 -0.09 -0.31 -0.01 -0.03 0 -0.01 -0.05 -0.16 -0.01 -0.02 -0.05 -0.14 -0.02 -0.05 -0.04 -0.12 -0.02 -0.06 -0.04 -0.1 -0.04 -0.07 -0.03 -0.09 -0.04 -0.09 -0.03 -0.07 -0.05 -0.1 -0.03 -0.06 -0.06 -0.11 -0.02 -0.05 -0.07 -0.12 -0.01 -0.03 -0.08 -0.14 -0.01 -0.01 -0.08 -0.15 -0.01 0 -0.09 -0.15 -0.01 -0.01 -0.08 -0.14 -0.02 -0.02 -0.08 -0.12 -0.03 -0.04 -0.07 -0.1 -0.04 -0.05 -0.06 -0.09 -0.06 -0.06 -0.05 -0.07 -0.07 -0.08 -0.04 -0.06 -0.08 -0.09 -0.03 -0.04 -0.09 -0.1 -0.03 -0.03 -0.1 -0.11 -0.01 -0.01 -0.12 -0.12 -0.01 -0.01 -0.12 -0.12 -0.01 0 -0.12 -0.12 -0.02 -0.01 -0.1 -0.1 -0.04 -0.03 -0.09 -0.09 -0.05 -0.03 -0.09 -0.08 -0.06 -0.04 -0.07 -0.06 -0.08 -0.06 -0.06 -0.05 -0.1 -0.06 -0.04 -0.04 -0.11 -0.07 -0.04 -0.03 -0.12 -0.07 -0.02 -0.02 -0.14 -0.08 -0.01 -0.01 -0.15 -0.09 -0.01 0 -0.14 -0.09 -0.02 0 -0.14 -0.08 -0.03 -0.01 -0.12 -0.07 -0.05 -0.02 -0.11 -0.05 -0.07 -0.03 -0.09 -0.04 -0.08 -0.04 -0.08 -0.03 -0.1 -0.04 -0.07 -0.03 -0.11 -0.04 -0.05 -0.02 -0.14 -0.04 -0.03 -0.02 -0.15 -0.04 -0.02 -0.01 -0.17 -0.05 -0.17 -0.05 -0.02 0 -0.16 -0.04 -0.03 -0.01 -0.14 -0.03 -0.05 -0.01 -0.13 -0.03 -0.06 -0.01 -0.12 -0.02 -0.08 -0.01 -0.1 -0.01 -0.1 -0.02 -0.08 -0.01 -0.12 -0.01 -0.07 -0.01 -0.13 -0.01 -0.05 0 -0.15 -0.01 -0.04 0 -0.16 -0.01 -0.02 0 -0.19 0c-4.32,0 -7.88,3.55 -7.88,7.89l0 0.18 0 0.02 0.01 0.17 0 0.04 0.01 0.14 0 0.06 0.01 0.12 0.01 0.08 0.01 0.1 0.01 0.1 0.01 0.07 0.02 0.13 0.01 0.05 0.02 0.14 0.01 0.03 0.03 0.17 0 0.01 0.04 0.17 0 0.01 0.04 0.16 0.01 0.03 0.04 0.14 0.01 0.05 0.04 0.12 0.02 0.06 0.03 0.1 0.03 0.09 0.03 0.08 0.03 0.1 0.03 0.06 0.04 0.12 0.02 0.04 0.07 0.16 0.06 0.15 0 0.01 0.08 0.16 0 0.01 0.07 0.14 0.02 0.03 0.06 0.12 0.03 0.05 0.06 0.1 0.03 0.06 0.05 0.09 0.05 0.08 0.04 0.07 0.06 0.09 0.03 0.05 0.07 0.11 0.03 0.03 0.08 0.12 0.01 0.02 0.1 0.14 0.11 0.14 0.01 0.01 0.09 0.12 0.03 0.02 0.08 0.11 0.01 0c1.45,1.68 3.6,2.75 5.98,2.75zm-50.76 7.35c8.39,0 15.18,-6.82 15.18,-15.23 0,-8.4 -6.79,-15.2 -15.18,-15.2 -8.41,0 -15.24,6.8 -15.24,15.2 0,8.41 6.83,15.23 15.24,15.23zm-50.82 -11.85l3.37 -3.38 -3.37 -3.37 -3.38 3.37 3.38 3.38zm-50.8 3.51c3.81,0 6.91,-3.06 6.91,-6.89 0,-3.81 -3.1,-6.89 -6.91,-6.89 -3.8,0 -6.9,3.08 -6.9,6.89 0,3.83 3.1,6.89 6.9,6.89zm-50.79 10.59c8.04,0 14.77,-5.38 16.81,-12.76l0.04 -0.14 0.04 -0.14 0.02 -0.07 0.02 -0.07 0.03 -0.14 0.04 -0.15 0.01 -0.06 0.02 -0.08 0.03 -0.14 0.03 -0.15 0.02 -0.06 0.01 -0.08 0.03 -0.14 0.03 -0.15 0.01 -0.06 0.01 -0.09 0.03 -0.14 0.02 -0.15 0.01 -0.05 0.02 -0.1 0.02 -0.14 0.02 -0.15 0 -0.04 0.01 -0.11 0.02 -0.15 0.02 -0.15 0 -0.03 0.01 -0.12 0.02 -0.15 0.01 -0.15 0 -0.03 0.01 -0.12 0.01 -0.15 0.01 -0.15 0 -0.02 0 -0.14 0.01 -0.15 0 -0.15 0 -0.01 0.01 -0.14 0 -0.16 0 -0.15c0,-9.64 -7.82,-17.46 -17.46,-17.46l-0.26 0 -0.19 0.01 -0.07 0 -0.26 0.01 -0.12 0 -0.14 0.01 -0.26 0.02 -0.05 0 -0.2 0.02 -0.24 0.02 -0.02 0 -0.25 0.03 -0.17 0.02 -0.08 0.01 -0.26 0.04 -0.09 0.01 -0.16 0.03 -0.25 0.04 -0.03 0 -0.21 0.04 -0.21 0.04 -0.04 0.01 -0.25 0.06 -0.14 0.03 -0.1 0.02 -0.24 0.06 -0.08 0.02 -0.17 0.04 -0.24 0.07 -0.01 0 -0.22 0.07 -0.19 0.06 -0.05 0.01 -0.24 0.08 -0.12 0.04 -0.11 0.04 -0.24 0.08 -0.05 0.02 -0.18 0.07 -0.22 0.08 -0.01 0 -0.23 0.1 -0.16 0.06 -0.06 0.03 -0.23 0.1 -0.1 0.04 -0.12 0.06 -0.22 0.11 -0.04 0.01 -0.18 0.09 -0.2 0.1 -0.02 0.01 -0.22 0.12 -0.13 0.07 -0.08 0.04 -0.21 0.12 -0.08 0.04 -0.14 0.08 -0.21 0.13 -0.02 0.01 -0.18 0.12 -0.17 0.1 -0.04 0.03 -0.2 0.13 -0.12 0.07 -0.08 0.06 -0.2 0.14 -0.06 0.04 -0.14 0.1 -0.19 0.15 -0.01 0 -0.19 0.14 -0.14 0.11 -0.05 0.04 -0.19 0.16 -0.09 0.07 -0.09 0.08 -0.19 0.16 -0.04 0.03 -0.14 0.13 -0.18 0.15 0 0.01 -0.18 0.16 -0.12 0.11 -0.06 0.06 -0.17 0.17 -0.07 0.07 -0.1 0.1 -0.17 0.17 -0.03 0.02 -0.28 0.31 -0.02 0.03 -0.16 0.18 -0.1 0.1 -0.06 0.08 -0.15 0.18 -0.06 0.07 -0.1 0.12 -0.15 0.19c-2.34,2.97 -3.74,6.72 -3.74,10.79 0,9.65 7.82,17.48 17.48,17.48zm-50.81 -7.62c5.44,0 9.85,-4.41 9.85,-9.86 0,-5.44 -4.41,-9.85 -9.85,-9.85 -5.46,0 -9.87,4.41 -9.87,9.85 0,5.45 4.41,9.86 9.87,9.86zm-50.79 -6.89l2.94 -2.97 -2.94 -2.96 -2.97 2.96 2.97 2.97zm-50.81 1.14l4.09 -4.11 -4.09 -4.06 -4.1 4.06 4.1 4.11zm558.79 -54.34l0.58 -0.55 -0.58 -0.59 -0.55 0.59 0.55 0.55zm-50.79 9.72c5.69,0 10.26,-4.62 10.26,-10.27 0,-5.68 -4.57,-10.31 -10.26,-10.31 -5.68,0 -10.3,4.63 -10.3,10.31 0,5.65 4.62,10.27 10.3,10.27zm-50.81 0c5.67,0 10.31,-4.62 10.31,-10.27 0,-5.68 -4.64,-10.31 -10.31,-10.31 -5.68,0 -10.27,4.63 -10.27,10.31 0,5.65 4.59,10.27 10.27,10.27zm-50.78 -6.89l3.37 -3.38 -3.37 -3.42 -3.38 3.42 3.38 3.38zm-50.83 8.31c6.48,0 11.69,-5.25 11.69,-11.69 0,-6.48 -5.21,-11.71 -11.69,-11.71 -6.43,0 -11.66,5.23 -11.66,11.71 0,6.44 5.23,11.69 11.66,11.69zm-50.76 -6.07l5.61 -5.62 -5.61 -5.65 -5.67 5.65 5.67 5.62zm-50.82 4.51c5.59,0 10.14,-4.55 10.14,-10.13 0,-5.62 -4.55,-10.17 -10.14,-10.17 -5.6,0 -10.15,4.55 -10.15,10.17 0,5.58 4.55,10.13 10.15,10.13zm-50.8 -6.48l3.65 -3.65 -3.65 -3.69 -3.66 3.69 3.66 3.65zm-50.79 9.86c7.45,0 13.52,-6.07 13.52,-13.51 0,-7.48 -6.07,-13.54 -13.52,-13.54 -7.49,0 -13.53,6.06 -13.53,13.54 0,7.44 6.04,13.51 13.53,13.51zm-101.6 3.79c9.56,0 17.3,-7.76 17.3,-17.3 0,-9.58 -7.74,-17.33 -17.3,-17.33 -9.58,0 -17.34,7.75 -17.34,17.33 0,9.54 7.76,17.3 17.34,17.3zm-50.81 -15.47l1.83 -1.83 -1.83 -1.86 -1.84 1.86 1.84 1.83zm558.79 -39.68c7.15,0 12.96,-5.8 12.96,-12.96 0,-7.16 -5.81,-12.96 -12.96,-12.96 -7.14,0 -12.95,5.8 -12.95,12.96 0,7.16 5.81,12.96 12.95,12.96zm-50.79 -11l1.97 -1.96 -1.97 -1.97 -1.96 1.97 1.96 1.96zm-50.81 11.41l0.17 0 0.16 0 0.02 0 0.15 -0.01 0.16 -0.01 0.03 0 0.14 -0.01 0.16 -0.01 0.04 0 0.13 -0.01 0.16 -0.02 0.05 0 0.11 -0.02 0.16 -0.02 0.07 0 0.09 -0.02 0.16 -0.02 0.32 -0.05 0.09 -0.01 0.07 -0.02 0.16 -0.03c6.16,-1.21 10.81,-6.6 10.81,-13.11 0,-2.27 -0.56,-4.41 -1.57,-6.27l-0.05 -0.11 -0.07 -0.11 -0.09 -0.17 -0.04 -0.05 -0.12 -0.21 -0.27 -0.43 -0.08 -0.13 -0.06 -0.08 -0.44 -0.6 -0.07 -0.1 -0.09 -0.1 -0.75 -0.87 -0.07 -0.07 -0.16 -0.16 -0.02 -0.01 -0.18 -0.18 -0.03 -0.03 -0.15 -0.14 -0.08 -0.08 -0.11 -0.09 -0.13 -0.12 -0.05 -0.04 -0.2 -0.16 0 -0.01 -0.19 -0.15 -0.06 -0.05 -0.14 -0.1 -0.2 -0.15 -0.18 -0.13 -0.02 -0.02 -0.21 -0.14 -0.03 -0.03 -0.18 -0.11 -0.09 -0.06 -0.12 -0.07 -0.15 -0.1 -0.06 -0.03 -0.22 -0.13 0 -0.01 -0.22 -0.11 -0.07 -0.04 -0.15 -0.08 -0.13 -0.07 -0.1 -0.05 -0.19 -0.1 -0.03 -0.01 -0.23 -0.11 -0.04 -0.01 -0.19 -0.09 -0.11 -0.04 -0.13 -0.06 -0.17 -0.07 -0.07 -0.02 -0.23 -0.09 -0.01 0 -0.23 -0.09 -0.08 -0.02 -0.17 -0.06 -0.14 -0.04 -0.1 -0.03 -0.22 -0.07 -0.03 0 -0.25 -0.07 -0.04 -0.01 -0.21 -0.05 -0.11 -0.03 -0.14 -0.03 -0.19 -0.04 -0.07 -0.01 -0.25 -0.05 -0.01 0 -0.25 -0.04 -0.08 -0.02 -0.18 -0.02 -0.15 -0.02 -0.11 -0.02 -0.23 -0.02 -0.03 0 -0.27 -0.03 -0.04 0 -0.22 -0.02 -0.12 0 -0.15 -0.01 -0.19 -0.01 -0.08 0 -0.27 0c-7.37,0 -13.37,5.95 -13.37,13.36 0,7.4 6,13.37 13.37,13.37zm-50.78 0.3c7.54,0 13.64,-6.13 13.64,-13.67 0,-7.55 -6.1,-13.68 -13.64,-13.68 -7.54,0 -13.68,6.13 -13.68,13.68 0,7.54 6.14,13.67 13.68,13.67zm-50.83 -1.72c6.62,0 12.01,-5.33 12.01,-11.95 0,-6.61 -5.39,-12 -12.01,-12 -6.61,0 -11.94,5.39 -11.94,12 0,6.62 5.33,11.95 11.94,11.95zm-50.76 -5.75c3.4,0 6.16,-2.79 6.16,-6.2 0,-3.41 -2.76,-6.21 -6.16,-6.21 -3.46,0 -6.2,2.8 -6.2,6.21 0,3.41 2.74,6.2 6.2,6.2zm-50.82 5.06c6.21,0 11.27,-5.03 11.27,-11.26 0,-6.24 -5.06,-11.27 -11.27,-11.27 -6.22,0 -11.26,5.03 -11.26,11.27 0,6.23 5.04,11.26 11.26,11.26zm-50.8 4.09c8.48,0 15.34,-6.89 15.34,-15.35 0,-8.47 -6.86,-15.38 -15.34,-15.38 -8.49,0 -15.35,6.91 -15.35,15.38 0,8.46 6.86,15.35 15.35,15.35zm-50.79 -0.99c7.94,0 14.36,-6.43 14.36,-14.36 0,-7.92 -6.42,-14.37 -14.36,-14.37 -7.95,0 -14.38,6.45 -14.38,14.37 0,7.93 6.43,14.36 14.38,14.36zm-50.81 2.25c9.18,0 16.6,-7.42 16.6,-16.61 0,-9.2 -7.42,-16.6 -16.6,-16.6 -9.18,0 -16.62,7.4 -16.62,16.6 0,9.19 7.44,16.61 16.62,16.61zm-50.79 -0.41c3.45,0 6.66,-1.08 9.31,-2.95l0.06 -0.04 0.13 -0.1 0.2 -0.14 0.19 -0.14 0.1 -0.08 0.08 -0.07 0.19 -0.15 0.04 -0.03 0.14 -0.12 0.15 -0.13 0.03 -0.03 0.36 -0.32 0.17 -0.16 0.02 -0.01 0.15 -0.15 0.13 -0.12 0.04 -0.05 0.17 -0.17 0.06 -0.06 0.1 -0.11 0.16 -0.17 0 -0.01 0.16 -0.17 0.1 -0.11 0.06 -0.07 0.15 -0.19 0.04 -0.04 0.11 -0.14 0.15 -0.19 0.14 -0.18 0.08 -0.1 0.07 -0.09 0.14 -0.2 0.02 -0.03 0.11 -0.16 0.11 -0.16 0.03 -0.04 0.13 -0.2 0.06 -0.08 0.07 -0.12 0.13 -0.2 0.01 -0.01 0.11 -0.2 0.08 -0.14 0.04 -0.07 0.12 -0.2 0.04 -0.07 0.07 -0.14 0.11 -0.21 0 -0.01 0.11 -0.21 0.06 -0.13 0.04 -0.09 0.11 -0.22 0.02 -0.05 0.07 -0.17 0.09 -0.19 0.01 -0.03 0.09 -0.22 0.05 -0.11 0.04 -0.12 0.09 -0.22 0.01 -0.03 0.07 -0.2 0.06 -0.18 0.02 -0.05 0.07 -0.23 0.03 -0.1 0.04 -0.14 0.07 -0.23 0.01 -0.01 0.06 -0.23 0.04 -0.16 0.02 -0.08 0.06 -0.23 0.02 -0.08 0.03 -0.16 0.05 -0.23 0 -0.02 0.05 -0.24 0.03 -0.14 0.02 -0.1 0.04 -0.25 0 -0.05 0.03 -0.2 0.03 -0.2 0 -0.04 0.03 -0.25 0.02 -0.12 0.01 -0.13 0.02 -0.26 0 -0.02 0.02 -0.23 0.01 -0.19 0 -0.06 0.01 -0.26 0 -0.09 0.01 -0.16 0 -0.26c0,-8.95 -7.25,-16.2 -16.19,-16.2l-0.09 0 -0.1 0 -0.09 0 -0.1 0 -0.04 0.01 -0.05 0 -0.1 0 -0.09 0 -0.09 0.01 -0.08 0 -0.02 0 -0.09 0.01 -0.09 0 -0.1 0.01 -0.09 0.01 -0.03 0 -0.06 0 -0.1 0.01 -0.09 0.01 -0.09 0.01 -0.07 0 -0.02 0.01 -0.1 0.01 -0.09 0.01 -0.09 0.01 -0.09 0.01 -0.02 0 -0.07 0.01 -0.09 0.01 -0.1 0.02 -0.09 0.01 -0.05 0.01 -0.04 0 -0.09 0.02 -0.09 0.01 -0.09 0.02 -0.09 0.01 -0.09 0.02 -0.09 0.02 -0.09 0.01 -0.09 0.02 -0.04 0.01 -0.05 0.01 -0.09 0.02 -0.09 0.02 -0.09 0.02 -0.07 0.01 -0.01 0.01 -0.09 0.02 -0.09 0.02 -0.09 0.02 -0.09 0.03 -0.02 0 -0.06 0.02 -0.09 0.02 -0.09 0.02 -0.09 0.03 -0.06 0.01 -0.02 0.01 -0.09 0.03 -0.09 0.02 -0.08 0.03 -0.09 0.03 -0.01 0 -0.07 0.02 -0.09 0.03 -0.09 0.03 -0.08 0.03 -0.05 0.01 -0.04 0.02 -0.08 0.03 -0.34 0.12 -0.08 0.03c-6.12,2.32 -10.47,8.22 -10.47,15.15 0,8.96 7.25,16.2 16.21,16.2zm-50.81 -10.73l5.48 -5.47 -5.48 -5.48 -5.49 5.48 5.49 5.47zm-50.81 -1.37l4.09 -4.1 -4.09 -4.1 -4.08 4.1 4.08 4.1zm-50.8 0.69l4.8 -4.79 -4.8 -4.79 -4.79 4.79 4.79 4.79zm761.99 -55.02l0.59 -0.59 -0.59 -0.55 -0.55 0.55 0.55 0.59zm-101.59 1.27l1.85 -1.86 -1.85 -1.83 -1.83 1.83 1.83 1.86zm-50.79 15.48c9.57,0 17.33,-7.76 17.33,-17.34 0,-9.55 -7.76,-17.29 -17.33,-17.29 -9.58,0 -17.33,7.74 -17.33,17.29 0,9.58 7.75,17.34 17.33,17.34zm-50.81 -6.48c5.99,0 10.84,-4.86 10.84,-10.86 0,-5.97 -4.85,-10.82 -10.84,-10.82 -6,0 -10.85,4.85 -10.85,10.82 0,6 4.85,10.86 10.85,10.86zm-50.78 5.64c9.09,0 16.46,-7.38 16.46,-16.5 0,-9.09 -7.37,-16.47 -16.46,-16.47 -9.12,0 -16.5,7.38 -16.5,16.47 0,9.12 7.38,16.5 16.5,16.5zm-50.83 -10.3c3.47,0 6.22,-2.75 6.22,-6.2 0,-3.4 -2.75,-6.16 -6.22,-6.16 -3.4,0 -6.2,2.76 -6.2,6.16 0,3.45 2.8,6.2 6.2,6.2zm-50.76 1.15c4.02,0 7.3,-3.28 7.3,-7.35 0,-4.04 -3.28,-7.3 -7.3,-7.3 -4.08,0 -7.34,3.26 -7.34,7.3 0,4.07 3.26,7.35 7.34,7.35zm-50.82 4.78c6.69,0 12.11,-5.4 12.11,-12.13 0,-6.68 -5.42,-12.08 -12.11,-12.08 -6.7,0 -12.12,5.4 -12.12,12.08 0,6.73 5.42,12.13 12.12,12.13zm-50.8 -0.86c6.22,0 11.26,-5.04 11.26,-11.27 0,-6.2 -5.04,-11.27 -11.26,-11.27 -6.24,0 -11.27,5.07 -11.27,11.27 0,6.23 5.03,11.27 11.27,11.27zm-50.79 3.27c8,0 14.49,-6.5 14.49,-14.54 0,-7.99 -6.49,-14.51 -14.49,-14.51 -8.04,0 -14.51,6.52 -14.51,14.51 0,8.04 6.47,14.54 14.51,14.54zm-50.81 3.24c9.81,0 17.75,-7.95 17.75,-17.78 0,-9.78 -7.94,-17.75 -17.75,-17.75 -9.81,0 -17.75,7.97 -17.75,17.75 0,9.83 7.94,17.78 17.75,17.78zm-50.79 -4.09c7.53,0 13.65,-6.11 13.65,-13.69 0,-7.54 -6.12,-13.64 -13.65,-13.64 -7.57,0 -13.69,6.1 -13.69,13.64 0,7.58 6.12,13.69 13.69,13.69zm-50.81 1.95c8.64,0 15.64,-6.98 15.64,-15.64 0,-8.61 -7,-15.6 -15.64,-15.6 -8.64,0 -15.63,6.99 -15.63,15.6 0,8.66 6.99,15.64 15.63,15.64zm-50.81 -13.64l1.98 -2 -1.98 -1.96 -1.96 1.96 1.96 2zm-50.8 13.64c8.64,0 15.64,-6.98 15.64,-15.64 0,-8.61 -7,-15.6 -15.64,-15.6 -8.62,0 -15.62,6.99 -15.62,15.6 0,8.66 7,15.64 15.62,15.64zm711.21 -53.47c7.16,0 12.95,-5.78 12.95,-12.95 0,-7.16 -5.79,-12.95 -12.95,-12.95 -7.17,0 -12.95,5.79 -12.95,12.95 0,7.17 5.78,12.95 12.95,12.95zm-50.81 1c7.7,0 13.95,-6.26 13.95,-13.95 0,-7.71 -6.25,-13.94 -13.95,-13.94 -7.69,0 -13.93,6.23 -13.93,13.94 0,7.69 6.24,13.95 13.93,13.95zm-101.6 3.79c9.81,0 17.73,-7.96 17.73,-17.74 0,-9.81 -7.92,-17.73 -17.73,-17.73 -9.78,0 -17.74,7.92 -17.74,17.73 0,9.78 7.96,17.74 17.74,17.74zm-50.78 -1.27c9.09,0 16.46,-7.37 16.46,-16.47 0,-9.09 -7.37,-16.47 -16.46,-16.47 -9.12,0 -16.5,7.38 -16.5,16.47 0,9.1 7.38,16.47 16.5,16.47zm-50.83 -2.11c7.97,0 14.38,-6.44 14.38,-14.36 0,-7.97 -6.41,-14.36 -14.38,-14.36 -7.92,0 -14.35,6.39 -14.35,14.36 0,7.92 6.43,14.36 14.35,14.36zm-50.76 -1.96c6.81,0 12.36,-5.55 12.36,-12.4 0,-6.85 -5.55,-12.4 -12.36,-12.4 -6.86,0 -12.4,5.55 -12.4,12.4 0,6.85 5.54,12.4 12.4,12.4zm-50.82 -1.86c5.84,0 10.55,-4.73 10.55,-10.54 0,-5.86 -4.71,-10.58 -10.55,-10.58 -5.85,0 -10.56,4.72 -10.56,10.58 0,5.81 4.71,10.54 10.56,10.54zm-50.8 1.86c6.84,0 12.39,-5.55 12.39,-12.4 0,-6.85 -5.55,-12.4 -12.39,-12.4 -6.86,0 -12.4,5.55 -12.4,12.4 0,6.85 5.54,12.4 12.4,12.4zm-50.79 3.93c9.01,0 16.33,-7.3 16.33,-16.33 0,-9.03 -7.32,-16.33 -16.33,-16.33 -9.03,0 -16.36,7.3 -16.36,16.33 0,9.03 7.33,16.33 16.36,16.33zm-50.81 -1.69c8.07,0 14.65,-6.54 14.65,-14.64 0,-8.1 -6.58,-14.63 -14.65,-14.63 -8.09,0 -14.65,6.53 -14.65,14.63 0,8.1 6.56,14.64 14.65,14.64zm-50.79 -0.42c7.85,0 14.2,-6.36 14.2,-14.22 0,-7.86 -6.35,-14.22 -14.2,-14.22 -7.87,0 -14.24,6.36 -14.24,14.22 0,7.86 6.37,14.22 14.24,14.22zm-50.81 1.56c8.71,0 15.76,-7.06 15.76,-15.78 0,-8.72 -7.05,-15.78 -15.76,-15.78 -8.73,0 -15.77,7.06 -15.77,15.78 0,8.72 7.04,15.78 15.77,15.78zm-50.81 2.66c10.2,0 18.45,-8.24 18.45,-18.44 0,-10.2 -8.25,-18.46 -18.45,-18.46 -10.2,0 -18.44,8.26 -18.44,18.46 0,10.2 8.24,18.44 18.44,18.44zm-50.8 -16.47l1.99 -1.97 -1.99 -1.97 -1.95 1.97 1.95 1.97zm711.21 -52.2l0.55 -0.58 -0.55 -0.55 -0.55 0.55 0.55 0.58zm-50.81 1.96l2.54 -2.54 -2.54 -2.52 -2.52 2.52 2.52 2.54zm-50.79 14.65c9.48,0 17.19,-7.69 17.19,-17.19 0,-9.48 -7.71,-17.17 -17.19,-17.17 -9.01,0 -16.34,6.9 -17.11,15.63l-0.01 0.1 -0.01 0.1 -0.01 0.02 0 0.09 -0.01 0.1 0 0.1 -0.01 0.1 -0.01 0.05 0 0.06 0 0.1 -0.01 0.1 0 0.1 0 0.08 0 0.03 -0.01 0.1 0 0.1 0 0.11 0 0.1 0 0.12 0 0.12 0 0.12 0.01 0.08 0 0.04 0 0.12 0 0.11 0.01 0.12 0 0.06 0.01 0.06 0 0.12 0.01 0.12 0.01 0.11 0 0.02 0.01 0.1 0.01 0.12 0.01 0.11 0.01 0.11 0 0.01 0.01 0.12 0.01 0.11 0.02 0.12 0.01 0.07 0 0.05 0.02 0.11 0.01 0.12 0.02 0.11 0.01 0.04 0.01 0.08 0.02 0.11 0.02 0.11 0.02 0.12 0.02 0.11 0.02 0.12 0.02 0.11 0.02 0.09 0 0.02 0.03 0.11 0.02 0.12 0.02 0.11 0.02 0.05 0.01 0.06 0.03 0.11 0.02 0.11 0.03 0.11 0.01 0.03 0.02 0.08 0.03 0.11 0.03 0.11 0.03 0.11 0.03 0.11 0.03 0.11 0.04 0.11 0.02 0.07 0.01 0.04 0.04 0.11 0.03 0.1 0.04 0.11 0.01 0.05 0.02 0.06 0.04 0.11 0.04 0.1 0.04 0.11 0 0.01 0.03 0.09 0.04 0.11 0.02 0.04 0.03 0.06 0.03 0.1 0.01 0.01 0.04 0.1 0.04 0.11 0.04 0.1 0.03 0.06 0.02 0.04 0.04 0.1 0.05 0.11 0.04 0.1 0.02 0.04 0.03 0.06c2.71,5.93 8.69,10.05 15.64,10.05zm-50.81 -0.28c9.33,0 16.92,-7.58 16.92,-16.91 0,-9.34 -7.59,-16.88 -16.92,-16.88 -9.34,0 -16.88,7.54 -16.88,16.88 0,9.33 7.54,16.91 16.88,16.91zm-50.78 -2.27c8.09,0 14.65,-6.55 14.65,-14.64 0,-8.1 -6.56,-14.65 -14.65,-14.65 -8.09,0 -14.65,6.55 -14.65,14.65 0,8.09 6.56,14.64 14.65,14.64zm-50.83 -2.8c6.57,0 11.87,-5.31 11.87,-11.84 0,-6.52 -5.3,-11.82 -11.87,-11.82 -6.52,0 -11.8,5.3 -11.8,11.82 0,6.53 5.28,11.84 11.8,11.84zm-50.76 1.28c7.22,0 13.09,-5.88 13.09,-13.12 0,-7.23 -5.87,-13.09 -13.09,-13.09 -7.28,0 -13.13,5.86 -13.13,13.09 0,7.24 5.85,13.12 13.13,13.12zm-50.82 -3.1c5.52,0 10,-4.48 10,-10.02 0,-5.52 -4.48,-9.99 -10,-9.99 -5.53,0 -10.01,4.47 -10.01,9.99 0,5.54 4.48,10.02 10.01,10.02zm-50.8 1.68c6.47,0 11.69,-5.22 11.69,-11.7 0,-6.45 -5.22,-11.68 -11.69,-11.68 -6.46,0 -11.7,5.23 -11.7,11.68 0,6.48 5.24,11.7 11.7,11.7zm-50.79 1.97c7.54,0 13.65,-6.13 13.65,-13.67 0,-7.55 -6.11,-13.64 -13.65,-13.64 -7.55,0 -13.67,6.09 -13.67,13.64 0,7.54 6.12,13.67 13.67,13.67zm-50.81 -2.41c6.23,0 11.27,-5.03 11.27,-11.26 0,-6.2 -5.04,-11.27 -11.27,-11.27 -6.23,0 -11.26,5.07 -11.26,11.27 0,6.23 5.03,11.26 11.26,11.26zm-50.79 4.09c8.47,0 15.35,-6.84 15.35,-15.35 0,-8.49 -6.88,-15.34 -15.35,-15.34 -8.49,0 -15.37,6.85 -15.37,15.34 0,8.51 6.88,15.35 15.37,15.35zm-50.81 0.42c8.71,0 15.76,-7.06 15.76,-15.77 0,-8.72 -7.05,-15.79 -15.76,-15.79 -8.73,0 -15.77,7.07 -15.77,15.79 0,8.71 7.04,15.77 15.77,15.77zm-50.81 -11.67l4.09 -4.1 -4.09 -4.08 -4.08 4.08 4.08 4.1zm-101.59 -3.11l0.98 -0.99 -0.98 -0.98 -0.98 0.98 0.98 0.99zm762 -47.99l3.79 -3.79 -3.79 -3.79 -3.79 3.79 3.79 3.79zm-50.81 -2.37l1.41 -1.42 -1.41 -1.41 -1.42 1.41 1.42 1.42zm-50.79 14.37c8.72,0 15.79,-7.07 15.79,-15.79 0,-8.71 -7.07,-15.77 -15.79,-15.77 -8.71,0 -15.77,7.06 -15.77,15.77 0,8.72 7.06,15.79 15.77,15.79zm-50.81 -1.83c7.71,0 13.94,-6.23 13.94,-13.96 0,-7.7 -6.23,-13.95 -13.94,-13.95 -7.69,0 -13.92,6.25 -13.92,13.95 0,7.73 6.23,13.96 13.92,13.96zm-50.78 -1.27c7,0 12.67,-5.69 12.67,-12.69 0,-6.99 -5.67,-12.68 -12.67,-12.68 -7.03,0 -12.68,5.69 -12.68,12.68 0,7 5.65,12.69 12.68,12.69zm-50.83 0.99c7.56,0 13.69,-6.13 13.69,-13.68 0,-7.54 -6.13,-13.67 -13.69,-13.67 -7.53,0 -13.62,6.13 -13.62,13.67 0,7.55 6.09,13.68 13.62,13.68zm-50.76 -2c6.43,0 11.67,-5.23 11.67,-11.68 0,-6.44 -5.24,-11.67 -11.67,-11.67 -6.48,0 -11.73,5.23 -11.73,11.67 0,6.45 5.25,11.68 11.73,11.68zm-50.82 -1.69c5.52,0 10,-4.47 10,-9.99 0,-5.5 -4.48,-9.99 -10,-9.99 -5.53,0 -10.01,4.49 -10.01,9.99 0,5.52 4.48,9.99 10.01,9.99zm-50.8 4.38c7.94,0 14.36,-6.45 14.36,-14.37 0,-7.93 -6.42,-14.36 -14.36,-14.36 -7.93,0 -14.37,6.43 -14.37,14.36 0,7.92 6.44,14.37 14.37,14.37zm-50.79 -0.28c7.77,0 14.07,-6.31 14.07,-14.09 0,-7.79 -6.3,-14.09 -14.07,-14.09 -7.79,0 -14.1,6.3 -14.1,14.09 0,7.78 6.31,14.09 14.1,14.09zm-50.81 -1c7.23,0 13.09,-5.86 13.09,-13.09 0,-7.24 -5.86,-13.09 -13.09,-13.09 -7.25,0 -13.11,5.85 -13.11,13.09 0,7.23 5.86,13.09 13.11,13.09zm-50.79 4.52c9.71,0 17.61,-7.9 17.61,-17.61l-0.01 -0.43 0 -0.02 -0.01 -0.41 0 -0.05 -0.03 -0.37 0 -0.07 -0.03 -0.36 -0.01 -0.09 -0.04 -0.33 -0.01 -0.11 -0.04 -0.3 -0.02 -0.14 -0.05 -0.28 -0.03 -0.16 -0.04 -0.25 -0.04 -0.18 -0.05 -0.22 -0.04 -0.2 -0.05 -0.21 -0.06 -0.22 -0.04 -0.18 -0.07 -0.24 -0.04 -0.15 -0.08 -0.26 -0.05 -0.13 -0.09 -0.28 -0.03 -0.11 -0.11 -0.3 -0.03 -0.09 -0.12 -0.31 -0.03 -0.07 -0.14 -0.33 -0.02 -0.04 -0.15 -0.35 -0.01 -0.02 -0.17 -0.37 -0.18 -0.36 -0.01 -0.02 -0.18 -0.34 -0.02 -0.04 -0.18 -0.31 -0.03 -0.06 -0.17 -0.29 -0.04 -0.08 -0.17 -0.26 -0.06 -0.1 -0.16 -0.24 -0.07 -0.11 -0.16 -0.22 -0.08 -0.13 -0.15 -0.2 -0.1 -0.14 -0.14 -0.18 -0.12 -0.16 -0.13 -0.15 -0.14 -0.18 -0.12 -0.13 -0.15 -0.19 -0.11 -0.12 -0.17 -0.19 -0.1 -0.1 -0.19 -0.21 -0.08 -0.08 -0.21 -0.22 -0.07 -0.07 -0.24 -0.23 -0.05 -0.05 -0.26 -0.24 -0.04 -0.03 -0.59 -0.52 -0.01 0 -0.6 -0.48 -0.03 -0.02 -0.03 -0.02 -0.3 -0.21 -0.04 -0.04 -0.29 -0.19 -0.06 -0.05 -0.27 -0.18 -0.09 -0.06 -0.25 -0.15 -0.11 -0.07 -0.24 -0.14 -0.12 -0.08 -0.23 -0.12 -0.35 -0.19 -0.17 -0.09 -0.19 -0.1 -0.19 -0.09 -0.18 -0.08 -0.37 -0.17 -0.23 -0.11 -0.14 -0.05 -0.26 -0.11 -0.12 -0.04 -0.28 -0.11 -0.1 -0.03 -0.31 -0.12 -0.08 -0.02 -0.33 -0.11 -0.06 -0.01 -0.35 -0.11 -0.04 -0.01 -0.8 -0.2 -0.01 -0.01 -0.4 -0.08 -0.03 -0.01 -0.37 -0.07 -0.06 -0.02 -0.36 -0.05 -0.07 -0.02 -0.34 -0.04 -0.1 -0.02 -0.32 -0.03 -0.12 -0.02 -0.3 -0.02 -1.5 -0.07c-9.73,0 -17.63,7.88 -17.63,17.6 0,5.17 2.17,9.69 5.64,12.9l0.14 0.13 0.01 0.01 0.15 0.13 0.15 0.13 0.01 0.01 0.14 0.12 0.16 0.13 0.02 0.02 0.13 0.11 0.16 0.13 0.04 0.03 0.12 0.09 0.16 0.12 0.16 0.12 0.16 0.12 0.08 0.06 0.08 0.06 0.17 0.11 0.1 0.07 0.07 0.05 0.17 0.11 0.11 0.07 0.06 0.04 0.17 0.11 0.13 0.08 0.04 0.02 0.17 0.1 0.16 0.09 0.02 0.02 0.35 0.19 0.18 0.1 0.18 0.09 0.02 0.01 0.16 0.09 0.18 0.09 0.04 0.01 0.15 0.07 0.18 0.09 0.06 0.02 0.13 0.06 0.19 0.08 0.07 0.03 0.11 0.05 0.19 0.08 0.1 0.04 0.09 0.04 0.19 0.07 0.12 0.04 0.08 0.03 0.19 0.07 0.14 0.04 0.06 0.02 0.19 0.07 0.16 0.05 0.04 0.01 0.2 0.06 0.18 0.05 0.01 0.01 0.2 0.05 0.41 0.11 0.2 0.04 0.02 0.01 0.18 0.04 0.21 0.04 0.04 0.01 0.16 0.03 0.21 0.04 0.06 0.01 0.14 0.03 0.21 0.03 0.09 0.02 0.12 0.02 0.21 0.02 0.11 0.02 0.1 0.01 0.21 0.03 0.13 0.01 0.08 0.01 0.21 0.02 0.15 0.01 0.07 0 0.21 0.02 0.17 0.01 0.05 0 0.21 0.01 0.2 0 0.02 0 0.21 0.01 0.22 0zm-50.81 -9.16c4.65,0 8.44,-3.77 8.44,-8.45 0,-4.69 -3.79,-8.43 -8.44,-8.43 -4.67,0 -8.45,3.74 -8.45,8.43 0,4.68 3.78,8.45 8.45,8.45zm-50.81 -1.56c3.83,0 6.92,-3.06 6.92,-6.89 0,-3.82 -3.09,-6.89 -6.92,-6.89 -3.81,0 -6.89,3.07 -6.89,6.89 0,3.83 3.08,6.89 6.89,6.89zm-50.8 10.3c9.5,0 17.2,-7.67 17.2,-17.19 0,-9.5 -7.7,-17.19 -17.2,-17.19 -9.49,0 -17.17,7.69 -17.17,17.19 0,9.52 7.68,17.19 17.17,17.19zm761.99 -55.18c7.1,0 12.84,-5.72 12.84,-12.82 0,-7.06 -5.74,-12.82 -12.84,-12.82 -7.05,0 -12.81,5.76 -12.81,12.82 0,7.1 5.76,12.82 12.81,12.82zm-50.78 -5.08c4.27,0 7.74,-3.43 7.74,-7.74 0,-4.27 -3.47,-7.72 -7.74,-7.72 -4.27,0 -7.74,3.45 -7.74,7.72 0,4.31 3.47,7.74 7.74,7.74zm-50.81 -3.91l3.82 -3.83 -3.82 -3.79 -3.79 3.79 3.79 3.83zm-50.79 -1.42l2.38 -2.41 -2.38 -2.39 -2.4 2.39 2.4 2.41zm-50.81 9.3c6.48,0 11.71,-5.23 11.71,-11.71 0,-6.43 -5.23,-11.69 -11.71,-11.69 -6.22,0 -11.32,4.91 -11.66,11.04l-0.01 0.05 0 0.11 -0.01 0.17 -0.01 0.02 0 0.14 0 0.16 0 0.26 0 0.04 0.01 0.21 0.01 0.09 0 0.16 0.01 0.14 0.01 0.11 0.02 0.19 0.01 0.06 0.02 0.23 0.01 0.02 0.03 0.25 0.01 0.03 0.03 0.21 0.01 0.08 0.03 0.17 0.03 0.11 0.02 0.13 0.04 0.16 0.02 0.08 0.05 0.2 0.01 0.03 0.06 0.24 0 0.01 0.07 0.22 0.02 0.06 0.05 0.17 0.04 0.1 0.04 0.13 0.05 0.14 0.03 0.09 0.07 0.18 0.02 0.05 0.09 0.21 0 0.01 0.1 0.22 0.02 0.03 0.08 0.19 0.04 0.07 0.06 0.14 0.06 0.12 0.05 0.1 0.08 0.15 0.03 0.06 0.11 0.18 0.01 0.03 0.12 0.2 0.02 0.02 0.11 0.18 0.04 0.06 0.09 0.14 0.06 0.09 0.07 0.11 0.09 0.12 0.05 0.07 0.12 0.16 0.02 0.04 0.14 0.18 0.01 0 0.14 0.19 0.03 0.03 0.12 0.15 0.07 0.07 0.09 0.11 0.09 0.1 0.07 0.08 0.12 0.12 0.04 0.05 0.16 0.16 0 0.01 0.17 0.16 0.03 0.02 0.15 0.14 0.06 0.05 0.11 0.11 0.1 0.08 0.08 0.08 0.13 0.1 0.05 0.05 0.17 0.13 0.02 0.02 0.19 0.14 0.01 0.01 0.18 0.13 0.05 0.03 0.23 0.16 0.11 0.08 0.13 0.08 0.07 0.05 0.17 0.1 0.24 0.14 0 0.01 0.21 0.11 0.04 0.02 0.17 0.09 0.08 0.04 0.13 0.07 0.12 0.06 0.1 0.05 0.16 0.07 0.05 0.03 0.21 0.08 0.01 0.01 0.23 0.09 0.02 0.01 0.2 0.08 0.07 0.02 0.16 0.06 0.11 0.04 0.12 0.04 0.15 0.04 0.08 0.03 0.2 0.06 0.03 0.01 0.24 0.06c0.94,0.24 1.91,0.37 2.92,0.37zm-50.78 0.97c7,0 12.67,-5.65 12.67,-12.68 0,-6.99 -5.67,-12.68 -12.67,-12.68 -7.03,0 -12.68,5.69 -12.68,12.68 0,7.03 5.65,12.68 12.68,12.68zm-50.83 1.4c7.79,0 14.1,-6.29 14.1,-14.08 0,-7.74 -6.31,-14.05 -14.1,-14.05 -7.78,0 -14.08,6.31 -14.08,14.05 0,7.79 6.3,14.08 14.08,14.08zm-50.76 1.42c8.53,0 15.46,-6.91 15.46,-15.5 0,-8.54 -6.93,-15.48 -15.46,-15.48 -8.59,0 -15.52,6.94 -15.52,15.48 0,8.59 6.93,15.5 15.52,15.5zm-50.82 -3.79c6.46,0 11.7,-5.23 11.7,-11.71 0,-6.43 -5.24,-11.69 -11.7,-11.69 -6.47,0 -11.7,5.26 -11.7,11.69 0,6.48 5.23,11.71 11.7,11.71zm-50.8 -0.27c6.3,0 11.4,-5.14 11.4,-11.44 0,-6.3 -5.1,-11.4 -11.4,-11.4 -6.31,0 -11.41,5.1 -11.41,11.4 0,6.3 5.1,11.44 11.41,11.44zm-50.79 -3.56c4.35,0 7.88,-3.51 7.88,-7.88 0,-4.34 -3.53,-7.88 -7.88,-7.88 -4.37,0 -7.9,3.54 -7.9,7.88 0,4.37 3.53,7.88 7.9,7.88zm-50.81 -0.41c4.12,0 7.45,-3.34 7.45,-7.47 0,-4.09 -3.33,-7.44 -7.45,-7.44 -4.13,0 -7.47,3.35 -7.47,7.44 0,4.13 3.34,7.47 7.47,7.47zm-50.79 -1.27c3.41,0 6.18,-2.76 6.18,-6.2 0,-3.42 -2.77,-6.16 -6.18,-6.16 -3.44,0 -6.21,2.74 -6.21,6.16 0,3.44 2.77,6.2 6.21,6.2zm-50.81 3.97c5.61,0 10.14,-4.55 10.14,-10.17 0,-5.58 -4.53,-10.13 -10.14,-10.13 -5.61,0 -10.13,4.55 -10.13,10.13 0,5.62 4.52,10.17 10.13,10.17zm-50.81 5.06c8.4,0 15.21,-6.82 15.21,-15.23 0,-8.41 -6.81,-15.2 -15.21,-15.2 -8.41,0 -15.22,6.79 -15.22,15.2 0,8.41 6.81,15.23 15.22,15.23zm-50.8 0.13c8.49,0 15.36,-6.86 15.36,-15.36 0,-8.47 -6.87,-15.34 -15.36,-15.34 -8.47,0 -15.35,6.87 -15.35,15.34 0,8.5 6.88,15.36 15.35,15.36zm711.21 -58.38c4.27,0 7.74,-3.49 7.74,-7.76 0,-4.27 -3.47,-7.76 -7.74,-7.76 -4.27,0 -7.74,3.49 -7.74,7.76 0,4.27 3.47,7.76 7.74,7.76zm-50.81 2.23c5.54,0 10.02,-4.48 10.02,-9.99 0,-5.51 -4.48,-9.99 -10.02,-9.99 -5.53,0 -9.99,4.48 -9.99,9.99 0,5.51 4.46,9.99 9.99,9.99zm-50.79 -2.11c4.35,0 7.89,-3.54 7.89,-7.88 0,-4.37 -3.54,-7.88 -7.89,-7.88 -4.37,0 -7.89,3.51 -7.89,7.88 0,4.34 3.52,7.88 7.89,7.88zm-50.81 2.25c5.62,0 10.17,-4.52 10.17,-10.13 0,-5.62 -4.55,-10.13 -10.17,-10.13 -5.58,0 -10.13,4.51 -10.13,10.13 0,5.61 4.55,10.13 10.13,10.13zm-50.78 -3.52c3.65,0 6.61,-2.96 6.61,-6.61 0,-3.65 -2.96,-6.62 -6.61,-6.62 -3.66,0 -6.62,2.97 -6.62,6.62 0,3.65 2.96,6.61 6.62,6.61zm-50.83 4.66c6.25,0 11.28,-5.03 11.28,-11.27 0,-6.24 -5.03,-11.27 -11.28,-11.27 -6.22,0 -11.25,5.03 -11.25,11.27 0,6.24 5.03,11.27 11.25,11.27zm-50.76 0c6.18,0 11.26,-5.03 11.26,-11.27 0,-6.24 -5.08,-11.27 -11.26,-11.27 -6.24,0 -11.27,5.03 -11.27,11.27 0,6.24 5.03,11.27 11.27,11.27zm-50.82 2.37c7.55,0 13.65,-6.09 13.65,-13.64 0,-7.55 -6.1,-13.69 -13.65,-13.69 -7.54,0 -13.66,6.14 -13.66,13.69 0,7.55 6.12,13.64 13.66,13.64zm-50.8 0.87c8.01,0 14.5,-6.49 14.5,-14.51 0,-8.04 -6.49,-14.51 -14.5,-14.51 -8.02,0 -14.51,6.47 -14.51,14.51 0,8.02 6.49,14.51 14.51,14.51zm-50.79 -4.11c5.74,0 10.42,-4.64 10.42,-10.4 0,-5.76 -4.68,-10.45 -10.42,-10.45 -5.78,0 -10.43,4.69 -10.43,10.45 0,5.76 4.65,10.4 10.43,10.4zm-50.81 -2.64c4.27,0 7.74,-3.49 7.74,-7.76 0,-4.27 -3.47,-7.76 -7.74,-7.76 -4.29,0 -7.75,3.49 -7.75,7.76 0,4.27 3.46,7.76 7.75,7.76zm-50.79 -2.15l5.63 -5.61 -5.63 -5.65 -5.66 5.65 5.66 5.61zm-50.81 7.2c7.09,0 12.81,-5.74 12.81,-12.81 0,-7.1 -5.72,-12.82 -12.81,-12.82 -7.09,0 -12.83,5.72 -12.83,12.82 0,7.07 5.74,12.81 12.83,12.81zm-50.81 -7.34l5.5 -5.47 -5.5 -5.51 -5.5 5.51 5.5 5.47zm-50.8 0.87c3.5,0 6.34,-2.83 6.34,-6.34 0,-3.52 -2.84,-6.34 -6.34,-6.34 -3.5,0 -6.33,2.82 -6.33,6.34 0,3.51 2.83,6.34 6.33,6.34zm711.21 -55.16l1.97 -2 -1.97 -1.96 -1.97 1.96 1.97 2zm-50.81 15.19c9.5,0 17.19,-7.69 17.19,-17.19 0,-9.47 -7.69,-17.16 -17.19,-17.16 -9.48,0 -17.16,7.69 -17.16,17.16 0,9.5 7.68,17.19 17.16,17.19zm-50.79 -13.5l3.65 -3.69 -3.65 -3.64 -3.66 3.64 3.66 3.69zm-50.81 9.12c7.1,0 12.81,-5.72 12.81,-12.81 0,-7.06 -5.71,-12.81 -12.81,-12.81 -7.07,0 -12.82,5.75 -12.82,12.81 0,7.09 5.75,12.81 12.82,12.81zm-50.78 -7.44l5.33 -5.37 -5.33 -5.34 -5.38 5.34 5.38 5.37zm-50.83 8.45c7.62,0 13.83,-6.16 13.83,-13.82 0,-7.61 -6.21,-13.78 -13.83,-13.78 -7.6,0 -13.8,6.17 -13.8,13.78 0,7.66 6.2,13.82 13.8,13.82zm-50.76 1.56l0.11 0 0.1 0 0.11 0 0.08 -0.01 0.02 0 0.11 0 0.1 0 0.11 -0.01 0.05 0 0.05 0 0.11 -0.01 0.1 -0.01 0.1 0 0.03 0 0.08 -0.01 0.1 -0.01 0.11 -0.01 0.1 -0.01 0.11 -0.01 0.09 -0.02 0.11 -0.01 0.07 0 0.03 -0.01 0.1 -0.02 0.1 -0.01 0.1 -0.01 0.06 -0.01 0.05 -0.01 0.1 -0.02 0.1 -0.01 0.1 -0.02 0.02 0 0.08 -0.02 0.1 -0.02 0.1 -0.02 0.1 -0.01 0 -0.01 0.1 -0.02 0.1 -0.02c6.89,-1.51 12.03,-7.65 12.03,-15.02 0,-8.46 -6.85,-15.33 -15.32,-15.33 -8.52,0 -15.38,6.87 -15.38,15.33 0,5.35 2.77,10.15 6.97,12.88l0.11 0.07 0 0.01 0.12 0.07 0.11 0.07 0.82 0.47 0.12 0.06 0.12 0.06 0 0.01 0.13 0.06 0.12 0.06 0.24 0.11 0.13 0.06 0.05 0.03 0.07 0.03 0.13 0.05 0.12 0.06 0.02 0.01 0.11 0.04 0.12 0.05 0.39 0.15 0.08 0.04 0.05 0.01 0.13 0.04 0.13 0.05 0.05 0.02 0.08 0.02 0.13 0.05 0.13 0.04 0.02 0.01 0.11 0.03 0.14 0.04 0.11 0.04 0.02 0 0.27 0.07 0.08 0.03 0.05 0.01 0.14 0.03 0.13 0.03 0.05 0.02 0.09 0.01 0.13 0.03 0.14 0.03 0.01 0.01 0.13 0.02 0.14 0.03 0.11 0.02 0.03 0 0.13 0.03 0.14 0.02 0.08 0.01 0.06 0.01 0.14 0.02 0.14 0.02 0.05 0.01 0.09 0.01 0.15 0.01 0.14 0.02 0.14 0.01 0.14 0.02 0.11 0.01 0.03 0 0.15 0.01 0.14 0.01 0.08 0 0.07 0 0.14 0.01 0.14 0 0.04 0 0.11 0.01 0.14 0 0.15 0zm-152.41 1.13c9.08,0 16.47,-7.38 16.47,-16.51 0,-9.08 -7.39,-16.47 -16.47,-16.47 -9.12,0 -16.5,7.39 -16.5,16.47 0,9.13 7.38,16.51 16.5,16.51zm-50.81 -7.33c5.04,0 9.15,-4.11 9.15,-9.18 0,-5.06 -4.11,-9.13 -9.15,-9.13 -5.06,0 -9.16,4.07 -9.16,9.13 0,5.07 4.1,9.18 9.16,9.18zm-50.79 -4.94l4.21 -4.24 -4.21 -4.21 -4.24 4.21 4.24 4.24zm-50.81 3.65c4.35,0 7.88,-3.51 7.88,-7.89 0,-4.34 -3.53,-7.88 -7.88,-7.88 -4.37,0 -7.89,3.54 -7.89,7.88 0,4.38 3.52,7.89 7.89,7.89zm-50.81 -2.96l4.93 -4.93 -4.93 -4.92 -4.92 4.92 4.92 4.93zm-50.8 -2.66l2.26 -2.27 -2.26 -2.24 -2.26 2.24 2.26 2.27zm660.4 -50.81l2.26 -2.23 -2.26 -2.29 -2.25 2.29 2.25 2.23zm-50.79 -1.13l1.14 -1.1 -1.14 -1.15 -1.13 1.15 1.13 1.1zm-50.81 5.78c3.83,0 6.93,-3.09 6.93,-6.88 0,-3.83 -3.1,-6.93 -6.93,-6.93 -3.79,0 -6.89,3.1 -6.89,6.93 0,3.79 3.1,6.88 6.89,6.88zm-50.78 4.79c6.45,0 11.68,-5.23 11.68,-11.67 0,-6.49 -5.23,-11.71 -11.68,-11.71 -6.48,0 -11.72,5.22 -11.72,11.71 0,6.44 5.24,11.67 11.72,11.67zm-50.83 4.92c9.21,0 16.65,-7.44 16.65,-16.59 0,-9.21 -7.44,-16.65 -16.65,-16.65 -9.16,0 -16.6,7.44 -16.6,16.65 0,9.15 7.44,16.59 16.6,16.59zm-50.76 -3.1c7.44,0 13.5,-6.02 13.5,-13.49 0,-7.48 -6.06,-13.55 -13.5,-13.55 -7.49,0 -13.55,6.07 -13.55,13.55 0,7.47 6.06,13.49 13.55,13.49zm-50.82 3.38c9.34,0 16.89,-7.54 16.89,-16.87 0,-9.34 -7.55,-16.92 -16.89,-16.92 -9.33,0 -16.9,7.58 -16.9,16.92 0,9.33 7.57,16.87 16.9,16.87zm-50.8 0.32c9.48,0 17.17,-7.72 17.17,-17.19 0,-9.51 -7.69,-17.2 -17.17,-17.2 -9.49,0 -17.2,7.69 -17.2,17.2 0,9.47 7.71,17.19 17.2,17.19zm-50.79 -6.34c5.99,0 10.83,-4.85 10.83,-10.85 0,-6 -4.84,-10.86 -10.83,-10.86 -6,0 -10.86,4.86 -10.86,10.86 0,6 4.86,10.85 10.86,10.85zm-50.81 2.5c7.4,0 13.37,-5.99 13.37,-13.35 0,-7.41 -5.97,-13.41 -13.37,-13.41 -7.4,0 -13.38,6 -13.38,13.41 0,7.36 5.98,13.35 13.38,13.35zm-50.79 1.97c8.47,0 15.35,-6.86 15.35,-15.32 0,-8.49 -6.88,-15.38 -15.35,-15.38 -8.49,0 -15.37,6.89 -15.37,15.38 0,8.46 6.88,15.32 15.37,15.32zm-50.81 -5.34c5.52,0 10,-4.47 10,-9.98 0,-5.55 -4.48,-10.03 -10,-10.03 -5.52,0 -10.01,4.48 -10.01,10.03 0,5.51 4.49,9.98 10.01,9.98zm-50.81 -5.93l4.09 -4.05 -4.09 -4.11 -4.08 4.11 4.08 4.05zm-50.8 -3.36l0.71 -0.69 -0.71 -0.73 -0.7 0.73 0.7 0.69zm609.61 -49.24l2.24 -2.27 -2.24 -2.25 -2.26 2.25 2.26 2.27zm-50.81 14.91c9.51,0 17.18,-7.67 17.18,-17.18 0,-9.48 -7.67,-17.2 -17.18,-17.2 -9.48,0 -17.19,7.72 -17.19,17.2 0,9.51 7.71,17.18 17.19,17.18zm-50.78 -13.81l3.37 -3.37 -3.37 -3.38 -3.38 3.38 3.38 3.37zm-50.83 0.46l3.84 -3.83 -3.84 -3.79 -3.77 3.79 3.77 3.83zm-50.76 9.4c7.3,0 13.23,-5.89 13.23,-13.23 0,-7.31 -5.93,-13.23 -13.23,-13.23 -7.34,0 -13.27,5.92 -13.27,13.23 0,7.34 5.93,13.23 13.27,13.23zm-50.82 0c7.32,0 13.24,-5.89 13.24,-13.23 0,-7.31 -5.92,-13.23 -13.24,-13.23 -7.32,0 -13.25,5.92 -13.25,13.23 0,7.34 5.93,13.23 13.25,13.23zm-50.8 6.34c10.82,0 19.57,-8.75 19.57,-19.57 0,-10.82 -8.75,-19.57 -19.57,-19.57 -10.82,0 -19.59,8.75 -19.59,19.57 0,10.82 8.77,19.57 19.59,19.57zm-50.79 -2.24c9.55,0 17.31,-7.76 17.31,-17.33 0,-9.58 -7.76,-17.32 -17.31,-17.32 -9.59,0 -17.34,7.74 -17.34,17.32 0,9.57 7.75,17.33 17.34,17.33zm-50.81 -9.45c4.35,0 7.9,-3.51 7.9,-7.88 0,-4.34 -3.55,-7.88 -7.9,-7.88 -4.36,0 -7.88,3.54 -7.88,7.88 0,4.37 3.52,7.88 7.88,7.88zm-50.79 2.41c5.66,0 10.26,-4.61 10.26,-10.29 0,-5.68 -4.6,-10.27 -10.26,-10.27 -5.7,0 -10.29,4.59 -10.29,10.27 0,5.68 4.59,10.29 10.29,10.29zm-50.81 -2.55c4.28,0 7.74,-3.47 7.74,-7.74 0,-4.28 -3.46,-7.76 -7.74,-7.76 -4.29,0 -7.75,3.48 -7.75,7.76 0,4.27 3.46,7.74 7.75,7.74zm-101.61 -5.79l1.99 -1.95 -1.99 -1.97 -1.95 1.97 1.95 1.95zm609.61 -52.04l0.7 -0.69 -0.7 -0.72 -0.72 0.72 0.72 0.69zm-50.81 1.54l2.27 -2.23 -2.27 -2.28 -2.25 2.28 2.25 2.23zm-50.78 8.31c5.83,0 10.54,-4.73 10.54,-10.54 0,-5.86 -4.71,-10.59 -10.54,-10.59 -5.86,0 -10.59,4.73 -10.59,10.59 0,5.81 4.73,10.54 10.59,10.54zm-50.83 -6.75l3.84 -3.79 -3.84 -3.82 -3.77 3.82 3.77 3.79zm-50.76 -3.38l0.41 -0.41 -0.41 -0.44 -0.45 0.44 0.45 0.41zm-50.82 2.51l2.96 -2.92 -2.96 -2.97 -2.97 2.97 2.97 2.92zm-50.8 -1.38l1.54 -1.54 -1.54 -1.55 -1.56 1.55 1.56 1.54zm-50.79 11.41c7.14,0 12.95,-5.83 12.95,-12.95 0,-7.17 -5.81,-12.96 -12.95,-12.96 -7.18,0 -12.97,5.79 -12.97,12.96 0,7.12 5.79,12.95 12.97,12.95zm-50.81 -5.79c3.97,0 7.19,-3.19 7.19,-7.16 0,-4 -3.22,-7.21 -7.19,-7.21 -3.98,0 -7.18,3.21 -7.18,7.21 0,3.97 3.2,7.16 7.18,7.16zm-50.79 -4.06l3.08 -3.1 -3.08 -3.1 -3.11 3.1 3.11 3.1zm-50.81 9.71c7.09,0 12.81,-5.76 12.81,-12.81 0,-7.1 -5.72,-12.82 -12.81,-12.82 -7.09,0 -12.83,5.72 -12.83,12.82 0,7.05 5.74,12.81 12.83,12.81zm457.19 -61.66l1.97 -1.96 -1.97 -1.97 -1.97 1.97 1.97 1.96zm-50.78 5.78c4.27,0 7.76,-3.47 7.76,-7.74 0,-4.29 -3.49,-7.76 -7.76,-7.76 -4.3,0 -7.76,3.47 -7.76,7.76 0,4.27 3.46,7.74 7.76,7.74zm-50.83 5.07c7.12,0 12.84,-5.71 12.84,-12.81 0,-7.07 -5.72,-12.83 -12.84,-12.83 -7.05,0 -12.81,5.76 -12.81,12.83 0,7.1 5.76,12.81 12.81,12.81zm-50.76 -12.53l0.28 -0.28 -0.28 -0.29 -0.32 0.29 0.32 0.28zm-50.82 12.66c7.16,0 12.95,-5.79 12.95,-12.94 0,-7.18 -5.79,-12.95 -12.95,-12.95 -7.17,0 -12.96,5.77 -12.96,12.95 0,7.15 5.79,12.94 12.96,12.94zm-50.8 0c7.17,0 12.96,-5.79 12.96,-12.94 0,-7.18 -5.79,-12.95 -12.96,-12.95 -7.16,0 -12.95,5.77 -12.95,12.95 0,7.15 5.79,12.94 12.95,12.94z"/>
 </g>
</svg>
